<svg fill="none" height="128" viewBox="0 0 128 128" width="128" xmlns="http://www.w3.org/2000/svg"><path clip-rule="evenodd" d="m124.28 68.2666c0-.3669-.325-.785-.333-1.2032-.009-.4181.298-.9386.324-1.4037.115-2.0608.354-5.2992-1.28-6.6944.101-.1327.229-.2416.377-.3191.147-.0774.31-.1214.476-.1289-.226-1.9029-.367-3.7803-.943-5.7899-.426 0 .039.7936-.349.495-.171-.576-.457-.6102-.21-.9643.329.128.073.1579.256.4779.606-1.6214-.477-3.7504-1.245-5.7856-.107-.1963-.367.1109-.487-.047.363-.2858.286-1.4506-.281-1.3866-.077.2773.695.7125-.094.9728.175-.9643-1.31-1.8518-.679-2.7094.713.239.145 1.28.824 1.2502-.218-.879-.559-1.6726-.666-2.1035-.503.1792.214.7296-.461.8533-.354-.2986-.665-.8533-.456-1.1392.388-.2432.729.5334.913 0-.819-2.6794-2.24-4.9066-3.465-7.0613-.768-1.344-1.344-2.8629-2.167-4.0619-.632-.913-1.737-1.6341-2.381-2.7221-.815-1.3824-2.086-2.5003-2.645-3.8101-.93.0597-.943-1.2416-1.732-1.2246 0 .7851.853.6998 1.134 1.5446-1.309 1.3568-1.331-1.7067-2.598-1.9926-.107-.3968.132-.6912.213-1.0368-1.412-1.8261-3.101-2.7477-4.544-4.4842-.386-.0323-.761-.1457-1.1-.3328-12.4164-10.32536-27.5759-14.26776-43.9343-12.65922-.9984.23893-1.6768.42666-2.7093.6784-1.28.31573-2.8672.10666-3.9296.42666-.6784.192-1.2373.82774-1.9115 1.01974-.5546.15786-1.28-.128-1.8176.0512-.4266.13226-.7509.576-1.1306.7552-1.7878.85333-3.6096.81493-5.4016 1.96266-1.3739.87896-2.9568 1.34396-4.3691 2.18026-3.2262 1.9834-6.2843 4.2281-9.1435 6.7115-.2346.2048-.5717.2346-.8533.4266-2.8075 2.3211-5.0005 5.44-7.104 7.9702-.8875 1.0752-2.0053 1.9072-2.6496 2.7989s-.9728 2.1333-1.6725 3.1957c-1.6598 2.5302-2.607 5.039-3.84 7.4368-.42671.8534-.42671 1.5104-.78937 2.2656-.14934.3158-.50774.4779-.64427.8064-1.00693 2.4406-1.28 4.7787-1.92427 7.3259-.2944 1.1733-.74666 2.0181-.8832 3.2341-.25006 1.8124-.40246 3.6369-.45653 5.4656 0 2.1078-.42667 4.0704-.1408 6.0672.09813.7083-.29013 1.5019-.24747 2.1334.0256.3285.33707.6869.39254 1.0197.0896.5547-.18774 1.1819-.13654 1.7579.08534.9642.6016 2.0437.75094 3.1317.26453 1.9115.34986 3.9381.85333 5.3717.35413.9771.55467 1.3611.3584 2.1334 1.00267 1.7066 1.33973 3.8016 2.02667 5.521 2.42347 6.0544 6.01597 11.3366 9.71517 16.4696 3.7462 3.575 7.3643 7.594 11.4816 9.95 2.9867 3.016 6.6432 3.84 9.8603 6.101 1.7067.132 3.0933 1.463 4.8299 1.566 1.7066 1.352 4.0021.896 5.7557 2.133.3727-.097.764-.098 1.1372-.002.3731.095.7159.284.9961.548 2.7648-.32 5.0262 1.029 7.8336.576 2.6368.986 5.9734-.362 8.7339.252 3.52-.892 7.4667-.546 11.2213-1.997.3115-.119.6016-.503.8918-.631.6784-.303 1.5317-.231 2.2314-.427 1.152-.298 2.2767-.694 3.3622-1.182 3.7717-1.822 7.8549-3.635 11.2896-6.182 7.4923-5.547 13.3293-11.746 17.0113-18.7735 2.634-3.6372 4.502-7.7711 5.491-12.1515 1.651-2.769 1.126-6.1952 2.56-9.0368-.23-.5034.128-.8277-.282-1.3866.739-.8534.389-1.8219.47-2.8587.03-.4523.324-.8875.316-1.3483zm-111.9066 1.5488c-.0273.1916.0218.3862.1365.5419-.1518.0961-.3246.1541-.5036.169-.1791.0148-.3591-.0139-.5246-.0837.0768-.4095.7168-.1578.8917-.6272zm-2.0907 7.872c-.42664.2049-1.00691-.1493-.92584-.5802.42667-.2646.68264.1664 1.09224.0298.2176.2646-.57597.2262-.1621.5504zm.4267-10.6666c-.1451.1237.0597.3541.1365.5418-.32.2859-.3669-.3328-.7253.0811-.37974-.7424.4864-1.2501.8917-.6315-.0938.0171-.1664-.0682-.2858-.0042zm1.4464 6.4469c.1451-.1323-.1024-.2133-.2475-.1749-.0981-.1835.5974-.239.7808-.2646l.256.4779c-.8106.3584-1.2032.4608-1.8816-.0683.2347-.5674.6827.239 1.1094.0171zm.8533 11.6736c-.3498-.5376-.3541-.5077-.7594-1.1307l.3626-.192c-.5376-.2816-.7296-.9344-1.4293-1.233-.128-.5504.6571-.4992.9003-.3286.1237.9814 1.4805 1.6555.9472 2.8715zm.9686 4.3989c-.2432-.4266-.576-.8533.0938-.9728.1057.1419.1565.3172.1432.4936s-.0899.342-.2157.4664zm105.3273-47.7866c.175.4266-.636.704-.854.4266-.025-.3029.713-.512.875-.4522zm-1.383-1.7067c.175.0893.309.2419.376.4267-.056.1031-.132.194-.224.2672-.091.0733-.197.1275-.31.1594-.051-.0693-.086-.1484-.105-.2323-.019-.084-.02-.1709-.003-.2552s.051-.1641.101-.2345c.049-.0703.113-.1296.187-.174zm1.28 31.7269c-.222.0982-.175.2817-.426.3755.128.057.235.152.307.2721s.106.2595.096.3993-.062.2732-.151.3821c-.088.1088-.207.1879-.342.2265.081-.4267-.713-1.088-.094-1.3312-.145-.4267-.461-.2475-.789-.0426.098-.5035.49-.9174.426-1.4635.256-.0726.427.0938.726-.0811 0 .2688-.231.4651-.589.6229.294.2432.614.2902.858.5974zm.154 3.4518c-.111.3626-.644.4266-.956.5077-.371-.64.678-1.1392.977-.5504zm-4.63-9.8134c.261-.2005.376.0811.662-.2005.217.4693-.32.704-.516 1.0453-.197-.3797.093-.5504-.124-.8917zm.696 9.2544c.328 1.4507-.969.2475-1.489.9515l-.256-.4779c.149-.0554.2-.1408.175-.2474.704-.3798 1.071.3626 1.57-.2262zm-.312-.2944c.027-.1463.002-.2974-.072-.4266.427.1621.405-.7126.96-.5078.175.5419-.371 1.2032-.888.9472zm.594-7.2277c.452-.3797.665 0 .853.4608-.149.0555-.196.1408-.175.2475-.542.1024-.299-.5078-.678-.6955zm.768 6.0416c.179.3797.644.5248.512.9557.627.1408.588-.8277 1.194-.64-.124 1.6385-2.867 1.0966-1.698-.3029zm.797-4.2667c.286.4267.278.7552-.098.9728-.213-.384-.422-.7722.098-.96zm-.64-30.5194c-.098-.4651-.853-1.0368-.772-1.7366.841.239 1.237 1.5275.772 1.7366zm-2.56 13.6533c.478-.7723 1.344-1.7067 2.441-1.7621 0-.3072-.286-.5035.158-.8534.708-.2133.721.2176 1.109.6358-.644.6144-1.442 1.28-2.274 1.2117-.209.4736-.798.8277-.994 1.28.32.1195.299-.2091.653-.5035.371.2006.025.4694.486.0512l.32.5974c.269-.1195-.175-.4566-.2-.6614.426-.2389.853-.3882 1.092.0299-.768.4693-.282 1.3141.055 2.1333-.145.2859-.618.4779-.827.7467-.35-.3499-1.05-.4949-.76-1.1307-.427-.2474-.427.4651-.772.5675-.141-.4267-.478-.1749-.734-.2219-.427-.8874.883-1.4762.264-2.1205zm-.576 9.5275c.534-.367.687.5034.751.8277l-.597.32c-.102-.3968-.418-.8619-.154-1.1477zm-5.546 21.8453c-.162 0-.269-.2091-.487-.0469.028-.1916-.021-.3861-.136-.5419.264-.2005.38.0811.661-.1963-.205-.0981-.35-.3882-.61-.2901 0-.4267.585.0213.853-.1408.363.5632-.362.7552-.281 1.216zm-.93-9.792c-.261-.3456.221-.4651-.141-.8533.226 0 .512-.1536.61.2858.205-.2688.567-1.28 1.075-.5717-.294.8576-.687 1.1989-1.532 1.1392zm-.175 13.7643c-.559 0-.572.32-.892.6272-.256-.3414.051-.5163.427-.6742-.222-.6314-.965.3627-1.012.6912-.26.2049-.375-.0767-.661.2006-.26 0 .521-.5035.158-.8534.644-.1706.307-.64.947-.8149-.294-.2901-.456.2005-.601 0-.256-.3413.046-.5163.405-.6741-.452-.1792-.073-.6827-.384-.7211.341-.4523.853-.4608 1.442-.4608.158.1365.188.6912.427.5333.034.3115-.427.4736-.525.7424.107.4267.448.0512.555.4694 0 .3498-.431.5504-.274.9344zm-1.801 2.9568c.295-.4267.653-.239 1.028-.0896.137.5205-.874.7082-1.015.0896zm1.109.6357c.278.5205-.145.8235-.452 1.1648.013-.4224-.158-.9173.465-1.1648zm.53 1.5616c.396-.0299.328.6229.426.8533-.563.1882-1.137.3421-1.719.4608-.154-.8533 1.165-.6186 1.305-1.3141zm-2.232-10.7861c-.448.145-.768-.1067-1.28.2133-.166-.0597 1.097-1.2971 1.293-.2133zm-2.475 13.1584c-.827.3413-1.971.1877-1.536-.8534.854-.5717 1.421-.2816 2.134-.3584.192.7339-.994.4395-.598 1.2118zm-4.2321.4266c-.3499.8918-1.7067.047-1.28-.6912.512-.1066.6826.9814 1.2714.6784zm-61.2438 15.0276c.367-.103.512.516.9174.277.1578.384-.4267.853-.8278.751l-.192-.358c.4651-.094.2987-.376.1024-.67zm-6.2421-4.497c.5461-.069.0555-.453.4736-.559.0491.013.0949.036.1346.067.0397.032.0725.071.0961.116.0237.045.0378.095.0414.145.0036.051-.0033.102-.0204.15.0677-.037.1332-.076.1963-.12l.1792.282c-.1425-.003-.2851.004-.4267.021-.0554.316.0768.691-.4608.853-.2133-.358.1878-.533-.2133-.955zm75.132-68.3866c-.363.3158-.576.1366-.854.1408.282-.273.401-.9301.768-.8533.188.2731.022.4565.086.7125zm-.499 1.647c-.35.2773-.619.2858-.854.145-.124-.2688.162-.4266.47-.5589.11.2219.294.1749.388.4139zm-.384 1.5872c0 .3584-.756.5418-.901.3285.008-.2913.063-.5795.162-.8533.389-.2774.419.6101.743.5248zm-1.421-5.5467c-.111.0341-.086.1067-.056.1835-.213-.0726-.068-.8832.517-1.0454.405.2902.217.4736.512.96-.402.2518-.602-.1877-.969-.0896zm7.509 29.0133c.141.1963.35.1622.606 0l.32.5974c-.256.32-.363.5248-.777.5674-.328-.576-.328-.6528-.699-1.3141.345-.1963.298-.512.341-.7979.324-.1109.384.4992-.047.4864.009.2646.597.2006.26.4694zm-3.703 17.7963c.029.1109-.06.1835 0 .3029l-.239.128c-.308-.145-.687-1.4549.085-1.28.009.384-.525.8107.158.8576zm-.197-9.5701c.027-.1463.001-.2974-.072-.4267.61-.064.623-.1195 1.258-.5205.291.7296-.729 1.0112-1.181.9557zm-.951-4.5568c.051-.239.107-.4736.162-.7083.077-.03.15-.0686.218-.1152.337.0896 0 .5291.55.1707.098.5205-.499.4949-.926.6613zm-.491 5.0176-.32-.5974.598-.3157c-.192.2816.285.7637-.274.9216zm-65.8729 35.6268c.4882-.173.9655-.376 1.4294-.606-.064.209-.1707.401-.2347.61-.6059.06-.7424-.153-1.3269.397.0831-.118.1292-.257.1322-.401zm63.6079-13.9778c.17.32.516.0555.678.4054-.085.32-.457.1066-.853.448-.188-.0427-.273-.4267-.551-.1664-.213-.5803.606-.2176.726-.687zm2.287-14.1226c.203.3073.337.6553.392 1.0197-.623.3371-1.233-.7424-.392-1.0197zm2.734-13.2864c-.226-.3456.137-.6699-.264-.7808-.482.1834.055.6826-.644.8064-.337-.5248-.704-.7467-.333-1.2032-.115-.256-.427.1194-.627.1877.001-.0142.001-.0285 0-.0427.042-.1664.055-.3328.081-.4992.642-.4082 1.218-.9134 1.706-1.4976.15.1963 0 .3072-.055.1835-.188.2176.294.9813.567.7723.163-.1835-.072-.3158-.247-.175 1.212-.64-.563-1.7066.115-2.368.299-.2048.427.0854.615.2902.486-.256.78-.5675.52-1.0454.175-.081.346-.1621.294-.3114.146-.0512.128.0853.064.1194.466.0598 1.28-.3541.803.6443-.042.0412-.094.0704-.151.0844-.057.0141-.116.0125-.172-.0045-.056-.0171-.106-.049-.146-.0924-.039-.0433-.066-.0965-.078-.1539-.264.1877 0 .5333-.426.6784.303.0811.426-.3499.734.2219-.337.1962-.815.3541-.892.6314.318.2753.523.6581.576 1.0752-.329.3072-.376-.3072-.67-.1024-1.323.9174.913 2.4448-1.37 2.5814zm1.827 16.0768c-.282.2986-.35 1.0197-.884.9344-.179-.4608.44-.6742.884-.9344zm-.081-.7254c-.427.0854.183-.3242-.137-.5418.286-.2774.401 0 .666-.2006.435.6144-.581.4096-.529.7382zm1.454-11.3706c-.123.5504-.669.4266-.823 1.0496-.73-.32.209-1.4166.823-1.0539zm-.345 14.3104c.103.0559.194.1319.267.2235s.128.1969.16.3098c-.219.1815-.497.2757-.781.2645.055-.2901 0-.6058.354-.8021zm1.463 2.4448c.13.1019.236.2313.309.3788.074.1476.114.3096.118.4745-.237.1654-.53.2308-.815.1821s-.539-.2076-.708-.4424c.131-.1698.297-.3105.486-.4133.188-.1028.396-.1655.61-.184zm.316-39.6459c-.235.2517-.853-.2944-.602.32-.109.0106-.219.0106-.328 0 .082-.397.116-.8023.102-1.2075.38.0555.888-.3029 1.28-.2858l.192.3584c-.162.5077-.913.2133-.644.8149zm-.299-17.8133c.709 0 1.31 1.0154.645 1.5018-.423-.3626-.905-1.2586-.632-1.5061zm-1.949-3.0934c.315.5078 2.06 1.7067 1.834 2.8587-.397.1536-1.126-.8021-.759-1.1307-.384-.256-1.707-1.2501-1.075-1.728zm-1.067-1.425.427.8533c-.534-.2347-.773-.3669-1.28-.0853-.406-.6955.452-.7766.853-.7766zm-2.581 5.5466c.486.3926 1.237.0811 1.745-.4736-.427.768-1.28 1.1691-1.959 1.5062-.29-.4608.38-.6443.214-1.0624zm-1.357-9.7536c.111.4267.392.2432.503.6528-.473.3755-1.357-.3626-.503-.6528zm-1.523 8.6486c.085.6954.426.8021.874 1.0666-.341.3926-.657.8534-1.139.4566.051-.1878.107-.367.166-.5504-.162-.2262-.426-.0683-.669-.1024-.201-.2646.081-.3798-.197-.6614.131-.1139.288-.1929.458-.2294.169-.0366.345-.0296.511.0204zm-2.744-.5334c0 .7894-.853 1.28-1.169 1.5488-.6315-.4565.559-2.0565 1.169-1.5488zm-1.045-2.8202.384.7168c-.5421.4565-.5635-.7894-1.1011-.3328-.0981-.6102.3371-.0171.7211-.384zm-.2349 9.0368c.3709.8021.7299.6784 1.3649 1.1136-.96.4266-1.2455-.3798-1.8897-.3712-.0384-.3115.064-.5803.5248-.7424zm-1.7664-13.952c.3157-.1707.657-.4267.9002-.3286.4267.7296-.4608 1.0624-.8533 1.5403-.1102-.3946-.1277-.8093-.0512-1.2117zm-.0555 4.7872c.32.2645.2944.4949.3285.9045-.3242.3029-.5077.1365-.7253.0768.1408-.3243-.1195-.768.3925-.9813zm-11.5755-13.3248c.175.6314-.9728.5205-1.1477.1536.3499.0597.8363-.3243 1.1477-.1536zm-.5546-.4694c-.6443.4267-.5035.8022-1.3739.8875-.2944-.8491.8661-.9557 1.3739-.8875zm-5.7771 8.4566c.4608.2986.2304.5674.3925 1.024-.2645.1621-.4266.0384-.6698.0725.0738-.37.1664-.7359.2773-1.0965zm-5.2011-1.9798c.1792.4566.2091.8534-.1536 1.1563-.4949-.1621-.2005-.6485-.3882-1.0197.1912.0229.3842-.0258.5418-.1366zm-3.4133 2.2742c-.0594.1345-.1634.2445-.2944.3114 0-.3669.5248-.576.7637-.8533.3371.0939.064.3541.384.7168-.3029.0512-.5162-.2432-.8362-.1749zm.7765-7.1723c-.0601.2154-.172.4127-.3259.5749-.154.1621-.3453.2841-.5573.3552.2134-.7082.1622-1.2245-.2858-1.7066.1578-.0854.3157-.1707.4778-.2518.367.5419.192.9088.7083 1.0283zm-1.4464-3.0507c.2816.175.495.5718.8534.4608.1877.3584-.0939.5718.0256.9088-.115-.1924-.2773-.3522-.4715-.4642-.1941-.1121-.4137-.1725-.6379-.1758.0427-.2517-.1962-.5888.2304-.7296zm-4.5013 6.5451c.1707.2005.4267.1621.5589.4693-.4864.2304.1366.1622-.0512.4864-.4864-.0384-.9002-.3285-1.4549-.145.0171-.5078.4224-.3798.9472-.8107zm-11.3877 2.56c-.1622-.3456-.4992-.1195-.7339-.2219-.1963-.4949.4907-.721.8192-1.0538.0829.0858.1468.188.1878.3.0409.112.0579.2314.0499.3504-.0081.119-.041.235-.0966.3405-.0557.1055-.1328.1982-.2264.272zm-.256-2.7819c-.2048.128-.3328 0-.5419.1366-.0764-.091-.1335-.1965-.168-.3102-.0345-.1136-.0455-.2331-.0325-.3512-.2262.064-.175.2134-.111.367-.6229.2218-.1365-.6272-.4266-.5334.2304-.5674 1.3696.1195 1.28.6784zm-2.6923 1.28c.1792-.401.6613 0 .7723-.5674.1024.5418.1408.6528.5589.4736.2517.3413-.0512.5162-.4267.6741-.2901-.5205-.4906-.1749-1.0965-.0299-.1237-.2005.6229-.6101.192-.5589zm-9.1008 13.1456c.3456-.256.4651.2219.8533-.145 0 .4992-.6101.593-1.0154.6954-.1152-.2304.3413-.2944.1621-.5504zm-.7765-1.7365c.2858.3584.5674.2219.5674.7723-.3611.304-.8091.4862-1.28.5205l-.192-.3584c.6827-.2005.4096-.6827.9046-.9344zm-1.0838 2.56c.1139.0828.2076.1903.2741.3144.0665.1242.1041.2617.1099.4024-.1555.0863-.3276.1386-.5049.1533s-.3557-.0085-.5233-.068c-.0256-.3242.2048-.5845.6442-.785zm-1.7365-3.84c.2176.6485.5931.3371.9941 1.0069-.2218.0982-.1706.2774-.4266.3755-.2134-.4907-1.1222-.8704-.5675-1.3611zm-.7339 2.0821c-.4821-.1578-.2816.3371-.6528.5035-.4266-.3072-.7765-.4267-.8533-1.0667.5333.047 1.152-.1066 1.5061.5846zm-2.3978-1.3098c.512-.1323.3413.4266.5674.7722-.3456.2603-.4906-.1493-.7936-.0384-.256-.3456.5718-.3584.2262-.7338zm-5.3419 8.6912c.5291-.047.2475.8533.9216.5802.0512.4267.3371.9686-.2688 1.2203-.259-.3867-.4361-.8223-.5205-1.28-.256.1877-.367.4992-.7126.384.0228-.1463-.0027-.2961-.0725-.4267.2901-.064.7936-.0469.6528-.4778zm-3.2256-7.1979-.192-.3584c.2347 0 .4267.1621.5589.4693-.0418.118-.1265.2158-.2371.2743s-.2392.0733-.3602.0415c-.1963-.303-.0341-.495.2304-.4267zm-.1877 22.3701c-.5632.1408-.6742.6827-1.0752.5718.1322-.5504-.2475-.6614-.3328-1.2032.4864.1706 1.0581.0426 1.408.6442zm-.64 10.0182c-.4822.2048-.8534.0213-.8534-.4651.3542-.064.9686.0768.8534.4779zm-.1536-21.5766c.1536.5846-.8064.8235-.4267 1.4678-.5163.1109-.1835.4778-.5931.6229-.1066-.2005-.2133-.3968-.3157-.5973.9131-.3926-.8875-.7424-.0341-1.2118-.5078 0-.1878-.3029-.384-.7168.6912-.2346 1.0709.6144 1.7536.448zm-1.088 4.591c-.0913.0756-.197.132-.3106.1657-.1137.0337-.233.0441-.3508.0305-.1322-.5461-.32-.7893-.2176-1.28.5803.1451.559.4352.879 1.0838zm-3.9936-10.927c.4266-.209.6912.1408.9258.5846-.5632.4266-.7466-.4011-1.3312.0938 0-.145.0299-.2901-.128-.2389.0427-.4693.6443.1749.5334-.4395zm.0426 57.8816c-.3456.1494-.4266-.6485-.7978-.3413l-.192-.3584.5973-.32c.5291.32.0939.5291.3925 1.0197zm-.8533-48.2133c.1237.2389.2517.4779.3797.7168-.32.2859-.4053-.2048-.7253.0811-.1749-.3542-.0811-.6272.3285-.8064zm-2.1675.5419c.2763-.0874.5637-.1348.8534-.1408.4266.5589-.6187.6784-.2731 1.2202-.32.2816-.4608-.0213-.7808.2603-.0043-.4651.3669-.8235.1835-1.3483zm.2219 48.7168c-.2475-.064-.3968-.4566-.5675-.7723l.7168-.384c.3883.5248.2774.9003-.1493 1.1563zm.6741-44.7488c-.2176-.3328.0726-.5078-.145-.8534.1834-.0426.3029.1067.4864.047.3242.2773-.3371.7466.081.7253.0982.3925-.3072-.0725-.4437.0811zm1.2032 44.8213c-.0603.1389-.0675.2952-.0203.439.0472.144.1455.2656.2763.3418-.3712 0-.6528-.2688-.9813-.3968-.1024-.2859.5547-.4352.704-.384zm.3243 5.2055c-.3584-.098-.4267-1.1223-.7424-.5292-.2261-.4267 1.3141-.879 1.3312-.0939-.3371.1707-.7595.3072-.6101.6361zm.6997-.99c-.5162-.1707.2262-.5206-.209-.9643.2304 0 .4736-.0256.6144.2859-.32.1706-.0768.5162-.4267.6784zm1.1094.6357c-.2688 0-.4267-.3328-.7339-.2219.0272-.1463.0015-.2975-.0725-.4266.2218.0384.5034-.1195.7253-.0811.2645.3243-.2261.4096.0597.7296zm.0384-43.6395c-.4267.2475-.896-.2517-.8064-.6442.2944.1365.6997-.0939 1.0282-.0896-.1621.2261-.0512.5248-.2432.7338zm1.4549 45.9008c-.4137-.055-.8219-.145-1.2203-.269 0-.23 0-.473.2859-.614.0419.065.0987.119.1656.157.0669.039.1421.061.2192.065.0771.003.1541-.011.2244-.043.0704-.032.1321-.08.1801-.141.3158.363.1366.576.1451.845zm.896-62.9973c.0341.4267.0299.8789-.4523 1.1648-.0554-.1493-.1408-.2005-.2474-.1749-.0196-.111-.017-.2248.0076-.3348.0247-.11.0709-.214.1359-.306.0651-.092.1477-.1703.2432-.2302.0954-.0599.2018-.1003.313-.1189zm-.6869 66.2653c.3626-.098.5632.342.9728.094.2944-.192-.2731-.115-.256-.478.3004-.055.6083-.055.9088 0-.1152.098-1.5659 1.622-1.6256.384zm2.4448-1.459c-.3883.175-.576-.299-1.0283.09.0969-.273.2109-.54.3413-.798-.209-.401-.6058-.201-.8021-.644.7168-.611.8107.853 1.5232.26.0512.149.1365.2.2432.175.2261.401-.5163.512-.2773.917zm.7722-.567c-.2374-.303-.5263-.562-.8533-.764.2859-.01.5721.011.8533.064.111.081.2262.158.3414.235-.1792.136-.4182.251-.3414.465zm.5462-70.0164c.3925.1152.4266.6315.3242.9003-.2901-.0555-.9258-.6613-.3242-.9003zm1.1306 73.7284c-.2348-.166-.4447-.364-.6229-.589.1493-.056.2005-.141.1749-.248.4566.308.5675.035 1.0283-.085-.1024.346.1877.179.32.597-.5077.116-.448-.089-.9003.325zm.9728.098c.4267.068 1.0326-.546 1.3867-.282.016-.142.016-.285 0-.426.1067.136.2091.273.32.396-.0473.028-.0973.051-.1493.069.4266.303.0938.426-.0384.789-.384.055-.7552.064-1.1478.154-.0077-.137-.0448-.27-.1089-.391s-.1536-.226-.2623-.309zm1.5403.853c.1702.041.3203.141.4235.283.1031.141.1527.315.1397.489.0097-.202.0646-.399.1606-.577s.2306-.332.3941-.451l.1194.085c-.0835.138-.1332.294-.1451.455-.0118.161.0145.323.0769.471-.7552.397-.623.794-1.4891.952-.9259-.704-.4992-1.267.32-1.694zm2.3765 5.026c-.7466.674-1.4933.034-1.7066-.618.2176-.231.7253.179.4949.349.1579.256.2176-.315.5973-.32-.0258-.114-.0814-.219-.1611-.304-.0797-.086-.1806-.148-.2924-.182-.1119-.034-.2307-.038-.3444-.011s-.2182.084-.3029.165c-.0755-.092-.1321-.197-.1666-.311-.0344-.113-.0459-.233-.0339-.351.2005.145.7509.427.3627-.192.3157-.286.3626.333.721-.081.128.239-.2432.329 0 .606s.2176-.316.5974-.32l.4266.853c-.0627.034-.1179.079-.162.135-.0442.055-.0763.119-.0943.188-.0181.069-.0217.14-.0106.21s.0366.137.0749.197zm.8918-.627c-.031-.084-.0914-.153-.1699-.196-.0785-.042-.1698-.054-.2568-.034.0276-.147.0019-.298-.0725-.427.192-.137.4266.038.3584-.192.3114-.009.6229.798.1408.862zm.7509.828c.0241-.192-.0246-.385-.1365-.542.3882-.184.2304-.533.7082-.687.3755.243-.0554.427.4267.853-.5077.308-.4992.461-.9984.389zm.4267.533c.3413-.021.7637-.307 1.0837-.273.2816.286 0 .401.2005.661-.3827.158-.7275.395-1.0112.696-.0938-.444-.3456-.563-.2645-1.071zm1.7066 1.707c-.1664 0-.273-.209-.4864-.047-.1834-.222-.0896-.359-.1365-.542.2859-.175.4693 0 .7253-.081-.0469.243-.209.427-.1152.687zm-.2048-5.265c-.4266-.154-.7893-.747-.9941-1.25.7053-.038 1.4032-.163 2.0779-.372-.256.602-1.5488 1.161-1.0966 1.639zm1.28 3.298c.0272-.146.0015-.298-.0725-.427.3328-.209.6443-.362.7893.039-.2517.209-.3584.52-.7082.405zm1.1307-.76c-.1342-.06-.2447-.163-.3142-.293-.0695-.129-.094-.278-.0698-.423.3584-.145.4565-.128.8533.157.0043.252-.1536.436-.4608.576zm.2176-1.036c-.4011-.427.0811-.628-.4565-1.14-.2134.137.1408.427 0 .606-.3542.064-.7254.188-.9174-.277.687-.644.8534-.427 1.6811-.589.0512.828.6485.35.9429 1.186-.5333.529-.7594.03-1.2416.231zm1.7365 1.531c-.3285.308-.4266-.179-.6698-.102-.0854-.226.0597-.384.3498-.495.1792.307.431.265.3286.614zm3.5712 4.386c-.145-.192 0-.302.0555-.183.1451-.124-.0597-.35-.1323-.542.0617-.038.1307-.062.2024-.071.0718-.009.1446-.003.2137.019.0691.021.1328.057.1869.105.054.048.0972.107.1266.173-.1877.231-.2645.645-.6442.517zm1.8091-4.957c-.4267.145-.0768.512-.5931.623-.5589-.184-.5418-.747-.6997-1.315.2595.064.5316.055.7862-.026.2545-.082.4816-.232.6559-.434.1366.213.2902.354.495.349.1493.312-.2731.448-.5888.623.2176.15.512.064.8533-.145.3413.721-.6699.632-.9003.342zm37.7984 1.19c-.3541.192-.6997-.337-.6229-.589l.3584-.192c.0723.03.1374.075.1909.132s.0942.124.1193.198c.025.074.0339.153.0261.231-.0079.077-.0324.153-.0718.22zm3.1701-1.54c-.0981-.529-.128-1.041-.2218-1.57.7296-.154.7466 1.199.2218 1.565zm.4566 3.443c-1.2246.154-.128-.589-.4566-1.139.2262-.184.3627-.09.5419-.137.3797.542-.3243.764-.0853 1.272zm1.0026 1.306c-.0682-.256.0982-.427-.0768-.726.3883-.081.2176-.333.5334-.426 0 .268-.1707.482.145.853zm.7424-4.079c-.0117-.058-.0387-.112-.0783-.155-.0395-.044-.09-.076-.1463-.094-.0563-.017-.1162-.019-.1735-.006-.0573.014-.1099.043-.1523.084-.1322-.205 0-.329-.1365-.542.358-.109.7418-.097 1.0923.034.2346.333-.256.452-.4054.696zm2.1718-4.847c-.1707-.487-.2347-.939.2688-1.221.0341.44.0981.892-.2688 1.216zm1.1477 4.437c-.3499-.478.7168-1.365.96-.512-.5632.239-.5077.512-.96.512zm.6443-10.005-.256-.478c.5504-.329 1.0325-.427 1.425-1.071-.1152.729.3072.691.6998 1.314-.5376.994-1.1222-.375-1.8688.235zm2.8757 1.071c-.4267.081-.8533.14-1.28.217-.0181-.391.0324-.782.1493-1.156.4907-.427.6614.239 1.0923.034-.0128.118-.0016.238.0329.351.0345.114.0915.219.1676.31-.2048-.055-.2901.026-.1621.244zm2.6712-8.7983c-.5208.1749-1.0072.8533-1.4893.9472-.384-.7381.9386-1.8389 1.4893-.9472zm-1.0413 1.7835c.0512-.1494-.1024-.3627.0469-.4822.3413-.1322.5717.0982.7974.3414-.3793.3669-.4987-.1238-.8443.1408zm.9853 11.9168-.3155-.597c.5415.153.2645-.508.8915-.632.406.593-.269.854-.576 1.229zm2.735-2.074c-.328.201.154.649-.345.798-.128-.209 0-.333-.133-.542-.094.269.022.606-.529.739-.103-.056-.194-.132-.267-.224-.074-.091-.128-.197-.159-.31.486-.149.401-.478.891-.627-.247-.294-.567-.341-.806-.644-.201.17-.034.456-.469.554-.389-.106-.218-.49-.265-.78.118.012.237.002.35-.032.114-.034.22-.09.311-.165.176.088.311.241.376.427.58-.282.217-.96.883-.934.026.341-.405.546-.277.917.64-.192 1.152.081 1.233.875-.363.285-.529-.047-.794-.052zm.551-22.2588c-.393-.3115-.598-1.007-.094-1.3312.086.2768.134.5637.145.8533.401-.2645.115-.4864.653-.5035-.278-.512-.832-.1194-1.11-.6357.721.2133 1.046-.0853 1.809-.3498.235.4266-.426.7167.261.7808-.201.5333-.901.4266-.939 1.1136-.056-.7339-.307-.1494-.725.0725zm1.113 18.7738c-.426 0-.397-.713-.328-.901.031-.012.065-.012.096-.001.032.012.058.035.073.064.016.029.021.064.013.096s-.027.061-.054.08c.155.057.323.073.486.047.098.248-.363.337-.286.602zm1.323-.402c-.427-.221-1.075-.392-1.173-.755-.035-.614 2.666-.648 1.173.743zm.2-5.943c-.175-.5547.615-.815.145-1.4592.397.1109.896-.0939 1.106.6357-.495.1246-.935.4097-1.251.8107zm.645-5.4144c-.222-.4011 0-.6656.094-.9728.345-.1451.512.2986.797.3456-.064.2773-.524.7168-.891.6144zm.853-1.839c-.055-.3541-.183-.7253-.678-.4266-.022-.6699 1.22-.1536 1.523.2602-.235-.0768-.598.2347-.841.1536zm.102-5.2778c.145-.5675.922-.4267 1.037.2176-.499.4266-.661-.2475-1.032-.2304zm1.067 10.3381c.559-.1323.815-.256 1.011-.6955.098.2219.282.175.376.4267-.457.1622-.069.5803-.525.7424.111.512.546-.0512.674.4053-.61.5846-.776-.2944-1.331.0982.119-.2944-.316-.7254-.205-.9899zm.358 2.1333c-.32-.4266.581-.4906.094-.9728.215-.0101.43.0249.631.1028.2.0779.382.1969.534.3495-.089.6059-.832.6059-1.254.4864zm1.566-7.1338c-.426.1578-.623-.5931-1.156-.1536.094-.4267.482-.7851.209-1.3355.14-.0076.277-.046.401-.1123.124-.0664.232-.1591.316-.2717.166.5461.043 1.3312.755 1.1307.141.5162-.589.1792-.52.7082zm.329.9002c.068-.529.665-.0298 1.02-.3925.401.6912-.521.7552-.764.8533-.039-.1749.264-.7978-.252-.4949zm2.231 4.1814c-.264-.239-1.045-.4864-1.156-.1494-.183.064-.23-.337-.427-.2304.235-.576 1.097.3371 1.438-.465.218.2901.563.128.687.7082-.405.0043-.657-.6613-.537.1024zm.312-13.2267c.055-.3157 0-.6699.461-.8533.068.2261.217.1749.371.1109-.024.201-.122.3858-.275.5177-.153.132-.351.2016-.553.1948zm.03-3.392c-.158-.4864.034-.9259.584-.9259-.106.5376.329.7808.333 1.2032-.431-.401-.414-.5418-.913-.3072zm1.587.3797c.14.3022.211.6314.209.9643-.091.0764-.197.1335-.31.168-.114.0345-.233.0455-.351.0325-.384-.5845.256-.8234.439-1.1946zm-.371 8.7979c-.039-.512-.124-1.0411.145-1.4592.464.2117.884.51 1.237.8789-.516.3584-.892.2731-1.378.5504zm1.706-4.8939c-.196-.3541-.635-.3925-.998-1.0026.55-.1877 1.809.4053.986.9728zm.606-2.321c-.298-.5035-.085-.64-.401-1.3184.568.064.282-.5675.853-.448.265-.4267-.294-.6656-.209-.9643.534-.2987.141.3883.504.6528.465-.2261.128-.6955.213-1.0368.751 0 .563 1.0795-.085 1.28.2.2475.7.0384.559.4693-.61-.0384-.73.367-1.323.4011.098.2219.277.1707.376.4267-.576.0213-.086.3882-.5.5077zm1.464.448c-.244-.6102-.039-1.0795.627-1.4123.213.0683.363.3499.503.6528-.23.2645-.657.8277-1.135.7296zm1.553-14.3446c.028-.1909-.02-.3853-.133-.5418-.738.209-.452.7296-1.19.9386-.073-.3142-.219-.6067-.427-.8533.525-.2091.854-.4693.581-.9259.091-.075.197-.1309.311-.1646.113-.0337.232-.0445.35-.0316.064.384-.533 0-.533.4266.478.3755 1.356-.8064 1.395.0256.277.1494.478-.4949.729.2219-1.049-.0213-.285.4224-1.096.8747z" fill="#699d41" fill-rule="evenodd"/><path d="m98.2229 90.5599-16.0128.4267-11.0208-.4267-11.729.4267h-16.9088l-8.5334-.4267c-1.2687-.0089-2.4826-.5181-3.3781-1.4168s-1.4003-2.1145-1.4048-3.3832v-5.0133l-.4267-7.3429.4267-11.119-.4267-6.3573.4267-8.3371v-6.3744c.0045-1.2716.5117-2.4899 1.4109-3.3891s2.1174-1.4064 3.3891-1.4109l7.7269-.4266 8.1664.4266 9.7067-.4266 4.6933.4266 13.5254-.4266 5.0517.4266h15.3088c1.2735.0011 2.4946.507 3.3956 1.4066.902.8997 1.41 2.1199 1.413 3.3934l.478 5.3931-.478 9.0453v2.6795l.478 6.0928-.478 9.5659v11.7674c-.003 1.272-.51 2.491-1.41 3.3904-.899.8995-2.1181 1.4063-3.3901 1.4096z" fill="#fff"/><path d="m64.5333 84.6506-6.5835.2219-4.5354-.2219-4.8214.2219h-6.9546l-3.503-.2219c-1.088 0-1.9754-1.1136-1.9754-2.4704v-2.5813l-.1792-3.776.1792-5.7216-.1792-3.2726.1792-4.2666v-3.2982c0-1.361.8874-2.4704 1.9754-2.4704l3.1744-.2218 3.3622.2218 3.9936-.2218 1.9328.2218 5.5466-.209 2.0779.209h6.2933c1.088 0 1.9755 1.1094 1.9755 2.4704l.1963 2.7734-.1963 4.6549v1.3781l.1963 3.1403-.1963 4.9195v6.0501c.0171 1.3568-.8704 2.4704-1.9584 2.4704z" fill="#699d41"/><path d="m102.878 98.9568c-.522-.0003-1.037-.1255-1.501-.3653-.464-.2397-.863-.587-1.166-1.0128l-2.4446-3.4518-1.2373-1.5872-.2347.2304-1.7066 2.159c-.3813.4837-.892.8492-1.4729 1.0539s-1.2079.2402-1.8082.1023c-.6038-.1356-1.1573-.4384-1.5972-.8738-.4399-.4353-.7484-.9856-.8903-1.588l-1.1861-5.0432-1.28-4.5526c0-.0768-.0384-.1536-.0555-.2346l-.9216-4.783-.8533-2.56c-.0563-.1696-.0977-.3437-.1237-.5205l-.4267-3.0379-.6741-2.8714c-.1446-.612-.1096-1.2526.1008-1.8452.2104-.5925.5872-1.1118 1.0853-1.4955.4982-.3837 1.0964-.6156 1.723-.6679.6266-.0522 1.255.0774 1.8098.3734l4.9109 2.56c.1011.0546.1994.1145.2944.1792l4.0235 2.7648.064.0426 4.9451 3.5968 3.132 1.6982c.138.0753.271.1608.396.256l2.987 2.2954c.467.3594.827.8382 1.044 1.3858.217.5475.282 1.1435.188 1.7248-.094.5814-.343 1.1266-.722 1.5779-.378.4513-.871.7921-1.427.9862l-2.513.8789-.38.1792 1.361 1.7067c.068.0853.128.1749.188.2645l2.095 3.3451c.443.7078.599 1.5581.437 2.3773-.163.8191-.632 1.5453-1.312 2.0302l-2.987 2.1034c-.543.3923-1.194.6083-1.864.6187zm-8.3884-6.6731v.0214c-.0004-.0071-.0004-.0143 0-.0214zm-2.496-9.7024 1.28 4.4971c0 .0384 0 .0811.0299.1195l.0683.2986.2346-.2304.6358-1.0538c.2588-.4295.6242-.7849 1.0608-1.0316.4365-.2466.9294-.3763 1.4309-.3764.221.0004.4413.0248.6571.0725.0213-.2763.0832-.548.1834-.8064.1708-.4456.4485-.8425.8086-1.1557.36-.3132.7915-.5331 1.2565-.6406l1.4125-.3242.426-.2006-2.1542-1.1562c-.1167-.0625-.2293-.1324-.3371-.2091l-5.0773-3.6907-3.9126-2.6794.1195.8533.8533 2.4875c.0432.1254.0774.2537.1024.384zm1.8262 4.4587-.0384.0384zm7.4832-5.1541h-.025zm-16.0208-10.351h.0298z" fill="#699d41"/><path d="m105.621 82.1461-2.594-1.9883-2.876-1.5402-4.4283-3.2171-3.4902-2.3979-4.2666-2.2442c-.0536-.029-.1145-.0416-.1752-.0363-.0606.0053-.1184.0283-.1662.0661-.0469.0373-.0823.0872-.102.1439-.0196.0567-.0227.1178-.0089.1761l.6101 2.5984.3968 2.7435.8064 2.3765.8534 4.3136 1.1221 3.9979 1.0454 4.4373c.012.0577.0406.1107.0823.1524.0417.0416.0946.0702.1523.0823.0577.0135.1181.0102.174-.0095.056-.0196.1051-.0548.1417-.1014l1.583-1.984 1.5061-1.4976c.0204-.0168.0378-.037.0512-.0598l.6912-1.152.8192 1.3654 2.1078 2.7008 2.1334 3.0378c.029.0408.067.0741.112.0971.044.023.094.035.144.0352.065.0007.129-.0187.183-.0555l2.56-1.8218c.067-.0466.112-.1169.128-.1963s.001-.1619-.042-.2304l-1.818-2.9013-2.197-2.7648-1.0797-1.519 1.4547-.3328.06-.0213 1.933-.9045 2.299-.8022c.054-.0191.101-.0522.137-.0957s.059-.0959.068-.1517c.011-.0552.006-.1122-.013-.1649-.02-.0526-.054-.0989-.098-.1338z" fill="#fff"/><path d="m94.4213 50.8544-4.8768.32-9.2203-.32h-7.4368l-2.5984.1238-4.1387-.1238-11.7632.2347-9.553-.2347-3.3152.2774-3.9723-.2774c-.6379-.0011-1.2493-.255-1.7003-.706-.4511-.4511-.705-1.0625-.7061-1.7004v-3.7461c.0011-.6379.255-1.2493.7061-1.7003.451-.4511 1.0624-.705 1.7003-.7061l4.8725-.3029 3.2214.3029h4.4074l5.679-.3029 4.9792.3029 7.057-.1024 5.6491.1024 8.0299-.3029 5.44.3029h7.5392c1.3226 0 2.7008 1.1008 2.7008 2.4235l-.2944 3.729c-.0023.6375-.2565 1.2483-.7074 1.6991-.4508.4508-1.0615.7051-1.699.7073z" fill="#699d41"/></svg>