<svg fill="none" height="128" viewBox="0 0 128 128" width="128" xmlns="http://www.w3.org/2000/svg"><path clip-rule="evenodd" d="m123.191 66.7947c0-.3627-.328-.7851-.337-1.2032-.008-.4182.299-.9387.325-1.4038.115-2.0608.358-5.2992-1.28-6.6901.101-.1306.23-.2367.378-.3106.147-.0738.31-.1135.475-.1161-.23-1.9029-.371-3.7845-.943-5.7941-.427.0213.038.7936-.354.4949-.171-.576-.457-.6058-.205-.9642.324.1322.068.1578.256.4778.606-1.617-.482-3.7504-1.25-5.7856-.107-.1962-.367.111-.482-.0469.358-.2859.281-1.4507-.282-1.3867-.081.2774.691.7126-.094.9728.171-.9642-1.314-1.8474-.682-2.7093.717.2432.145 1.28.823 1.2501-.213-.8533-.554-1.6725-.661-2.1034-.508.1792.209.7338-.461.8533-.354-.3029-.67-.8533-.456-1.1392.388-.2475.729.5291.908-.0256-.815-2.6795-2.235-4.9067-3.464-7.0571-.764-1.3482-1.344-2.8629-2.168-4.0661-.627-.9088-1.732-1.6341-2.376-2.7221-.815-1.3824-2.091-2.5003-2.65-3.8102-.93.064-.938-1.2416-1.728-1.2245 0 .7851.854.704 1.131 1.5445-1.31 1.3611-1.327-1.7066-2.599-1.9882-.106-.4011.133-.6955.214-1.0368-1.412-1.8304-3.102-2.752-4.544-4.4843-.386-.0334-.7611-.1468-1.101-.3328-12.4074-10.31681-27.5669-14.28054-43.921-12.65494-.9942.23893-1.6726.42666-2.7094.6784-1.2544.32-2.8672.10666-3.9296.42666-.6784.192-1.233.82774-1.9114 1.01974-.5504.16213-1.28-.128-1.8176.0512-.4267.13226-.7467.576-1.1307.7552-1.7877.85333-3.6053.8192-5.4016 1.96693-1.3696.87467-2.9568 1.344-4.3648 2.17601-3.231 1.9819-6.2921 4.2282-9.152 6.7157-.2389.2006-.576.2347-.8533.4267-2.8246 2.2955-5.0304 5.4229-7.1168 7.9531-.8918 1.0752-2.0096 1.9029-2.6539 2.7989s-.9728 2.1333-1.6725 3.1957c-1.6598 2.5259-2.6027 5.0347-3.84004 7.4368-.42667.8534-.42667 1.5062-.78507 2.2614-.1536.32-.512.4778-.64426.8064-1.00694 2.4448-1.28 4.7829-1.92427 7.3258-.2944 1.1776-.75093 2.0182-.8832 3.2342-.25356 1.8134-.40739 3.6395-.4608 5.4698 0 2.1078-.42667 4.0704-.1408 6.063.09813.7082-.29014 1.5018-.2432 2.1333.02133.3328.3328.6869.38827 1.0197.09386.559-.18347 1.1819-.13227 1.7622.08533.9642.59733 2.0394.75093 3.1317.26454 1.9115.3456 3.9339.85334 5.3717.3584.9771.55466 1.3611.3584 2.1078 1.00693 1.7066 1.33973 3.8058 2.02666 5.5466 2.42351 6.0502 6.02031 11.3366 9.71951 16.4651 3.7674 3.593 7.3685 7.595 11.4858 9.988 2.9867 3.017 6.6432 3.84 9.8646 6.097 1.728.137 3.089 1.464 4.8298 1.566 1.7067 1.357 3.9979.9 5.7558 2.134.373-.097.7646-.098 1.1379-.001.3732.096.7158.286.9954.551 2.7691-.32 5.0304 1.024 7.8336.576 2.6411.986 5.9733-.367 8.7381.252 3.5158-.896 7.4624-.551 11.2171-2.001.3115-.12.6016-.5.8917-.632.6827-.299 1.5318-.23 2.2315-.427 1.1522-.297 2.2769-.693 3.3621-1.181 3.7718-1.818 7.855-3.636 11.2896-6.183 7.4924-5.546 13.3294-11.746 17.0114-18.7731 2.628-3.6238 4.497-7.7409 5.495-12.1046 1.647-2.769 1.122-6.1994 2.56-9.041-.23-.5035.128-.8278-.281-1.3824.738-.8534.392-1.8262.469-2.863.021-.512.316-.9429.311-1.4122zm-111.9056 1.553c-.0229.1913.0257.3843.1365.5419-.1514.0968-.3241.1555-.5031.1711-.1791.0156-.3593-.0123-.5252-.0815.0726-.4139.6998-.1621.8918-.6315zm-2.09071 7.8763c-.42667.2005-1.00693-.1536-.92587-.5845.448-.2646.68694.1664 1.09227.0341.20054.2731-.58027.2219-.1664.5504zm.42667-10.6667c-.1408.1238.05973.3499.13653.5419-.32.2859-.36693-.3371-.72533.0811-.37974-.7467.49067-1.2544.89173-.6315-.11093.0171-.17067-.0683-.29013-.0043zm1.47204 6.4342c.145-.1323-.1024-.2176-.2475-.1792-.0939-.1835.5973-.239.7808-.2603l.256.4779c-.8107.3541-1.2032.4565-1.8816-.0726.2048-.5504.6656.2518 1.0923.0342zm.8533 11.6736c-.3499-.5419-.3541-.512-.7552-1.1307l.3584-.192c-.5333-.2859-.7296-.9387-1.4293-1.2331-.12804-.5504.6613-.4992.9045-.3285.0896.9899 1.4507 1.664.9216 2.8843zm.9685 4.3989c-.2432-.4267-.576-.8533.0939-.9728.1064.146.1549.3264.136.5061-.019.1797-.1039.346-.2384.4667zm105.3268-47.7867c.175.4267-.631.704-.853.4267-.056-.2944.682-.5035.845-.4437zm-1.378-1.7066c.176.0879.311.2409.375.4266-.056.1027-.132.1932-.224.2664-.091.0733-.196.1277-.309.1603-.051-.0666-.088-.1431-.109-.2248-.02-.0816-.023-.1665-.009-.2495.014-.0829.045-.162.091-.2324s.106-.1305.176-.1765zm1.28 31.7226c-.222.1024-.175.2816-.427.3755.127.0583.232.1534.303.2729s.104.2578.095.3964c-.009.1387-.061.2713-.147.3803-.086.1091-.203.1894-.336.2304.077-.4267-.717-1.0837-.098-1.3312-.145-.4011-.457-.2475-.789-.0384.102-.5035.49-.9216.448-1.4677.251-.0683.426.0981.721-.0811 0 .2688-.231.4651-.589.6229.247.2603.567.32.806.6102zm.154 3.4518c-.107.3626-.64.4266-.956.512-.405-.6486.644-1.1307.943-.5419zm-4.63-9.8134c.265-.2048.38.0768.662-.2005.221.4651-.32.704-.517 1.0411-.23-.3456.06-.5376-.158-.8704zm.679 9.2843c.324 1.4464-.969.2432-1.494.9472l-.256-.4779c.15-.0512.201-.1408.18-.2474.691-.3926 1.058.3754 1.57-.2219zm-.312-.2944c.025-.1463 0-.2968-.072-.4267.405.1579.405-.7125.955-.512.167.5504-.379 1.1947-.896.9387zm.58-7.2149c.448-.384.662 0 .854.4608-.15.0554-.201.1408-.179.2474-.542.0768-.299-.5333-.675-.7082zm.768 6.0373c.175.3797.645.5248.508.9557.627.1408.589-.8277 1.199-.6357-.128 1.6128-2.871 1.0667-1.707-.3328zm.794-4.2667c.286.4267.282.751-.094.9728-.217-.4096-.426-.8064.094-.9813zm-.636-30.5408c-.102-.465-.853-1.0368-.776-1.7365.862.2347 1.237 1.5232.776 1.7365zm-2.56 13.6534c.478-.7723 1.344-1.7067 2.441-1.7622 0-.3072-.286-.4992.158-.8533.708-.2176.721.2133 1.109.6357-.64.6144-1.442 1.28-2.27 1.2118-.209.4693-.802.8234-.998 1.28.32.1194.298-.2134.653-.5035.371.2005.025.4693.486.0469l.32.5974c.269-.1195-.171-.4523-.201-.6614.427-.2389.854-.384 1.093.0299-.764.4693-.278 1.3184.059 2.1333-.149.2902-.622.4779-.832.751-.349-.3542-1.045-.4992-.755-1.1307-.426-.2517-.426.4608-.772.5632-.145-.4011-.482-.1749-.734-.2219-.431-.8874.879-1.472.256-2.1248zm-.588 9.5317c.529-.3627.686.5035.746.8533l-.597.3158c-.09-.4267-.405-.8875-.137-1.1776zm-5.547 21.8496c-.162 0-.269-.2091-.482-.0469.024-.1914-.025-.3848-.137-.5419.26-.2048.376.0768.662-.2005-.205-.0939-.35-.384-.615-.2859 0-.4267.585 0 .853-.1451.393.5334-.354.7424-.26 1.2118zm-.926-9.8133c-.26-.3456.222-.4651-.145-.8534.23 0 .512-.1493.614.2902.201-.2688.568-1.28 1.076-.576-.291.8661-.683 1.2074-1.524 1.1477zm-.179 13.7642c-.559 0-.572.32-.892.6315-.252-.3456.051-.5205.427-.6784-.226-.6272-.969.3669-1.016.6955-.26.2005-.375-.0811-.661.1962-.256 0 .52-.4992.162-.8533.64-.1749.303-.6443.947-.8149-.294-.2902-.461.2005-.606 0-.256-.3456.052-.5206.406-.6784-.427-.1792-.073-.6827-.384-.7168.341-.4566.853-.4651 1.442-.4651.158.1408.192.6955.427.5333.038.3115-.427.4736-.525.7424.106.4267.452.0555.559.4694.008.3498-.423.5632-.265.9472zm-1.796 2.9568c.294-.4266.652-.2389 1.024-.0853.149.5291-.862.7125-1.003.0939zm1.105.64c.277.5163-.141.8235-.453 1.1606.026-.4224-.149-.9088.474-1.152zm.529 1.5616c.396-.0341.332.623.448.8534-.572.1911-1.155.3479-1.745.4693-.141-.8448 1.181-.6229 1.318-1.3141zm-2.232-10.7904c-.426.1494-.768-.1024-1.28.2176-.158-.0554 1.105-1.2885 1.302-.209zm-2.47 13.1499c-.828.3413-1.9756.1877-1.5404-.8533.8534-.5718 1.4204-.2859 2.1334-.3627.205.7595-.986.4608-.593 1.216zm-4.2327.4267c-.3541.8917-1.7067.0426-1.28-.6955.5163-.0853.6869 1.0027 1.28.6955zm-61.2309 15.0483c.3626-.102.5077.512.9173.278.1536.384-.4267.853-.8533.75-.0598-.119-.1238-.238-.1878-.358.4779-.094.32-.358.1238-.67zm-6.2464-4.501c.5418-.068.0512-.448.4693-.559.0488.014.0943.037.1338.069.0395.031.0722.071.0961.115.024.045.0386.094.0431.144.0044.051-.0013.102-.017.15.0662-.035.1303-.073.192-.115.0597.098.1195.183.1835.277-.1425-.001-.285.007-.4267.021-.0555.32.0725.691-.4651.854-.2133-.355.192-.534-.209-.956zm75.136-68.3863c-.363.3158-.576.1366-.853.1451.277-.2773.396-.9301.763-.8533.188.273.017.4522.09.7082zm-.504 1.6512c-.349.2731-.618.2859-.853.1451-.119-.2731.167-.4267.469-.5589.111.2218.291.1749.384.4138zm-.379 1.5744c0 .3584-.755.5376-.901.3243.004-.2914.058-.58.158-.8533.384-.2646.414.6272.743.529zm-1.421-5.5466c-.115.0298-.09.1066-.056.1834-.217-.0725-.068-.8832.517-1.0453.401.2859.217.4693.507.9557-.405.2646-.605-.1706-.968-.0725zm7.505 29.0133c.141.1963.35.1621.606 0l.32.5973c-.252.3158-.363.5248-.772.5632-.333-.5717-.333-.6528-.704-1.3141.345-.1963.298-.5077.341-.7979.324-.1109.384.4992-.047.4864.004.2902.572.2134.256.4651zm-3.691 17.8176c.03.1067-.055.1835 0 .3029l-.239.1238c-.303-.1451-.687-1.4507.086-1.28-.005.3797-.538.8021.153.8533zm-.196-9.5744c.027-.1463.001-.2974-.072-.4267.61-.0597.622-.1152 1.258-.5162.29.721-.746.9984-1.199.9429zm-.951-4.5568c.055-.2347.106-.4736.162-.7083.077-.03.151-.0672.222-.1109.337.0896 0 .5248.546.1664.081.512-.517.4864-.943.6528zm-.491 5.0219-.32-.5974.597-.32c-.209.2731.286.7424-.29.9174zm-65.8859 35.6137c.4878-.172.9651-.373 1.4293-.601-.0682.204-.1749.401-.2389.605-.6059.06-.7381-.153-1.3227.401.0795-.12.1252-.26.1323-.405zm63.6079-13.9775c.166.32.516.0598.674.4267-.086.3157-.457.1067-.854.4267-.187-.0427-.273-.4267-.546-.1664-.217-.576.602-.2134.726-.687zm2.286-14.1226c.201.3084.333.656.389 1.0197-.068.0255-.14.0374-.212.0351-.072-.0022-.143-.0187-.209-.0484-.065-.0297-.125-.0721-.174-.1247s-.088-.1145-.114-.182c-.025-.0675-.037-.1394-.035-.2115.003-.0722.019-.1431.049-.2089s.072-.1251.125-.1744c.052-.0494.114-.088.181-.1135zm2.731-13.2864c-.226-.3456.137-.6699-.26-.7808-.487.1877.051.6826-.644.8064-.342-.5206-.709-.7467-.337-1.2032-.111-.256-.427.1237-.628.1877v-.0427c.039-.1664.052-.3285.077-.4949.641-.4109 1.216-.9157 1.707-1.4976.149.192.021.3029-.056.1835-.183.2133.295.977.568.7722.162-.1877-.073-.3157-.248-.1749 1.212-.6443-.559-1.7067.12-2.368.294-.2048.426.0853.614.2859.482-.2518.777-.5632.516-1.0454.175-.081.35-.1578.295-.3114.149-.047.132.0853.064.1194.469.0598 1.28-.3541.806.6486-.042.0409-.095.0698-.152.0834-.057.0137-.117.0117-.173-.0057-.057-.0175-.107-.0498-.147-.0935-.039-.0436-.066-.0972-.078-.1549-.265.1877 0 .5376-.405.6784.298.0811.426-.3499.733.2219-.337.2005-.819.3541-.896.6314.318.2752.523.6581.576 1.0752-.328.3115-.375-.3072-.669-.1024-1.336.9259.904 2.4619-1.383 2.5814zm1.826 16.0725c-.281.3029-.35 1.024-.883.9344-.175-.4565.44-.6656.883-.9344zm-.077-.7253c-.426.0853.18-.3243-.136-.5419.286-.2773.401 0 .661-.1963.44.6187-.58.4139-.525.7382zm1.451-11.3707c-.124.5547-.665.4267-.819 1.0539-.717-.32.205-1.4166.819-1.0539zm-.341 14.3147c.104.0547.195.1303.269.2221.073.0918.127.1977.157.3112-.29.1707-.567.3243-.785.2603.06-.2859.009-.6016.359-.7936zm1.459 2.4448c.133.1002.242.2287.32.3763.077.1476.121.3105.128.477-.238.1649-.531.2296-.816.1801s-.539-.2092-.707-.4446c.13-.1662.292-.3041.477-.4053.185-.1013.388-.1637.598-.1835zm.329-39.6502c-.231.2518-.854-.2944-.598.32-.11.0106-.222.0106-.333 0 .082-.3955.117-.7995.103-1.2032.38.0555.887-.3029 1.28-.2858l.192.3584c-.175.5077-.926.2133-.644.8106zm-.299-17.809c.712 0 1.31 1.0112.648 1.4976-.435-.3584-.921-1.2544-.648-1.4976zm-1.963-3.0976c.316.5034 2.061 1.7066 1.835 2.8586-.393.1536-1.127-.8021-.755-1.1306-.389-.256-1.711-1.2459-1.08-1.728zm-1.066-1.4294.448.8534c-.538-.2347-.777-.3712-1.28-.0896-.423-.6827.43-.7638.832-.7638zm-2.56 5.5467c.49.3925 1.241.0853 1.745-.4693-.427.768-1.28 1.1648-1.959 1.5061-.311-.4779.354-.64.192-1.0581zm-1.353-9.7195c.111.4267.397.239.503.6528-.499.3499-1.365-.4053-.524-.6741zm-1.523 8.6443c.085.6997.426.8064.879 1.0667-.346.3925-.657.8533-1.139.4565.051-.1849.106-.3684.166-.5504-.166-.2261-.427-.0683-.67-.1024-.205-.2603.081-.3755-.2-.6613.125-.1134.277-.1939.442-.2341s.337-.0389.5.0037zm-2.744-.5291c0 .7851-.853 1.28-1.1687 1.5446-.6571-.4523.5291-2.0736 1.1477-1.5659zm-1.0663-2.8458.384.721c-.5376.4566-.5589-.7936-1.1008-.337-.1024-.6102.3371-.0171.7168-.384zm-.2389 9.0581c.3669.7979.7296.6784 1.3612 1.1136-.9559.4011-1.246-.3797-1.8903-.3755-.0341-.3114.0683-.5973.5291-.7381zm-1.7707-13.9563c.32-.1664.6571-.4266.9003-.3242.4266.7296-.4566 1.0624-.8534 1.536-.1091-.4007-.1252-.821-.0469-1.2288zm-.0512 4.7915c.32.2603.2944.4949.3243.9003-.3243.3072-.5078.1365-.7254.081.1451-.3498-.0981-.7765.4011-.9984zm-11.5712-13.3419c.1707.6272-.9771.5163-1.1477.1494.3456.064.832-.3243 1.1477-.1494zm-.5589-.4736c-.64.4267-.5035.8022-1.3696.8875-.2987-.8491.8618-.9472 1.3696-.8875zm-5.7728 8.4736c.4565.2987.2261.5632.3882 1.0198-.2645.1621-.4266.0384-.6698.0725.0597-.192.145-.7765.2816-1.0923zm-5.2096-1.9925c.1834.4523.2133.8533-.1494 1.152-.4992-.1621-.2048-.6485-.3925-1.0197.1909.0271.3849-.0203.5419-.1323zm-3.4134 2.2699c-.0565.1364-.1613.2473-.2944.3114 0-.3669.5248-.576.768-.8533.3371.0896.064.3541.3798.7168-.2987.0512-.5078-.2389-.832-.1749zm.7808-7.1723c-.0612.2111-.1717.4047-.3222.5649-.1506.1602-.337.2825-.5439.3567.2133-.7083.1621-1.2288-.2859-1.7067l.4779-.256c.3541.559.1749.9174.6955 1.0411zm-1.4762-3.0507c.2773.1792.4906.5718.8533.4608.192.3584-.0939.5718.0256.9088-.1148-.1913-.2766-.3501-.47-.4614-.1934-.1112-.412-.1712-.6351-.1743.0683-.2517-.1578-.6016.2475-.7339zm-4.4715 6.5323c.1749.2005.4267.1621.5589.4693-.4864.2347.1366.1622-.0469.4864-.4907-.0384-.9045-.3242-1.4592-.1408.0171-.4949.4267-.3882.9472-.8149zm-11.3877 2.56c-.1622-.3456-.495-.1195-.7339-.2219-.192-.4906.4907-.7168.8235-1.0538.0847.0862.1502.1894.1921.3029.0418.1134.0591.2345.0506.3551s-.0425.2381-.0998.3446-.1365.1996-.2325.2731zm-.256-2.7819c-.2048.1323-.3286 0-.5419.1366-.0756-.0915-.1322-.1971-.1666-.3106s-.046-.2328-.0339-.3508c-.2262.064-.175.2134-.111.367-.6186.2261-.1365-.623-.4266-.5334.2304-.5717 1.3738.1323 1.28.6912zm-2.6923 1.28c.1835-.401.6613 0 .7723-.5674.1066.5418.1408.6485.5589.4693.2517.3456-.0512.5205-.4267.6784-.2901-.5248-.4906-.1792-1.0922-.0299-.1238-.1877.6186-.593.1877-.5418zm-9.0837 13.1627c.3456-.2603.465.2219.8533-.1451 0 .495-.6059.5931-1.0112.6955-.1323-.2347.3243-.2944.1579-.5504zm-.7723-1.7408c.2859.3627.5675.2219.5632.7765-.3612.3033-.8094.4841-1.28.5163l-.192-.3584c.6656-.1877.4011-.6827.8917-.9344zm-1.0837 2.56c.1136.0883.2054.2016.2683.3311.0629.1294.0952.2716.0943.4156-.1545.0869-.3257.1398-.5023.1553-.1766.0154-.3544-.007-.5217-.0657-.0426-.3542.2048-.6187.6443-.8192zm-1.7408-3.84c.2176.6443.593.3371.9984 1.0027-.2262.0981-.175.2816-.4267.3754-.2304-.4864-1.1435-.8661-.5888-1.3525zm-.7296 2.0779c-.4864-.1536-.2859.3413-.6571.5034-.4267-.3072-.7765-.4266-.8533-1.0666.5205.0554 1.1434-.1024 1.4933.5888zm-2.4022-1.327c.512-.1365.3456.4267.5675.7723-.3456.256-.4864-.1536-.7893-.0384-.2774-.3115.5504-.3371.2048-.7083zm-5.3589 8.7126c.5291-.047.2517.8533.9259.5845.0469.4267.337.9685-.2731 1.216-.2601-.3857-.436-.8218-.5163-1.28-.2602.1877-.3712.4992-.7168.384.0269-.1463.0012-.2974-.0725-.4267.2944-.064.7936-.0469.6528-.4778zm-3.2256-7.1851-.192-.3584c.2347 0 .4267.1621.5589.4693-.0419.1181-.1263.2164-.2367.2756-.1105.0591-.2391.075-.3606.0444-.1963-.32-.0341-.5077.2304-.4309zm-.1835 22.3616c-.5674.1408-.6784.6827-1.0752.576.1323-.5504-.2517-.6656-.337-1.2032.4864.1621 1.0581.0341 1.4122.6272zm-.64 10.0181c-.4864.2091-.8533.0214-.8533-.4608.3499-.0682.9515.0512.8533.4694zm-.1578-21.5722c.1578.5802-.8064.8234-.4267 1.4677-.5163.1067-.1835.4779-.5888.6187l-.32-.5974c.9131-.3925-.8832-.7424-.0341-1.2117-.5078 0-.1835-.3029-.3798-.7168.6912-.2347 1.0667.6101 1.7494.448zm-1.088 4.5738c-.091.0764-.1965.1336-.3102.168-.1136.0345-.2331.0456-.3512.0326-.1322-.5462-.32-.7936-.2176-1.28.5803.1536.5632.4394.879 1.088zm-3.9894-10.9226c.4267-.2134.6912.1365.9216.5802-.5632.4267-.7466-.401-1.3269.0982 0-.1494.0299-.2944-.128-.2432.0427-.4523.64.1834.5333-.4267zm.0384 57.8901c-.3456.1451-.401-.6528-.7978-.3456l-.192-.3584.5973-.3157c.5291.32.0939.5205.3925 1.0197zm-.8533-48.2133.384.7168c-.3243.2858-.4267-.2048-.7296.081-.0439-.0735-.0698-.1563-.0755-.2417s.0089-.1709.0426-.2496.0856-.1483.1514-.203c.0658-.0548.1436-.0932.2271-.1121zm-2.1845.5461c.2761-.0886.5634-.1375.8533-.1451.4267.5632-.6187.6827-.2688 1.2203-.32.2816-.4651 0-.7851.2645.0171-.4864.384-.8277.2006-1.3397zm.2176 48.7253c-.2475-.0682-.3968-.4565-.5675-.7722l.7168-.384c.4096.512.2816.8704-.1493 1.1434zm.6869-44.7616c-.2176-.3328.0768-.512-.1408-.8533.1792-.0427.2987.1109.4864.0469.3243.2774-.3371.751.0768.7254.1067.384-.2944-.0768-.4224.081zm1.2075 44.8c-.0619.1392-.0695.2964-.0214.4409.0482.1445.1486.2657.2816.3399-.3669 0-.6528-.2645-.977-.3968-.1067-.2773.5717-.4138.704-.3669zm.32 5.2054c-.3584-.0939-.4267-1.1179-.7382-.5248-.2304-.4523 1.3142-.8832 1.327-.0982-.3286.1878-.751.3286-.6016.64zm.6997-.9899c-.5163-.1707.2261-.5205-.2048-.9643.2304 0 .4736 0 .6144.2859-.3328.1792-.0768.5333-.4224.6955zm1.1093.6357c-.2688 0-.4266-.3328-.7338-.2218.0268-.1464.0011-.2975-.0726-.4267.2219.0384.5035-.1152.7254-.0768.273.3413-.2176.4437.0682.7424zm.0384-43.6394c-.4266.2517-.8917-.2518-.8021-.6443.2901.1408.6955-.0939 1.0283-.0896-.1579.2432-.0427.5461-.239.7509zm1.4635 45.9175c-.4134-.058-.8214-.15-1.2203-.273 0-.23 0-.4733.2902-.6141.043.063.1.1151.1667.1522s.141.0579.2172.0619c.0762.003.1522-.012.2218-.0428.0696-.0312.131-.0782.1793-.1372.3158.375.1408.589.1451.853zm.9131-62.9927c.0341.4266.0298.8533-.4523 1.1605-.0555-.1493-.1408-.1963-.2475-.1749-.0233-.1111-.0234-.2258-.0002-.337.0231-.1111.069-.2162.1347-.3088.0657-.0925.1498-.1705.2471-.229s.2056-.0962.3182-.1108zm-.704 66.2617c.3669-.099.5632.341.9728.098.2944-.197-.2731-.12-.256-.478.2988-.064.6068-.072.9088-.026-.1152.124-1.5531 1.63-1.6256.406zm2.4448-1.46c-.384.18-.576-.298-1.024.09.0932-.274.2073-.541.3413-.798-.2133-.397-.6059-.2-.8064-.644.7168-.606.8107.853 1.5232.26.0555.149.1408.201.2475.179.2261.384-.5206.508-.2816.913zm.7765-.563c-.2386-.303-.5272-.562-.8533-.768.2859-.01.572.012.8533.064.1067.086.2219.158.3371.239-.1792.132-.4182.248-.3371.465zm.5419-70.0201c.3925.1195.4266.6358.3285.9003-.2944-.0555-.9301-.6613-.3285-.9003zm1.1306 73.7321c-.2326-.166-.4408-.364-.6186-.589.145-.055.1962-.14.1749-.247.4523.303.5632.034 1.0283-.09-.1024.35.1834.18.3157.598-.5077.119-.448-.09-.9003.328zm.9728.094c.4267.073 1.0326-.546 1.3867-.282.0207-.141.0207-.285 0-.426.1067.141.2133.273.32.401l-.1493.068c.4266.299.0938.427-.0384.789-.384.052-.7552.06-1.1478.15-.0085-.137-.046-.269-.11-.39-.0641-.121-.1531-.226-.2612-.31zm1.5403.853c.1709.042.3216.143.4254.285s.1541.316.1421.492c.0082-.202.062-.4.1573-.579s.2296-.334.3931-.454l.1194.09c-.0835.138-.1332.294-.1451.455-.0118.161.0145.322.0769.471-.751.392-.623.793-1.4891.947-.9216-.7-.4949-1.263.32-1.694zm2.3765 5.031c-.7466.67-1.4933.034-1.7066-.623.2218-.231.7296.179.4949.35.1621.26.2219-.316.5973-.316-.0264-.114-.0822-.218-.1618-.303-.0795-.086-.1801-.148-.2915-.182-.1115-.035-.23-.039-.3436-.013s-.2184.082-.3039.161c-.075-.092-.131-.197-.1646-.311-.0337-.114-.0445-.233-.0316-.35.1962.149.7466.448.3584-.192.32-.286.3626.337.7253-.077.1237.239-.2475.324 0 .606.2475.281.2176-.316.6016-.32l.4267.853c-.064.032-.1205.077-.1658.132-.0454.055-.0787.119-.0976.188s-.0231.141-.0123.211c.0109.071.0364.139.0751.199zm.8918-.632c-.0317-.083-.0922-.152-.1706-.194-.0783-.042-.1692-.055-.2561-.036.0268-.146.0011-.298-.0725-.427.192-.132.4266.039.3584-.192.3114-.008.6314.785.1408.862zm.7509.828c.0229-.191-.0257-.384-.1365-.542.3882-.183.2304-.529.7082-.682.3798.243-.0554.426.4267.853-.5077.303-.4992.461-.9984.384zm.4267.533c.337-.021.7594-.307 1.0837-.268.2773.285 0 .396.1963.661-.3805.159-.7245.395-1.0112.691-.1024-.444-.3414-.546-.256-1.071zm1.681 1.707c-.1621 0-.2688-.209-.4864-.051-.1834-.222-.0853-.359-.1365-.538.2901-.179.4693 0 .7253-.081-.0213.243-.1834.427-.0896.691zm-.1877-5.265c-.4267-.154-.7936-.742-.9984-1.25.7056-.035 1.4038-.16 2.0779-.371-.2432.601-1.5531 1.16-1.0795 1.621zm1.28 3.298c.0224-.146-.003-.296-.0725-.427.3285-.204.6442-.362.7893.039-.2389.209-.3371.503-.6955.405zm1.152-.738c-.1342-.06-.2447-.163-.3142-.293s-.094-.279-.0698-.424c.3541-.149.4565-.128.8533.158-.0085.23-.1621.418-.4693.559zm.2133-1.037c-.3968-.426.0854-.631-.4565-1.139-.2091.137.1451.427 0 .606-.3541.06-.7253.183-.9173-.277.6912-.649.8533-.427 1.681-.594.0512.854.6528.35.943 1.187-.5291.512-.7894.017-1.2502.217zm1.7366 1.528c-.3243.311-.4267-.175-.6699-.103-.0811-.226.064-.384.3541-.495.1536.29.4182.252.3158.598zm3.5754 4.39c-.1493-.196-.0213-.307.0555-.183.1408-.124-.0597-.355-.1365-.542.0616-.038.1307-.063.2026-.072.0718-.01.1449-.004.2142.017.0694.021.1335.057.1882.104.0546.048.0985.107.1288.173-.2005.217-.273.627-.6528.503zm1.8091-4.958c-.4053.141-.0768.512-.5888.623-.5589-.183-.5419-.751-.704-1.314.2599.063.5322.054.7868-.029.2546-.082.4815-.233.6553-.436.1366.213.2944.358.495.35.1493.311-.2731.452-.5888.623.2218.149.5162.064.8533-.145.3285.704-.6827.614-.9088.328zm37.7899 1.165c-.3499.192-.6998-.337-.6187-.589l.3541-.192c.072.03.1367.075.1897.132.0531.058.0933.125.1179.199.0247.074.0332.153.0251.23-.0082.078-.0329.153-.0724.22zm3.1701-1.54c-.0939-.529-.1237-1.037-.2219-1.57.7254-.145.7424 1.207.2219 1.57zm.4565 3.443c-1.2202.154-.128-.585-.4522-1.139.2218-.184.3584-.086.5418-.137.3712.551-.3328.768-.0938 1.272zm1.007 1.306c-.0726-.252.0981-.427-.0811-.726.3925-.081.2219-.333.5333-.426 0 .268-.1706.482.1451.853zm.7381-4.079c-.0123-.058-.0398-.111-.0796-.154-.0397-.043-.0904-.075-.1465-.092-.0562-.017-.1159-.019-.173-.005-.057.014-.1093.043-.1513.084-.128-.209 0-.333-.1365-.542.3575-.11.7412-.099 1.0922.03.2347.342-.2602.461-.4096.679zm2.1717-4.847c-.1706-.487-.2304-.939.2731-1.221.0469.444.0896.896-.2773 1.221zm1.152 4.454c-.3541-.474.7168-1.361.9558-.512-.5632.226-.5078.482-.96.512zm.64-10.018-.256-.478c.5504-.324 1.0326-.427 1.4251-1.0666-.1109.7256.3115.6866.704 1.3146-.5461.989-1.1307-.38-1.8773.23zm2.8758 1.075c-.4267.081-.8534.141-1.28.213-.0146-.389.0373-.779.1536-1.152.4906-.426.6613.235 1.088.03-.0121.118-.0005.238.0339.351.0344.114.0911.219.1666.311-.2091-.056-.2901.025-.1664.247zm2.6709-8.802c-.5205.1749-1.0069.8533-1.4891.9515-.384-.7382.9387-1.8432 1.4891-.9515zm-1.0453 1.7877c.0512-.1493-.1024-.3669.0469-.4864.3413-.128.5717.0982.7979.3414-.3755.3669-.4992-.1152-.8448.145zm.9898 11.9123-.32-.597c.5419.154.2646-.508.8918-.632.405.594-.2816.858-.5718 1.229zm2.7308-2.073c-.324.204.153.648-.341.798-.133-.205 0-.329-.137-.542-.094.273.021.606-.525.742-.102-.056-.193-.133-.266-.224-.073-.092-.128-.197-.16-.309.486-.154.405-.478.891-.632-.243-.29-.563-.341-.806-.644-.201.171-.034.457-.469.559-.3844-.111-.218-.491-.265-.781.1181.015.238.004.352-.03.114-.035.219-.093.309-.17.088.043.166.102.231.176.064.073.113.158.145.25.584-.277.217-.955.883-.934.03.341-.405.546-.277.917.644-.188 1.152.086 1.237.879-.371.265-.538-.051-.802-.055zm.555-22.2595c-.393-.3115-.602-1.0027-.099-1.3312.088.2763.137.5635.145.8533.402-.2645.12-.4821.653-.4992-.277-.5163-.832-.1237-1.109-.64.721.2133 1.045-.0811 1.809-.3499.235.4267-.427.7168.265.7808-.205.5334-.905.4267-.943 1.1179-.056-.7339-.303-.1493-.73.0683zm1.109 18.7735c-.427 0-.397-.713-.329-.9.167-.052.248.174.128.238.156.057.323.073.487.047.098.252-.384.337-.286.602zm1.323-.401c-.427-.222-1.076-.393-1.174-.755-.034-.6106 2.667-.649 1.174.742zm.204-5.9437c-.179-.5547.61-.815.141-1.4592.401.1109.896-.0896 1.109.64-.496.1191-.937.4035-1.25.8064zm.64-5.4102c-.222-.401 0-.6656.098-.9728.342-.1493.508.2987.794.3414-.064.2816-.525.7168-.892.6186zm.854-1.8432c-.06-.3541-.188-.721-.679-.4266 0-.6656 1.216-.1536 1.523.2645-.234-.0768-.597.2347-.836.1493zm.098-5.2736c.149-.5674.921-.4266 1.037.2134-.491.4266-.657-.2432-1.007-.2262zm1.066 10.3339c.559-.1323.815-.256 1.012-.6912.098.2219.281.1707.375.4267-.456.1578-.068.576-.525.7381.111.5163.546-.0469.679.4267-.615.5845-.781-.2944-1.331.0938.119-.3072-.316-.7424-.201-1.024zm.359 2.1333c-.32-.4266.58-.4906.098-.9728.215-.0094.429.026.63.1039.2.0778.383.1965.535.3484-.098.6059-.832.6059-1.255.4907zm1.591-7.168c-.452.1622-.623-.5888-1.16-.1493.094-.4267.486-.7893.209-1.3397.14-.0077.277-.046.401-.1124.124-.0663.232-.1591.316-.2716.166.5504.042 1.3312.759 1.1306.124.5504-.61.2006-.525.7424zm.325.9003c.072-.5291.669-.0299 1.019-.3925.406.6954-.52.7552-.763.8533-.056-.1408.247-.7595-.269-.4608zm2.235 4.1813c-.268-.2346-1.049-.4864-1.156-.1493-.188.064-.235-.3328-.427-.2304.235-.5717 1.101.3371 1.443-.4608.213.2859.558.128.686.7083-.426.0554-.682-.6315-.546.1322zm.312-13.2266c.051-.32 0-.6742.461-.8534.064.2262.213.175.367.111-.015.2101-.111.4063-.268.5467-.157.1403-.363.2136-.573.2042zm.03-3.4134c-.162-.4864.03-.9258.58-.9258-.107.5376.328.785.337 1.2032-.452-.3542-.435-.4864-.93-.2518zm1.583.3798c.143.301.214.631.209.9642-.091.0764-.197.1336-.31.168-.114.0345-.234.0456-.352.0326-.396-.5248.235-.768.44-1.1392zm-.367 8.8021c-.043-.5163-.128-1.0411.14-1.4592.462.205.882.4944 1.238.8533-.534.4395-.909.3499-1.391.6315zm1.685-4.8939c-.196-.3584-.636-.3968-.998-1.0069.554-.1493 1.813.4821.985 1.0325zm.606-2.321c-.299-.5078-.085-.64-.401-1.3227.572.0683.281-.5632.853-.448.265-.4267-.29-.6656-.209-.9643.533-.2986.145.3883.504.6528.469-.2218.128-.6954.213-1.0325.751 0 .563 1.0752-.085 1.28.2.2517.699.0384.558.4693-.605-.0384-.729.367-1.322.4011.098.2219.281.1749.375.4267-.576.0725-.068.4565-.495.5632zm1.468.4266c-.248-.6058-.039-1.0794.627-1.408.213.0683.362.3499.503.6528-.234.3371-.657.896-1.143.7979zm1.553-14.3445c.023-.1913-.026-.3843-.137-.5419-.734.2091-.452.7296-1.186.943-.08-.3158-.234-.6082-.448-.8534.525-.209.879-.4693.58-.9258.091-.0764.197-.1336.31-.168.114-.0345.234-.0456.352-.0326.068.384-.529 0-.534.4267.478.3755 1.361-.8064 1.395.0213.278.1536.478-.4949.734.2262-1.036.0554-.256.4949-1.079.9472z" fill="#699d41" fill-rule="evenodd"/><g fill="#fff"><path d="m108.689 54.0885c-.929-5.256-2.795-10.3025-5.508-14.8992-1.233-2.0437-2.56-4.3989-4.0663-6.2165-3.328-3.9595-7.3174-6.6347-11.8016-9.2757-2.5344-1.4934-5.312-3.0507-8.1067-4.0363-4.6933-1.6427-9.7323-3.1104-14.9803-3.1104-5.4485 0-10.6666 1.536-15.5178 3.3024-1.7067.6272-3.4134.7808-5.0219 1.6043-3.7931 1.9157-7.3728 5.585-10.4491 8.4309-2.7434 2.5387-5.0773 4.7403-7.1125 7.8763-1.9413 2.961-3.6864 5.7386-4.8981 9.1221-1.7067 4.7829-1.967 10.3552-1.967 15.7184 0 3.0848-.2261 6.1056.367 9.0197.785 3.8955 1.664 7.4966 3.3792 10.9611 2.3978 4.8512 6.0458 9.3269 9.9328 13.0133 2.1973 2.0822 4.096 4.2667 6.673 5.8751 6.9888 4.382 15.7526 6.605 24.5931 6.605 4.5653 0 8.96-.265 13.1285-1.519 7.3003-2.206 13.8368-6.6133 19.0891-11.8912 1.0368-1.0368 2.3552-2.0778 3.2853-3.2128 2.7393-3.3365 4.6933-7.1211 6.4003-11.1488 1.152-2.7221 2.282-5.5211 2.893-8.4821.61-2.9611.695-6.0843.695-9.2203-.069-2.8639-.407-5.7151-1.007-8.5163zm-3.938 16.8321c-.615 2.6405-1.491 5.2132-2.616 7.6799-1.544 3.6438-3.2977 7.0699-5.7766 10.0907-.8533 1.0283-2.0395 1.9669-2.9867 2.9099-4.753 4.7701-10.6666 8.7599-17.2757 10.7559-3.7675 1.14-7.7525 1.378-11.8827 1.378-8 0-15.9274-2.013-22.2549-5.9729-2.3296-1.4634-4.0491-3.4346-6.0373-5.3162-3.52-3.3365-6.8267-7.3899-8.9899-11.776-1.5531-3.1403-2.3467-6.4-3.0592-9.92-.5333-2.6411-.3328-5.3718-.3328-8.1664 0-4.8512.2304-9.8944 1.7792-14.2208 1.0965-3.0635 2.6795-5.5766 4.4331-8.256 1.8602-2.8416 3.9594-4.8342 6.4426-7.1296 2.7947-2.5814 6.0459-5.9008 9.4592-7.6374 1.4635-.7424 2.9867-.8832 4.544-1.4506 4.3819-1.5958 9.1136-2.9867 14.0416-2.9867 4.7488 0 9.3142 1.3312 13.5595 2.816 2.5633.9788 5.0266 2.2019 7.3557 3.6523 4.0534 2.3893 7.68 4.8085 10.6667 8.3968 1.3824 1.6426 2.56 3.7717 3.6779 5.6234 2.4543 4.1602 4.1443 8.7266 4.9873 13.4827 1.114 5.2843 1.204 10.7331.265 16.0512z"/><path d="m55.8336 87.3472c-.3166-.0135-.6268-.0934-.9105-.2346-.2837-.1411-.5346-.3403-.7364-.5846l-4.1856-4.7915-2.0352-2.7434-2.6198-2.8075-2.7562-3.6523c-.3728-.4646-.5479-1.0571-.4877-1.6497.0602-.5927.3509-1.1379.8095-1.518.4586-.3802 1.0482-.5649 1.6417-.5143.5935.0507 1.1433.3326 1.5309.785l2.9354 2.6368 3.887 5.2949 2.8458 3.7419 2.5003-3.6864 2.6325-3.6011 3.3579-5.2181 2.2144-3.5029 4.7957-6.7798 1.8219-3.0122 2.2443-2.9867 3.2981-4.8598 2.4064-4.0661 2.4917-3.1488c.3395-.4984.8631-.8416 1.4556-.9541.5925-.1124 1.2054.0152 1.7039.3546.4985.3395.8417.8631.9541 1.4556s-.0152 1.2055-.3546 1.7039l-2.1035 3.072-1.5445 2.2614-2.3595 3.217-2.6837 4.207-4.6038 7.808-4.3136 5.3418-1.5786 2.3211-3.136 4.3947-3.8955 6.7797-3.2341 3.9509c-.1984.2908-.4616.5316-.7689.7033-.3072.1718-.6502.2699-1.0018.2866z"/></g></svg>