<svg fill="none" height="65" viewBox="0 0 158 65" width="158" xmlns="http://www.w3.org/2000/svg"><g fill="#b32274"><path d="m12.6162 48.1416c0-.1387-.0463-.2775-.0463-.4162-.0463-.185-.0463-.37-.0926-.6012-.0463-.2313-.139-.555-.1853-.7862-.0463-.2775-.0926-.555-.1389-.8325-.0464-.3237-.139-.6475-.1853-.9712s-.139-.6937-.1853-1.0175c-.0926-.3699-.0926-.6474-.1389-1.0174-.0927-.37-.2316-.7862-.278-1.1562-.0926-.37-.1389-.6475-.2315-1.0175-.0927-.3237-.139-.7399-.2316-1.0637-.1853-.8324-.4632-1.5261-.6485-2.3586-.1853-.7862-.32424-1.5262-.60215-2.2661-.18527-.6013-.32423-1.295-.5095-1.8962-.2316-.6012-.27791-1.3412-.27791-1.9887-.04632-.6937.04631-1.3412 0-2.0349-.04632-.4625-.18528-.9712-.18528-1.4337-.04632-.6012 0-1.1099-.09264-1.7111 0-.0463 0-.0925-.04632-.1388-.09263-.3699-.46318-1.0174-1.29692-1.7574-.18527.1388-.23159.2775-.46319.37-.23159.0925-.60214.2312-.88005.3237-.23159.0463-.50951 0-.78742.0463-.32423.0462-.69478.0925-1.01901.0925s-.55582 0-.83374-.0925c-.27791-.0463-.55582-.2775-.78741-.37-.2316.2312-.41687.4625-.55583.74-.18527.3237-.37055.6474-.46319 1.0174-.23159.555-.23159 1.0175-.27791 1.4799-.09263.6475-.13895 1.4337-.13895 1.4337s-.092641.3238-.046322 1.7112c0 .37-.046319.8325-.046319 1.2487 0 .5087.092641 1.0174.138961 1.5262.04631.5087 0 .9712.04631 1.4799.04632.555.09264 1.1562.13896 1.7112.04632.6474.18528 1.2024.23159 1.8499.04632.5087 0 1.1099.04632 1.6649.04632.6475.18528 1.3874.2316 2.0349.04631.6475 0 1.2487.04631 1.8962.04632.5549.18528 1.1562.2316 1.7111.04632.5088-.04632.9712 0 1.48.04632.7862.09264 1.1099.13895 1.8961 0 .1388.13896.9712.13896 1.1562.04632.6012-.04632 1.0175-.04632 1.6187 0 .4625.04632.9712 0 1.4799-.04632.5088-.04632 2.3587-.04632 2.7287 0 .6474.04632 1.1561.09264 1.8499.04632.5087 0 1.0174.04632 1.5261.04632.5088.18527 1.0637.27791 1.6187.09264.5087.04632 1.0637.23159 1.5724.13896.6013.46319 1.6187 1.25061 1.5262.64846-.0925.92637-.3237 1.20428-.9249.18528-.4163.2316-.8325.32424-1.295.09263-.3237.27791-.6474.37054-.9712.13896-.6012.18528-1.3412.32424-1.9424.18527-.9249.41686-1.7112.60214-2.6361.09264-.6475.09264-1.2025.23159-1.8499.09264-.4625.32423-1.5725.37055-1.8962.04632-.4625.18528-1.1562.18528-1.2024.04632-.555.09263-1.0175.04631-1.5725 0-.5087-.04631-1.1099-.13895-1.6186 0-.1388-.27791-1.7574 0-1.8037.23159-.0462.46319 1.2949.50951 1.3874.09263.4625.13895.925.32422 1.3412.27792.7862.64847 1.48.92638 2.2662.27791.6937.46319 1.4336.74114 2.0811.1852.37.4631.7862.6484 1.2025.3242.6937.5095 1.3412.9727 1.9424.1853.2312.6948.7862 1.019.4625.0463-.0925.0927-.2313.0927-.3238.0463-.185.0463-.4162.0463-.6012 0-.2775.0463-.555.0463-.8325 0-.3237 0-.6474 0-.9712 0-.3699-.0463-.6937-.0926-1.0174 0-.37.0463-.74.0463-1.11s0-.4624 0-.8324c0-.3238-.0463-.8787-.0463-1.2025 0-.2775-.0464-.5549-.0464-.8324 0-.2313 0-.4163-.0463-.6475-.1853-.1387-.1853-.3237-.1853-.4625z"/><path d="m15.5806 43.1006c-.2779-.2775.139-3.0986.278-4.0236.1389-.9712.3242-2.6823.3242-3.0061 0-.3237.0463-2.3124.1389-3.0061.0464-.6937.1853-1.8036.3243-2.8211.0926-.6475.3242-2.4974.3242-2.8674 0-.3699.1853-1.8036.2779-2.3124.0927-.5087.4169-1.1562.6485-1.2949.4168-.2775 1.5748-.185 1.8064-.0925.4169.0925 1.158 1.2025 1.2506 1.3874.2779.4163 1.1117 1.4337 1.2043 1.7575.0926.3237.9264 1.6186 1.1116 2.1274.278.5549.5559.8787.7875 1.3411.2779.4625.9727 1.9425.9727 1.9425s1.019-1.4337 1.2969-2.0812 1.019-1.6649 1.2969-2.2199 1.2506-2.4049 1.3896-2.5899c.2779-.37.5558-1.0637 1.0653-1.4337.5095-.4162.9727-.2774 1.5748-.2312.2779 0 .4632.0925.7874.2775.3243.185.5559 1.7112.6022 2.1736.0463.4625.2779 2.9599.3242 3.2836.0463.3238.3242 1.7112.3706 2.2662.0463.5087.1389 3.3298.2779 4.1623.1389.8325.1853 2.3586.2779 2.8211s.3242 2.5436.3242 2.7749c0 .2312.2779 1.6649.0463 1.7112-.2316.0462-2.1769.1387-2.5475.1849-.3705.0463-1.2506 0-1.5748 0-.3243 0-.6485-.0462-.6485-.5549 0-.5088.0463-2.5437-.1389-3.4686-.1853-.8787-.5095-3.2836-.5095-3.6536s.1389-1.2024-.278-1.11c-.3705.1388-1.1579 2.2662-1.4822 2.7749-.2779.4625-1.019 1.5262-1.019 1.5262l-.7874 1.5262s-.4632.555-.6948.5087c-.2316-.0462-.5558-1.1099-.9727-1.7574-.4631-.6475-1.019-1.7112-1.2042-2.1737-.1853-.4624-.6948-1.4799-.9727-1.8036-.2779-.3238-.4632-.7862-.6485-.8325-.1853-.0462-.4632-.2775-.5095 0s-.3242 3.3761-.3242 3.3761-.1853 2.3586-.1853 2.6361-.0463 1.8499-.0463 1.8499.2779 1.0637-.2316 1.1562c-.2779-.0925-4.0297.0463-4.3077-.2312z"/><path d="m52.8672 29.18c-.139-.6475-.5095-2.0349-.7411-2.4511-.2779-.4163-.8801-1.4337-1.1117-1.6187s-1.019-.6012-1.2969-.74c-.2779-.1387-1.5285-.5087-2.177-.6012-.6484-.0925-1.1116-.0462-1.7138-.0925-.5558 0-1.1116-.0462-2.038-.0925-.9263-.0462-1.0653-.0925-1.6211-.0925-.5559 0-1.019 0-1.4359.0463-.4169 0-1.5748.1387-1.8064.185-.2316.0462-.3243.4624-.3243.7399s.0464.8787.0464 1.2487v1.8499c0 .2775 0 1.3875.0926 1.7574.0463.37-.0926 1.3875-.0926 1.665s.0926 1.2024.0463 1.4799c0 .2775-.0463 1.5262-.0463 1.7112s.1389 1.6186.1389 1.8036 0 1.3875-.0463 1.7575c-.0463.3699 0 1.4799 0 1.6649s.0463.6474.0463.8324 0 1.1562-.0463 1.3875c0 .185.0926.8787.2779 1.2024s.7411.2775.7411.2775h1.5748c.3706 0 1.4822 0 1.8528-.0462.3242-.0463.2316-.4163.2779-.4625 0-.0463-.0463-.7862-.0463-.9712s0-.6937 0-1.0175c0-.5087-.0463-1.0174-.0463-1.3412 0-.3237.0463-1.4337.0926-1.5724 0-.1387-.0463-.6012.0463-.6012s.5558 0 1.0653.0462c.5095 0 1.0654-.0462 1.2043-.0925.3706-.0462.7411-.0925 1.2969-.185.5559-.0925 1.7602-.3237 2.316-.5549.5558-.2313 2.1306-1.0175 2.6402-1.6187.5095-.555.9726-2.3586 1.019-2.9136 0-.4625-.0927-1.9424-.1853-2.5899zm-3.8445 1.9424c-.0463.2313-.0926.8787-.3705 1.2487-.139.185-.3242.2775-.5558.5087-.1853.185-.6485.3238-.9727.4625-.3243.1387-.6948.185-.9264.2312-.2316.0463-.3242.0463-.7411.0925-.3706.0463-.7411.0463-1.1117.0925-.3705.0463-.6484 0-.9263-.2774 0 0 .0463-1.0638 0-1.5262-.0463-.4625-.139-1.2025-.139-1.4337 0-.2313-.0463-.925-.0463-1.2025 0-.2774.0463-1.1562 0-1.3874s-.0463-.6012.139-.6937c.1852-.0925 1.6211-.185 2.0843-.0925s.8801.1387 1.2969.2775c.3706.1387.6022.1387.8801.3237s.6484.4625.7874.6937c.139.185.4169.5088.4632.74.0926.2312.1853.7862.1853 1.1099 0 .0925 0 .5088-.0464.8325z"/><path d="m56.8043 42.8231s-.139-2.3124-.139-2.9598c0 0 .139-4.2086.0927-4.6248-.0464-.4163-.0927-3.1911-.0927-3.5611s-.0463-1.4337 0-1.8962.0463-1.1099-.0463-1.4799-.139-3.0061-.0926-3.3761c.0463-.37.2779-1.2949.2779-1.2949s.5558-.1388 1.1116-.1388 2.5012-.0462 3.196 0c.6948.0463 1.7601 0 2.2696 0s1.7138-.0462 2.177-.0462.7874-.1388 1.6675-.0463c.88.0925.88.0463 1.3895.0463s.9264 0 .9727.185.0927 1.2024.139 1.3874-.0927 1.2024-.0463 1.4799c.0463.2775.1389.4163-.1853.555s-2.5012.0462-2.9181.0462-2.2696.1388-2.8254.0925c-.5559-.0462-1.9917-.0462-2.3623-.0462-.3705 0-.4632-.0463-.5558.1387s0 1.4337-.0463 1.665c-.0463.2312.1389 1.0637.1389 1.0637s.0463.2312.4169.2774c.3706.0463.6948 0 .9727 0s.5095.0463 1.019 0c.5095-.0462.6485.0001 1.2969-.0462.6485 0 .5095.0462 1.0654.0925.5558.0462.3705 0 .88-.0463.5095-.0462.2779.0001.8801-.0462.6021-.0462.7874.0462 1.1116.0462s.3706.5088.4169.6475c.0463.2313.0926 1.1562.0926 1.295 0 .1387-.1389 1.4336-.1389 1.4336s-1.0654.0925-1.8528.0463c-.7874-.0463-1.4359.0462-1.9454.0462-.4632 0-1.2042.0463-1.6674.0463s-2.1307-.0925-2.316-.0925c-.1852 0-.3242.37-.3242.4625v2.5898c0 .185-.139 1.3875-.0926 1.5262.0463.1388.0463.4625.0463.4625s-.0463.2775.2779.2775h3.3349c.6485 0 3.196.185 3.6129.1387.4169-.0462 1.3432-.1387 1.5285-.0925.1853.0463.3242.2313.3706.37.0463.1388-.0927 1.5724-.0464 1.6649.0464.0925.0464 1.2025.0464 1.3875s-.139.4625-.139.4625-.2779.1387-.6021.1387c-.3243 0-.7875.0463-1.4359.0463-.6485 0-5.0024-.0463-5.4193-.0463s-1.5285 0-1.9917 0-.3706.0463-1.2969.0463c-.9264 0-1.6212.2774-2.2233-.3238z"/><path d="m109.561 42.4531s-.139-2.0349-.139-2.6823c0 0 .139-4.2086.093-4.6248-.046-.4163-.093-3.1911-.093-3.5611s-.046-1.4337 0-1.8962c.047-.4625.047-1.1099-.046-1.4799s0-.8787 0-1.4337c0-.6475-.139-1.6187-.093-1.9886.047-.37.093-.74.417-1.0637.324-.3238.417-.37.973-.3238.556.0463 2.501-.0462 3.196 0 .695.0463 1.76 0 2.27 0h2.13c.463 0 .88-.0925 1.76 0s.834.0463 1.39 0c.556-.0462 1.019.0463 1.111.2313.093.1849 0 1.0637 0 1.2949s-.092 1.2024-.046 1.4799.139.4163-.185.555-2.501.0463-2.918.0463-2.27.1387-2.826.0924c-.555-.0462-1.991-.0462-2.362-.0462-.37 0-.463-.0462-.556.1387-.092.185 0 1.4337-.046 1.665-.046.2312.139 1.0637.139 1.0637s.046.2312.417.2775c.37.0462.695 0 .972 0 .278 0 .51-.0463 1.02-.0463.509 0 .694.0463 1.343 0 .648 0 .417-.0462.972 0 .556.0463.417 0 .973 0s.556.0463 1.158 0c.602-.0462.649.0463.926 0 .464 0 .325.6937.371.8325.046.2312-.046 1.0637-.046 1.2024 0 .1388.231 1.1562-.093 1.3874-.417.2775-1.251.185-2.038.1388-.787-.0463-1.251 0-1.714 0s-1.204.0462-1.667.0462-1.76.0925-1.946.0925c-.555-.0462-.555.185-.555.3238-.047.185-.093 2.2661-.093 2.4511s-.093 1.4337-.046 1.5724c.046.1388 0 .5088 0 .5088s-.047.2774.278.2774h3.334c.649 0 3.196.185 3.613.1388.417-.0463 1.297-.0463 1.529 0 .231.0462.324.3237.37.4625.047.1387 0 1.5261-.046 1.4799-.046-.0925.046 1.2024.046 1.3874s-.139.4625-.139.4625-.277.1388-.602.1388c-.37 0-.741.1849-1.389.1387-.278 0-1.344 0-2.363 0-1.389 0-2.871-.1387-3.103-.1387-.417 0-1.528.0925-1.992.0925-.463 0-.37-.0463-1.296-.0463-1.066-.0462-1.807.185-2.363-.6475z"/><path d="m90.0611 42.5919c-.0463-.0925-.2779-.4625-.5558-.6937-.278-.2313-.278-.4625-.5559-.74s-.6947-1.11-.88-1.3412c-.2316-.2312-.2316-.3237-.6948-.8787-.4632-.5087-.7874-.8787-.9727-1.2024-.2316-.3238-.9727-1.0175-.88-1.0175.0926 0 1.4821-1.8962 1.6211-2.0349s.6021-.925.6948-1.2024c.0926-.2775.2779-.8325.3705-1.1562.0464-.3238.0464-.555.0464-.925s0-.6937 0-1.0637.0463-.7862-.0464-1.11c-.0463-.3237-.0463-1.2486-.2316-1.7111-.1389-.4625-.5095-1.2487-.6021-1.5262s-1.2969-1.1099-1.3896-1.3874c-.1389-.2775-.7874-.555-1.4358-.6938-.6485-.1387-.6485-.0462-1.1117-.1849-.4632-.1388-.6948-.0925-1.2969-.1388-.6022-.0462-2.038-.0462-2.5475-.0925-.5095-.0462-4.1224-.0462-4.5856 0-.4632.0463-.6485.0463-.6948.37s-.0463 2.2199 0 2.6824 0 2.1736-.0926 2.9598c-.0926.7863.139 2.2199.139 2.6824s-.0464 2.7286-.0464 2.9599c0 .2775.0464 2.5436-.0463 2.9598-.0926.37 0 2.5437.0463 3.0986.0463.555-.0926 1.8037.1853 1.9425.2779.1387 1.3896.0924 1.7601.0924.3706 0 .8801.0463 1.5749.0463.6947 0 .9726-.0463 1.2042-.1387.2316-.0925 0-.9713.0464-1.2025.0463-.2312-.139-1.6649-.0464-2.1274.0463-.4625.0927-2.3124.139-2.4511.0463-.1388.2316-.1388.3705-.185.139-.0463.9264.0462 1.2043.1387.2779.0463.5559.6937.6485.74.0926.0462.5558.7862 1.1116 1.3874.5095.6012 2.1307 2.6824 2.5476 3.0524.4168.37.3705.6012.7874.6937.4632.0925.5558.0462.7874.0462.2779-.0462 1.2506 0 1.5748 0 .3243 0 1.6675-.0462 1.8528-.0462 0-.185 0-.5087 0-.6012zm-5.9751-11.6545c-.0463.37.0463.37-.1853.8787-.2316.4625-.4632.74-.6021 1.0637-.1853.3238-1.0191.6937-1.3433.74-.3242.0462-1.2506.185-1.5748.185s-1.019-.0463-1.2969-.1388c-.139-.0462-.4632-2.2199-.4169-2.6361s.0926-1.4337.0463-2.0349-.2316-1.4799-.0463-1.6187c.1853-.1387.7874-.0925 1.2506-.0462.5095.0462 1.6211.0925 2.3622.4162.7411.37 1.158.5087 1.3896.9712s.3242.5088.3705 1.0175c.0464.5087.139.7862.0464 1.2024z"/><path d="m93.2108 42.9156c-.0927-.1387-.278-3.1911-.278-3.6073 0-.4163-.0926-5.2723-.0926-5.6885s.139-3.0524.0926-3.5148c-.0463-.4625-.0463-.4625-.0463-.925s0-.74 0-1.1099c0-.37-.0926-1.8037-.0463-2.1274.0463-.37.0463-.925-.0463-1.2025-.0926-.3237.1853-.9712.4632-1.1099.2779-.1388 3.9371-.1388 4.5392-.0925.6021.0462 1.3896.1387 2.1307.1387.741 0 2.779-.0462 3.381-.0925.602-.0462 1.529-.0462 1.853-.0462s.509.8324.509 1.0637c0 .2312-.046 1.1562-.046 1.3412.046.1849.046.7862 0 .8787s-.046.4624-.139.4624c-.092 0-.926.0463-1.25.0463-.325 0-.927-.0463-1.297-.0463-.371 0-1.946.0463-2.27.0463s-1.2505 0-1.5748 0c-.3242 0-1.5285 0-1.6674 0-.139 0-.0927.37-.1853.6475-.0927.2774-.0927 1.3874-.0463 1.4799.0463.0925 0 .6937.2779.7862s1.2043.1387 1.7138.1387.9731-.0462 1.2501-.0462c.278 0 .51-.0925.927-.0925s.695.0462 1.297.0925c.602.0462.787-.0463.972-.0463.186 0 .464-.0462.742-.0462.277 0 .602.0462.741.1387.231.1388.139 1.5725.046 1.85-.093.2774 0 1.0174 0 1.1099s.185.3237-.463.37c-.649.0462-1.714.0462-2.131.0462s-1.528.0463-2.038.0463c-.509 0-2.1306-.0463-2.6401-.0463s-.4631.2775-.4631.4625-.139 2.0349-.139 2.0349.139.6937.139 1.2025c0 .5087-.0464 1.3874-.0464 1.5724s.139 1.1099.0927 1.2024.0463 1.8499.0463 1.9424.1389.6938-.0926.8325c-.2316.1387-.5095.3237-1.3896.2775-.8801-.0463-2.5938-.1387-2.8254-.37z"/><path d="m139.715 38.9383s.046.37.046.6012v1.6649c0 .185-.093.925-.139 1.0175s-.926.5087-1.297.6937c-.37.185-1.621.2313-1.853.2775-.231.0462-.694 0-1.852-.0462-1.158-.0463-1.621 0-2.27-.1388-.648-.1387-1.158-.4625-1.76-.6475s-1.343-.6937-1.899-1.1562c-.556-.4624-1.343-1.3874-1.575-1.6186-.232-.2313-1.204-1.7575-1.39-2.0812-.185-.3237-.787-2.3124-.787-2.6361s-.046-2.6824 0-2.8674.463-1.9424.602-2.2199.788-1.6187 1.066-1.9424c.277-.3237 1.435-1.6649 1.852-1.9886.371-.37 1.112-.9712 1.529-1.1562s1.528-.6938 2.408-.925 1.297-.2775 2.548-.2312c1.251.0462 2.038 0 2.455.0925 1.065.185 1.575.6474 1.991.8324.417.185.464.8787.556 1.2025.093.3237 0 1.4336 0 1.6186s-.185.6938-.231.7863c-.047.0924-1.158-.1388-1.344-.2775-.324-.185-2.686-.5088-3.473-.4625-.649.0462-2.038.37-2.548.6937-.556.37-1.39 1.2487-1.899 1.8962-.417.5549-.834 1.7111-.88 1.9424 0 .2775-.139.7862-.093 1.0174.047.2313-.139 1.5725 0 1.8499.093.2775.371 1.1562.602 1.3875.232.2312.371 1.1562 1.066 1.5262.695.3699 1.111.6937 1.806.8324.695.185 1.482.6012 2.409.6475.926.0462 1.436-.185 1.945-.185.51 0 1.204-.0925 1.436-.185s.648-.1387.648-.1387.278-.1388.325.3237z"/><path d="m142.864 27.2838s-.278-.2774-.278-.7399-.138-1.3875-.092-1.8499c.046-.4625.046-.925.278-1.0175.231-.0925 2.825-.2312 3.381-.1387s.834.185 1.806.1387c.973-.0462.973-.185 2.085-.0925 1.111.0925 1.297.0463 2.084.0925.788.0463 1.714 0 1.714 0h1.019 1.714c.278 0 .278.74.37 1.11.093.3699.139.7399.093 1.1562-.046.3699.093.9249-.139 1.1099-.324.2775-1.112.2312-1.575.2312s-1.112.0463-1.899.0463-1.019-.0925-1.204 0c-.186.0925-.324.1387-.278.4625.046.3237 0 2.1274-.046 2.4049-.047.2774.185 2.6361.185 3.0061 0 .3699-.047 1.3412-.093 1.5261-.046.185.046 1.0637 0 1.3875 0 .4162.139 1.3874.093 1.8499 0 .2775-.047 1.8499-.047 1.9886 0 .1388.047 1.8037.047 1.9887s-.047.7862-.185.9712c-.139.185-.325.1388-.834.185-.51.0462-1.621 0-1.992 0-.37 0-1.019-.0462-1.343-.0462s-.324-.4163-.417-1.2025.185-2.4974.185-2.8211-.231-1.9887-.185-2.3124.185-1.6187.139-1.9887c-.046-.3699-.185-1.3411-.185-1.6186s.139-1.8962.092-2.0812c-.046-.185-.092-.7399-.092-1.0637 0-.3237-.093-1.0174-.093-1.3874 0-.3238-.046-1.1562-.046-1.1562s-.186-.2775-.741-.2313c-.556.0463-.695-.0925-1.344.0463-.648.1387-1.852.0925-2.177.0462z"/><path d="m45.9194 63.5885s0 .1387-.4169.1387-.5095.0463-.88 0c-.3706-.0462-.6022-.0462-.6485-.0925-.0463-.0462-.139 0-.139-.3237 0-.3238 0-1.5724 0-1.8499s0-1.5725.0464-1.9424c.0463-.37 0-1.2487 0-1.5725 0-.3237-.0464-.8787-.0464-1.2487 0-.3237.0927-1.8036.0927-2.1736s.0463-1.5262 0-1.7112 0-.8324 0-1.0174-.0463-.555 0-.8787c0-.3238.1389-.74.1389-.8788 0-.1387.4632-.1849.7411-.2312.2779-.0462.7411-.0462 1.3433-.0462.5558 0 3.2423-.0463 3.4739-.0463s2.1306.185 2.2696.1388c.1389-.0463.2779.1849.3705.4624.0927.2775.0464.7862.0464.925 0 .1387-.1853.4162-.1853.4162s-.9264.0925-1.3433.0925c-.4168 0-2.6401-.0925-2.918-.0925s-1.5749-.0462-1.6212 0c-.0463.0463-.0926.0925-.1389.185-.0464.0925 0 1.11-.0464 1.2025-.0463.0925.0464 1.4799.0464 1.5261 0 .0463.0463.1388.3242.0925.2779-.0462 1.7601.0925 2.2696.0463.5095-.0463 1.7138-.0463 2.1307 0 .4168.0462.88.0462.9263.1387.0464.0925.0927.8787.0927 1.0175 0 .1387-.0927.6474-.0927.6474s0 .185-.3705.185c-.3706 0-3.9371.0925-4.215.0925s-.7874 0-.8801.0463c-.0926.0462-.0926.8324-.1389 1.0637-.0463.2312.0926 1.1099.0463 1.4337-.0463.3237 0 1.9424 0 2.0349s-.0926 2.0349-.2779 2.2199z"/><path d="m70.0051 56.1426c-.0463-.6938-.4632-1.7112-.7411-2.1737s-.6948-1.5724-1.8527-2.5436c-1.158-.9712-.278-.2775-.6948-.4625-.4632-.2312-.6948-.37-.9264-.4625-.2779-.1387-1.019-.37-1.6675-.4625-.6484-.0925-1.9917-.1387-3.196.37-1.2042.4625-2.7328 1.5262-3.7981 2.7749s-1.2506 3.7923-1.2506 3.7923c0 .6475.5095 2.2199.6485 2.4974.1389.2775.4168 1.11.6021 1.3412.1853.2775.5095.6012.7874.9712s1.019.8325 1.3896 1.1099c.3705.2775.9264.4625.9264.4625l.6947.2313s.4632.0462.7411.0925c.3243 0 .9727.185 1.297.185.3242 0 .9263-.0463 1.899-.1388.9264-.0925 1.2043-.4162 1.2506-.4625.0463-.0462.5558-.2775.5558-.2775s.4169-.185.5559-.2312c.1852-.0462 1.5285-1.4799 1.7601-1.7574s.88-2.0349.9264-2.1737c-.0464-.2312.1389-1.9886.0926-2.6823zm-2.7791 3.0061c-.3706.7399-1.019 1.2949-1.3433 1.5724-.3242.2775-.7411.5087-.9263.6012-.2316.0925-1.1117.2313-1.4822.2313-.3706 0-1.8065.0462-2.5476-.3238s-1.3432-.7399-1.7601-1.3412c-.4168-.6012-.9263-2.1736-.9263-2.2661-.139-1.7574.3242-2.3586.5558-2.9136.2779-.555.4168-.925.88-1.295.4632-.3699.9727-.8787 1.3433-1.0637.3705-.185 1.1116-.4162 1.2969-.4162.8337-.0925 1.019 0 1.2506.0463.3242.0462.9264.2774 1.2969.3699.3706.0925.6485.4163.9264.6475.6021.37.9264 1.0637 1.2043 1.3412.4168.4625.6948 2.0349.7411 2.6824.0926.6012-.0927 1.3874-.5095 2.1274z"/><path d="m87.7452 53.7839c-.1853-.5087-1.3433-1.8499-1.6675-2.1736-.2779-.3238-1.3896-1.0175-1.8991-1.1562-.5095-.1388-1.2506-.4625-1.6675-.4625-.4168 0-1.3432-.0925-2.0843-.0462-.7411.0462-2.5475.9712-2.8254 1.2024s-1.3433 1.1099-1.8991 1.8499-1.2043 2.5899-1.2043 2.5899c-.6021 1.4337.2779 3.8848.6022 4.671.3242.7862 1.9453 2.3124 2.5012 2.6824.5558.37 1.9917.6012 3.1033.7862 1.1117.1388 3.1497-.185 4.215-.6937 1.1117-.555 1.3896-1.11 1.7601-1.3412.3243-.2312.5558-.74.6948-1.0174.139-.2775.8337-1.9887.9264-2.2662.0926-.2775.1389-.8325.1853-1.0637 0-.2312 0-1.0174 0-1.2024 0-.925-.5559-1.8962-.7411-2.3587zm-1.4822 3.8386c-.0464.37-.8338 1.8962-.9727 2.1736-.1853.2775-1.6675 1.5725-2.5476 1.665-.8337.0462-1.9917-.1388-2.6401-.1388-.6485 0-1.3896-.5087-2.177-1.1562-.8337-.6474-1.3432-2.3124-1.2969-2.4974 0-.185-.0927-1.4336.0463-1.9886 0 0 .5558-1.6187 1.5285-2.4511.9727-.8325 2.6865-1.3412 3.2886-1.3412.6022 0 1.2043.185 1.7601.3699.5559.2313.6948.185 1.2043.74s.7411.6012 1.019 1.11c.278.5549.5559 1.2487.7411 1.6649.1853.4162.0927 1.4799.0464 1.8499z"/><path d="m103.216 55.9576c0-.37-.464-1.9887-1.251-3.1449s-2.2696-1.7111-2.8254-2.0349c-.5559-.2775-2.0381-.7862-3.1497-.8787-1.1117-.0925-1.7138 0-2.2233 0s-.4632.4162-.5095.6475c0 .2312.0926 1.0174.0463 1.3874 0 .37 0 .8325-.0463 1.295-.0463.4162.0926 1.0637.0926 1.5724s.0463 1.2487.0463 1.7111c0 .4625-.0463 1.7112-.0463 2.2199 0 .6013.0463.9713.0463 1.2025v2.3586c0 .37-.0463 1.295.139 1.48.0926.0925.8337 0 .8337 0h.9264c.3705 0 .3242 0 .6948-.0463.3705-.0462 1.6675-.2775 2.7328-.555 1.0653-.2774 1.8523-1.0637 2.7793-1.9424.926-.8787 1.528-2.6823 1.667-2.9598.232-.37.047-1.9887.047-2.3124zm-2.177 2.2199c-.186.6474-1.112 1.9424-1.3899 2.1274-.2316.185-1.3896 1.0174-2.1307 1.1099-.6948.1388-1.2969.0925-1.6212.0463-.5095-.0463-.4168-2.2662-.3705-2.6824s0-1.4799 0-1.8499 0-1.5262 0-1.5262-.0926-1.0174-.0926-1.4799 0-1.0175-.0464-1.295c-.0463-.2775.0464-.7862.0464-.7862s.2779-.0925.8337 0c.5558.0463 1.158.2775 1.7138.5087.5558.2313.6484.3238 1.158.7863.5095.4624.8337.6012 1.0654 1.0637.231.4162.834 1.2949.834 1.7574.092.4625.185 1.5262 0 2.2199z"/><path d="m117.25 53.4602s-.231-1.3874-.509-1.8499-1.066-1.0175-1.158-1.11c-.093-.0925-.417-.2775-.695-.4162s-1.714-.185-2.223-.185c-.51 0-1.39.0925-1.992.37s-.926.4625-1.112.6475c-.324.2774-.833 1.2949-.833 1.4799s-.232 1.4799 0 2.0811c.231.6013.972 1.9887 2.269 2.4049 1.343.4163 3.335.925 3.567 1.0637.231.1388 1.297.6475.926 1.8037-.37 1.1562-1.204 1.8499-2.223 1.7574s-1.992-.37-2.224-.6475c-.231-.2774-.509-.7399-.602-1.1099-.046-.1387-.046-.4625-.278-.4625-.231 0-1.621-.0925-1.76.1388-.231.4162.047.9249.139 1.1562.093.2312.556 1.1562.741 1.3411.186.185 1.205 1.11 2.224 1.48s2.038.2312 3.196 0c1.158-.2313 2.038-1.11 2.362-1.6187.278-.5087.834-2.1274.741-2.8211s-.417-1.4799-.973-2.1737c-.37-.4624-1.065-.6474-1.528-.7862-.463-.1387-1.76-.5087-2.409-.7399-.648-.2313-2.038-.925-2.038-1.7112 0-.6475 0-1.11.371-1.4799.139-.185 1.019-.5088 1.621-.5088s1.019.1388 1.297.2775c.278.1388.741.555.88.8325s.185.5549.324.8324.185.1388.556.1388c.37 0 1.343.3237 1.343-.185z"/></g><path d="m25.8634 18.8667c-.0926-.5549-.5095-.8787-1.019-1.0637-.5558-.2312-1.158-.1387-1.6212-.185-.7874-.0925-1.5748-.4162-2.3622-.5549-.5095-.1388-1.019-.2313-1.4822-.37-.4632-.1388-.9727-.2313-1.4359-.3238-.7874-.1849-1.5285-.2774-2.3623-.3237-.6484-.0462-1.2969.0463-1.9453.185-.7875.1387-1.4822.3237-2.177.6012-.5558.2313-1.1117.5087-1.62117.8325-.41687.2312-.83374.4625-1.25061.74-1.34324.7399-2.31593 1.4336-3.38126 2.4973.23159-.9712.37055-1.5261.60214-2.4511.23159-.7862.50951-1.3874.97269-1.8499.46319-.4625 1.06533-.7862 1.85275-.9712.69478-.185 1.34324-.3238 1.99166-.555.4632-.1387.9727-.5087 1.4359-.74.4169-.2312.7411-.3699 1.1117-.7399.5095-.5088.8337-1.11 1.0653-1.7574.1853-.4625.1853-.8788.3706-1.295.1852-.37.4631-.73995.6947-1.10993s.3706-.78621.6948-1.10995c.3242-.55497.7874-.92496 1.1117-1.38743.2779-.36999.5095-.78622.6484-1.2487.139-.46247.2316-.8787.139-1.38743-.0927-.55497-.4169-1.1562-.8338-1.47993-.4631-.36998-1.1116-.46248-1.7137-.32373-.7411.13874-1.3433.64746-1.9454 1.06369-.3706.27749-.6485.46248-1.0654.69372-.3242.18499-.8337.36998-1.1116.60122-.3242.27749-.6022.64747-.8337 1.01746-.1853.27748-.3243.83246-.46324 1.15619-.32423.64747-.69478.87871-1.06532 1.38744-.2316.27748-.50951.60122-.78742.87871-.55583.64747-.78742 1.34117-.9727 2.17367-.18527.7399-.41686 1.3874-.69478 2.0349-.13895.3237-.32423.6474-.5095.9249-.32423.5088-.64846 1.0637-.92637 1.5725 0-.2313 0-.4625 0-.6938 0-1.4799-.2316-3.2836.09263-4.9022.13896-.6475.32423-1.24872.64846-1.80369.60215-.92496 1.62116-1.24869 2.36226-1.98866.55582-.60122.7411-1.34119 1.15796-1.98866.2316-.36998.55583-.69371.83372-1.0637.2779-.32373.5095-.69371.6948-1.10994.139-.36999.2316-.69372.3242-1.0637.0464-.36999.0927-.786217.0927-1.202447 0-.0924961-.0464-.0924958-.139-.1387436-.9264-.0924957-1.85273-.0000004-2.68647.3699826-.55583.231239-1.06533.601218-1.43588 1.109948-.32423.41623-.55582.92496-.78742 1.43368-.23159.50873-.27791.92496-.55582 1.38744-.13896.23124-.50951.60122-.64846.83246-.37055.55497-.55583 1.15619-.69478 1.84991-.18528.78622-.37055 1.47993-.41687 2.26615-.04632.87867-.09264 1.75737-.09264 2.63617v2.0811c-.04632 2.7749.04632 5.5035.27791 8.2321-.09263.0463-.13895.0925-.23159.1388-.18527.0925-.37055.3699-.37055.3699l-.46319.555s.60215.3238.78742.3238c.18528.0462.50951 0 .83374 0s.60214-.0925.78741-.0925c.18528 0 .64847-.0925.92638-.185s.55582-.3238.55582-.3238l-.5095-.37h-.41687s-.27791-.0924-.37055-.1849c-.04632-.0463-.04632-.0925-.04632-.0925.32423-.6013.78742-1.1562 1.34324-1.6187.55583-.5087 1.25061-.8787 2.08434-1.2025.37055-.1387.78742-.1849 1.15795-.1849.6022 0 1.158 0 1.7601-.0463.6022-.0925 1.2043-.2775 1.8065-.4162.6021-.1388 1.2506-.2313 1.8064.0462.5095.2775 1.019.8325 1.4822 1.11s.7874.37 1.2969.5549c.3242.1388.7411.185 1.1117.2313.7874.0925 1.5748.0925 2.3622-.0925.5558-.1388 1.019-.4162 1.5285-.555.3243-.0925.7874 0 1.1117-.0462.6948-.0463 1.7138-.37 1.5285-1.295z" fill="#658b26"/></svg>