<svg fill="none" height="64" viewBox="0 0 130 64" width="130" xmlns="http://www.w3.org/2000/svg"><g fill="#b32274"><path d="m9.71994 39.6374c0-.1143-.03857-.2286-.03857-.3428-.03857-.1524-.03857-.3047-.07715-.4951-.03857-.1905-.11571-.4571-.15428-.6475-.03857-.2285-.07714-.4571-.11571-.6856-.03858-.2666-.11572-.5332-.15429-.7998s-.11571-.5713-.15428-.8379c-.07715-.3047-.07715-.5332-.11572-.8379-.07714-.3047-.19285-.6475-.23142-.9522-.07715-.3046-.11572-.5332-.19286-.8379-.07714-.2666-.11571-.6093-.19286-.8759-.15428-.6856-.38571-1.2569-.53999-1.9424-.15429-.6475-.27-1.2569-.50143-1.8663-.15428-.4951-.27-1.0664-.42428-1.5615-.19286-.4952-.23143-1.1045-.23143-1.6377-.03857-.5713.03857-1.1046 0-1.6759-.03857-.3808-.15428-.7998-.15428-1.1806-.03857-.4952 0-.9141-.07715-1.4092 0-.0381 0-.0762-.03857-.1143-.07714-.3047-.38571-.8379-1.07999-1.4473-.15428.1143-.19285.2285-.38571.3047s-.50143.1904-.73285.2666c-.19286.0381-.42429 0-.65571.0381-.27.0381-.57857.0762-.84857.0762s-.46285 0-.69428-.0762c-.23143-.0381-.46286-.2285-.65571-.3047-.19286.1904-.347141.3809-.462854.6094-.154285.2666-.308571.5332-.385713.8379-.192856.457-.192856.8379-.231427 1.2188-.077142.5332-.1157134 1.1806-.1157134 1.1806s-.07714245.2667-.0385713 1.4092c0 .3047-.0385713.6856-.0385713 1.0284 0 .4189.0771428.8379.115714 1.2568.038571.419 0 .7998.038571 1.2188.038571.457.077142.9522.115714 1.4092.038571.5332.154284.9902.192855 1.5235.038572.4189 0 .914.038571 1.3711.038571.5332.154285 1.1426.192856 1.6758s.000001 1.0283.038572 1.5615c.038571.4571.154285.9522.192856 1.4092.038571.419-.038571.7998 0 1.2188.038571.6475.077141.9141.115711 1.5615 0 .1143.11572.7998.11572.9522.03857.4951-.03858.8379-.03858 1.333 0 .3809.03858.7998 0 1.2188-.03857.4189-.03857 1.9424-.03857 2.2471 0 .5332.03857.9521.07715 1.5234.03857.419 0 .8379.03857 1.2569.03857.4189.15428.876.23142 1.333.07715.419.03858.876.19286 1.295.11571.4951.38571 1.333 1.04142 1.2568.54-.0762.77142-.2666 1.00285-.7617.15429-.3428.19286-.6856.27-1.0664.07714-.2666.23143-.5333.30857-.7999.11571-.4951.15428-1.1045.27-1.5996.15428-.7617.34714-1.4092.50142-2.1709.07715-.5332.07715-.9903.19286-1.5235.07714-.3808.27-1.2949.30857-1.5615.03857-.3809.15428-.9522.15428-.9903.03857-.457.07715-.8379.03857-1.2949 0-.419-.03857-.9141-.11571-1.333 0-.1143-.23143-1.4473 0-1.4854.19286-.0381.38571 1.0664.42428 1.1426.07715.3809.11572.7617.27 1.1045.23143.6475.54 1.2188.77143 1.8662.23142.5713.38571 1.1807.61714 1.7139.15428.3047.38571.6475.53999.9903.27.5713.42429 1.1045.81 1.5996.15428.1904.57856.6475.84856.3809.03857-.0762.07714-.1905.07714-.2666.03857-.1524.03858-.3428.03858-.4952 0-.2285.03856-.457.03856-.6855 0-.2666 0-.5332 0-.7998 0-.3047-.03857-.5713-.07714-.8379 0-.3047.03858-.6094.03858-.9141s0-.3809 0-.6856c0-.2666-.03858-.7236-.03858-.9902 0-.2285-.03857-.457-.03857-.6856 0-.1904 0-.3427-.03857-.5332-.15428-.1142-.15428-.2666-.15428-.3808z"/><path d="m12.1885 35.486c-.2314-.2286.1157-2.5518.2314-3.3136.1157-.7998.27-2.209.27-2.4756s.0386-1.9043.1157-2.4756c.0386-.5713.1543-1.4854.27-2.3233.0772-.5332.27-2.0567.27-2.3613 0-.3047.1543-1.4854.2315-1.9044.0771-.4189.3471-.9521.54-1.0664.3471-.2285 1.3114-.1523 1.5042-.0762.3472.0762.9643.9903 1.0415 1.1426.2314.3428.9257 1.1807 1.0028 1.4473.0772.2666.7714 1.333.9257 1.752.2314.457.4629.7236.6557 1.1045.2315.3809.81 1.5996.81 1.5996s.8486-1.1806 1.08-1.7139c.2314-.5332.8486-1.3711 1.08-1.8281s1.0414-1.9805 1.1571-2.1328c.2315-.3047.4629-.876.8872-1.1807.4243-.3428.81-.2285 1.3114-.1905.2314 0 .3857.0762.6557.2286.27.1523.4629 1.4092.5014 1.79.0386.3809.2315 2.4376.27 2.7042.0386.2666.27 1.4092.3086 1.8662.0386.4189.1157 2.7422.2314 3.4278.1157.6855.1543 1.9424.2315 2.3233.0771.3808.27 2.0947.27 2.2851 0 .1905.2314 1.3712.0385 1.4092-.1928.0381-1.8128.1143-2.1214.1524s-1.0414 0-1.3114 0-.54-.0381-.54-.4571c0-.4189.0386-2.0947-.1157-2.8564-.1543-.7237-.4243-2.7042-.4243-3.0089s.1157-.9902-.2314-.914c-.3086.1142-.9643 1.8662-1.2343 2.2851-.2314.3809-.8486 1.2569-.8486 1.2569l-.6557 1.2569s-.3857.457-.5785.4189c-.1929-.0381-.4629-.9141-.81-1.4473-.3858-.5332-.8486-1.4092-1.0029-1.79-.1543-.3809-.5786-1.2188-.81-1.4854s-.3857-.6475-.54-.6856-.3857-.2285-.4243 0c-.0385.2285-.27 2.7803-.27 2.7803s-.1542 1.9424-.1542 2.171c0 .2285-.0386 1.5234-.0386 1.5234s.2314.876-.1929.9522c-.2314-.0762-3.3557.0381-3.5871-.1904z"/><path d="m43.2383 24.0219c-.1157-.5332-.4243-1.6758-.6171-2.0186-.2315-.3427-.7329-1.1806-.9257-1.333-.1929-.1523-.8486-.4951-1.08-.6094-.2315-.1142-1.2729-.4189-1.8129-.4951s-.9257-.0381-1.4271-.0762c-.4629 0-.9257-.038-1.6971-.0761-.7715-.0381-.8872-.0762-1.35-.0762-.4629 0-.8486 0-1.1957.0381-.3472 0-1.3115.1142-1.5043.1523-.1929.0381-.27.3809-.27.6094s.0386.7237.0386 1.0283v1.5235c0 .2285 0 1.1426.0771 1.4473.0386.3047-.0771 1.1426-.0771 1.3711s.0771.9902.0385 1.2188c0 .2285-.0385 1.2568-.0385 1.4092 0 .1523.1157 1.333.1157 1.4853 0 .1524 0 1.1426-.0386 1.4473s0 1.2188 0 1.3711c0 .1524.0386.5332.0386.6856 0 .1523 0 .9522-.0386 1.1426 0 .1523.0771.7236.2314.9902s.6172.2286.6172.2286h1.3114c.3086 0 1.2343 0 1.5428-.0381.27-.0381.1929-.3428.2315-.3809 0-.0381-.0386-.6475-.0386-.7998 0-.1524 0-.5713 0-.8379 0-.419-.0386-.8379-.0386-1.1045s.0386-1.1807.0772-1.295c0-.1142-.0386-.4951.0385-.4951.0772 0 .4629 0 .8872.0381.4242 0 .8871-.0381 1.0028-.0762.3086-.0381.6172-.0761 1.08-.1523.4629-.0762 1.4657-.2666 1.9286-.4571.4628-.1904 1.7742-.8379 2.1985-1.333.4243-.457.81-1.9424.8486-2.3994 0-.3809-.0772-1.5997-.1543-2.1329zm-3.2014 1.5997c-.0386.1904-.0771.7236-.3086 1.0283-.1157.1523-.27.2285-.4628.4189-.1543.1524-.54.2666-.81.3809s-.5786.1524-.7714.1904c-.1929.0381-.27.0381-.6172.0762-.3086.0381-.6171.0381-.9257.0762s-.54 0-.7714-.2285c0 0 .0386-.876 0-1.2569s-.1157-.9902-.1157-1.1807c0-.1904-.0386-.7617-.0386-.9902s.0386-.9522 0-1.1426-.0386-.4951.1157-.5713 1.35-.1524 1.7357-.0762.7329.1143 1.08.2285c.3086.1143.5014.1143.7329.2666.2314.1524.54.3809.6557.5713.1157.1524.3471.419.3857.6094.0771.1905.1543.6475.1543.9141 0 .0762 0 .419-.0386.6856z"/><path d="m46.5168 35.2574s-.1157-1.9043-.1157-2.4375c0 0 .1158-3.4659.0772-3.8086-.0386-.3428-.0772-2.628-.0772-2.9327s-.0385-1.1807 0-1.5615c.0386-.3809.0386-.9141-.0385-1.2188-.0772-.3047-.1157-2.4756-.0772-2.7803.0386-.3047.2314-1.0664.2314-1.0664s.4629-.1143.9258-.1143c.4628 0 2.0828-.0381 2.6614 0 .5785.0381 1.4657 0 1.89 0 .4242 0 1.4271-.0381 1.8128-.0381s.6557-.1143 1.3886-.0381c.7328.0762.7328.0381 1.1571.0381s.7714 0 .81.1524c.0386.1523.0771.9902.1157 1.1425.0386.1524-.0771.9903-.0386 1.2188.0386.2285.1158.3428-.1542.4571-.27.1142-2.0829.038-2.43.038-.3472 0-1.89.1143-2.3529.0762-.4628-.0381-1.6585-.0381-1.9671-.0381s-.3857-.0381-.4629.1143c-.0771.1523 0 1.1807-.0385 1.3711-.0386.1904.1157.876.1157.876s.0386.1904.3471.2285c.3086.0381.5786 0 .81 0 .2315 0 .4243.0381.8486 0s.54 0 1.08-.0381c.54 0 .4243.0381.8871.0762.4629.0381.3086 0 .7329-.0381s.2314 0 .7328-.0381.6557.0381.9257.0381.3086.419.3472.5332c.0385.1904.0771.9522.0771 1.0664 0 .1143-.1157 1.1807-.1157 1.1807s-.8871.0762-1.5428.0381c-.6558-.0381-1.1958.0381-1.62.0381-.3857 0-1.0029.0381-1.3886.0381s-1.7743-.0762-1.9286-.0762c-.1542 0-.27.3047-.27.3809v2.1328c0 .1524-.1157 1.1426-.0771 1.2569.0386.1142.0386.3808.0386.3808s-.0386.2285.2314.2285h2.7771c.54 0 2.6614.1524 3.0086.1143.3471-.0381 1.1185-.1143 1.2728-.0762s.27.1905.3086.3047c.0386.1143-.0771 1.295-.0386 1.3711.0386.0762.0386.9903.0386 1.1426 0 .1524-.1157.3809-.1157.3809s-.2314.1143-.5014.1143-.6558.038-1.1957.038c-.54 0-4.1657-.038-4.5129-.038-.3471 0-1.2728 0-1.6585 0-.3858 0-.3086.038-1.08.038-.7715 0-1.35.2286-1.8515-.2666z"/><path d="m90.4494 34.9527s-.1157-1.6758-.1157-2.209c0 0 .1157-3.4658.0772-3.8086-.0386-.3428-.0772-2.628-.0772-2.9327s-.0386-1.1807 0-1.5615c.0386-.3809.0386-.9141-.0386-1.2188-.0771-.3047 0-.7236 0-1.1807 0-.5332-.1157-1.333-.0771-1.6377s.0771-.6094.3471-.876.3472-.3047.81-.2666c.4629.0381 2.0829-.0381 2.6614 0 .5786.0381 1.4658 0 1.89 0h1.7743c.3857 0 .7329-.0762 1.4657 0 .7329.0762.6943.0381 1.1575 0 .462-.0381.848.0381.925.1905.077.1523 0 .8759 0 1.0664 0 .1904-.077.9902-.038 1.2187.038.2286.115.3428-.155.4571-.27.1142-2.0823.0381-2.4295.0381-.3471 0-1.89.1142-2.3528.0761-.4629-.0381-1.6586-.0381-1.9672-.0381-.3085 0-.3857-.038-.4628.1143-.0772.1524 0 1.1807-.0386 1.3711-.0386.1905.1157.876.1157.876s.0386.1904.3472.2285c.3085.0381.5785 0 .81 0 .2314 0 .4243-.0381.8485-.0381.4243 0 .5786.0381 1.1186 0 .54 0 .3471-.038.81 0 .4628.0381.3471 0 .81 0 .4628 0 .4628.0381.9643 0 .5016-.038.5396.0381.7716 0 .385 0 .27.5713.308.6856.039.1904-.038.876-.038.9902 0 .1143.193.9522-.077 1.1426-.347.2286-1.0418.1524-1.6975.1143s-1.0414 0-1.4271 0-1.0029.0381-1.3886.0381-1.4657.0762-1.62.0762c-.4628-.0381-.4628.1523-.4628.2666-.0386.1523-.0772 1.8662-.0772 2.0185 0 .1524-.0771 1.1807-.0385 1.295.0385.1142 0 .4189 0 .4189s-.0386.2286.2314.2286h2.7771c.54 0 2.6614.1523 3.0086.1142.3466-.0381 1.0796-.0381 1.2726 0s.27.2666.309.3809c.038.1142 0 1.2568-.039 1.2187-.038-.0761.039.9903.039 1.1426 0 .1524-.116.3809-.116.3809s-.231.1143-.501.1143c-.309 0-.618.1523-1.1575.1142-.2314 0-1.1186 0-1.9671 0-1.1572 0-2.3914-.1142-2.5843-.1142-.3471 0-1.2728.0761-1.6585.0761-.3858 0-.3086-.038-1.0801-.038-.8871-.0381-1.5042.1523-1.9671-.5333z"/><path d="m74.211 35.067c-.0386-.0762-.2315-.3809-.4629-.5713s-.2314-.3809-.4629-.6094c-.2314-.2285-.5785-.9141-.7328-1.1045-.1929-.1904-.1929-.2666-.5786-.7236-.3857-.419-.6557-.7237-.81-.9903-.1928-.2666-.81-.8379-.7328-.8379.0771 0 1.2343-1.5615 1.35-1.6758.1157-.1142.5014-.7617.5785-.9902.0772-.2285.2315-.6856.3086-.9522.0386-.2666.0386-.457.0386-.7617s0-.5713 0-.876.0386-.6475-.0386-.9141c-.0386-.2666-.0386-1.0283-.1928-1.4092-.1158-.3808-.4243-1.0283-.5015-1.2568-.0771-.2286-1.08-.9141-1.1571-1.1426-.1157-.2286-.6557-.4571-1.1957-.5713-.54-.1143-.54-.0381-.9257-.1524-.3857-.1142-.5786-.0761-1.08-.1142s-1.6971-.0381-2.1214-.0762-3.4329-.0381-3.8186 0-.54.0381-.5785.3047c-.0386.2666-.0386 1.8281 0 2.209.0385.3809 0 1.7901-.0772 2.4375-.0771.6475.1157 1.8282.1157 2.209 0 .3809-.0385 2.2471-.0385 2.4376 0 .2285.0385 2.0947-.0386 2.4375-.0772.3047 0 2.0948.0386 2.5518.0385.457-.0772 1.4854.1542 1.5996.2315.1143 1.1572.0762 1.4657.0762.3086 0 .7329.0381 1.3115.0381.5785 0 .81-.0381 1.0028-.1143.1929-.0761 0-.7998.0386-.9902s-.1157-1.3711-.0386-1.752c.0386-.3809.0772-1.9043.1157-2.0186.0386-.1142.1929-.1142.3086-.1523s.7714.0381 1.0029.1142c.2314.0381.4628.5713.5399.6094.0772.0381.4629.6475.9258 1.1426.4242.4951 1.7742 2.209 2.1214 2.5137.3471.3047.3085.4952.6557.5713.3857.0762.4628.0381.6557.0381.2314-.0381 1.0414 0 1.3114 0s1.3886-.0381 1.5429-.0381c0-.1523 0-.4189 0-.4951zm-4.9757-9.5978c-.0386.3047.0385.3047-.1543.7237-.1929.3808-.3857.6093-.5014.8759-.1543.2667-.8486.5713-1.1186.6094s-1.0414.1524-1.3114.1524-.8486-.0381-1.08-.1143c-.1157-.0381-.3857-1.8281-.3471-2.1709.0385-.3428.0771-1.1807.0385-1.6758s-.1928-1.2188-.0385-1.333c.1542-.1143.6557-.0762 1.0414-.0381.4243.0381 1.35.0761 1.9671.3427.6171.3047.9643.419 1.1571.7999.1929.3808.27.4189.3086.8379.0386.4189.1157.6474.0386.9902z"/><path d="m76.8338 35.3336c-.0771-.1143-.2314-2.628-.2314-2.9707 0-.3428-.0772-4.3419-.0772-4.6847s.1157-2.5137.0772-2.8945c-.0386-.3809-.0386-.3809-.0386-.7618 0-.3808 0-.6094 0-.914 0-.3047-.0771-1.4854-.0386-1.752.0386-.3047.0386-.7618-.0385-.9903-.0772-.2666.1542-.7998.3857-.914.2314-.1143 3.2785-.1143 3.7799-.0762.5015.0381 1.1572.1142 1.7743.1142.6172 0 2.3143-.038 2.8157-.0761s1.2729-.0381 1.5429-.0381.4242.6855.4242.876c0 .1904-.0385.9521-.0385 1.1045.0385.1523.0385.6474 0 .7236-.0386.0762-.0386.3809-.1157.3809-.0772 0-.7715.0381-1.0415.0381s-.7714-.0381-1.08-.0381c-.3085 0-1.6199.0381-1.8899.0381s-1.0415 0-1.3115 0-1.2728 0-1.3885 0-.0772.3047-.1543.5332c-.0772.2285-.0771 1.1426-.0386 1.2187.0386.0762 0 .5713.2314.6475.2315.0762 1.0029.1143 1.4272.1143s.81-.0381 1.0414-.0381.4243-.0762.7714-.0762c.3472 0 .5786.0381 1.08.0762s.6557-.0381.81-.0381.3857-.0381.6172-.0381c.2314 0 .5014.0381.6171.1143.1928.1142.1157 1.2949.0386 1.5234-.0772.2286 0 .8379 0 .9141s.1542.2666-.3857.3047c-.54.0381-1.4272.0381-1.7743.0381-.3472 0-1.2729.0381-1.6972.0381-.4242 0-1.7742-.0381-2.1985-.0381s-.3857.2285-.3857.3809c0 .1523-.1157 1.6758-.1157 1.6758s.1157.5713.1157.9902c0 .419-.0386 1.1426-.0386 1.2949 0 .1524.1157.9141.0771.9903-.0385.0762.0386 1.5234.0386 1.5996s.1157.5713-.0771.6856c-.1929.1142-.4243.2666-1.1572.2285-.7328-.0381-2.1599-.1143-2.3528-.3047z"/><path d="m115.559 32.0582s.039.3047.039.4951v1.3711c0 .1524-.077.7617-.116.8379-.038.0762-.771.419-1.08.5713-.308.1524-1.35.1904-1.543.2285s-.578 0-1.543-.0381c-.964-.038-1.35 0-1.89-.1142-.54-.1143-.964-.3809-1.465-.5332-.502-.1524-1.119-.5713-1.582-.9522s-1.118-1.1426-1.311-1.333c-.193-.1905-1.003-1.4473-1.157-1.7139-.155-.2666-.656-1.9043-.656-2.1709s-.039-2.2091 0-2.3614.386-1.5996.501-1.8281c.116-.2286.656-1.3331.888-1.5997.231-.2666 1.195-1.3711 1.542-1.6377.309-.3047.926-.7998 1.273-.9522.347-.1523 1.273-.5713 2.006-.7617s1.08-.2285 2.121-.1904c1.042.0381 1.698 0 2.045.0762.887.1523 1.311.5332 1.658.6855.347.1524.386.7237.463.9903s0 1.1806 0 1.333c0 .1523-.154.5713-.193.6475-.038.0761-.964-.1143-1.118-.2286-.27-.1523-2.237-.4189-2.893-.3808-.54.0381-1.697.3047-2.122.5713-.462.3047-1.157 1.0283-1.581 1.5615-.347.457-.694 1.4092-.733 1.5996 0 .2286-.116.6475-.077.8379.039.1905-.116 1.295 0 1.5235.077.2285.309.9522.501 1.1426.193.1904.309.9522.888 1.2569.578.3046.925.5712 1.504.6855.578.1524 1.234.4951 2.006.5332.771.0381 1.195-.1523 1.62-.1523.424 0 1.002-.0762 1.195-.1524.193-.0761.54-.1142.54-.1142s.232-.1143.27.2666z"/><path d="m118.182 22.4604s-.231-.2285-.231-.6094-.116-1.1426-.077-1.5235c.038-.3808.038-.7617.231-.8379.193-.0761 2.353-.1904 2.816-.1142s.694.1523 1.504.1142c.81-.038.81-.1523 1.736-.0761.925.0761 1.08.0381 1.735.0761.656.0381 1.427 0 1.427 0h.849 1.427c.232 0 .232.6094.309.9141s.115.6094.077.9522c-.039.3047.077.7617-.116.9141-.27.2285-.926.1904-1.311.1904-.386 0-.926.0381-1.582.0381-.655 0-.848-.0762-1.003 0-.154.0761-.27.1142-.231.3808s0 1.752-.039 1.9805c-.038.2285.155 2.171.155 2.4757 0 .3046-.039 1.1045-.077 1.2568-.039.1523.038.876 0 1.1426 0 .3428.115 1.1426.077 1.5235 0 .2285-.039 1.5234-.039 1.6377 0 .1142.039 1.4853.039 1.6377 0 .1523-.039.6475-.155.7998-.115.1524-.27.1143-.694.1524-.424.038-1.35 0-1.658 0-.309 0-.849-.0381-1.119-.0381s-.27-.3428-.347-.9903.154-2.0567.154-2.3233-.193-1.6377-.154-1.9043.154-1.333.116-1.6377c-.039-.3047-.155-1.1045-.155-1.333s.116-1.5616.078-1.7139c-.039-.1524-.078-.6094-.078-.876s-.077-.8379-.077-1.1426c0-.2666-.038-.9522-.038-.9522s-.155-.2285-.617-.1904c-.463.0381-.579-.0762-1.119.0381s-1.543.0762-1.813.0381z"/><path d="m37.4526 52.3583s0 .1142-.3471.1142c-.3472 0-.4243.0381-.7329 0-.3085-.0381-.5014-.0381-.54-.0762-.0385-.038-.1157 0-.1157-.2666s0-1.2949 0-1.5234 0-1.295.0386-1.5997c.0386-.3046 0-1.0283 0-1.2949s-.0386-.7236-.0386-1.0283c0-.2666.0772-1.4854.0772-1.7901s.0385-1.2568 0-1.4092c-.0386-.1523 0-.6856 0-.8379s-.0386-.457 0-.7236c0-.2666.1157-.6094.1157-.7237 0-.1142.3857-.1523.6171-.1904s.6171-.0381 1.1186-.0381c.4628 0 2.7-.0381 2.8928-.0381.1929 0 1.7743.1524 1.89.1143s.2314.1523.3086.3808c.0771.2286.0385.6475.0385.7618 0 .1142-.1542.3427-.1542.3427s-.7715.0762-1.1186.0762-2.1986-.0762-2.43-.0762-1.3114-.038-1.35 0c-.0385.0381-.0771.0762-.1157.1524s0 .9141-.0386.9902c-.0385.0762.0386 1.2188.0386 1.2569s.0386.1143.27.0762 1.4657.0761 1.89.0381c.4243-.0381 1.4271-.0381 1.7743 0 .3471.038.7328.038.7714.1142s.0771.7237.0771.8379c0 .1143-.0771.5332-.0771.5332s0 .1524-.3086.1524-3.2785.0761-3.51.0761c-.2314 0-.6557 0-.7328.0381-.0772.0381-.0772.6856-.1157.876-.0386.1904.0771.9141.0385 1.1807-.0385.2666 0 1.5996 0 1.6758s-.0771 1.6758-.2314 1.8282z"/><path d="m57.5096 46.2263c-.0385-.5713-.3857-1.4092-.6171-1.79-.2314-.3809-.5786-1.295-1.5429-2.0948-.9642-.7998-.2314-.2285-.5785-.3809-.3857-.1904-.5786-.3046-.7714-.3808-.2315-.1143-.8486-.3047-1.3886-.3809s-1.6586-.1142-2.6614.3047c-1.0029.3809-2.2757 1.2569-3.1629 2.2852-.8871 1.0283-1.0414 3.1231-1.0414 3.1231 0 .5332.4243 1.8281.54 2.0567.1157.2285.3472.914.5014 1.1045.1543.2285.4243.4951.6558.7998.2314.3047.8485.6855 1.1571.9141.3086.2285.7714.3808.7714.3808l.5786.1905s.3857.038.6171.0761c.27 0 .81.1524 1.08.1524s.7714-.0381 1.5814-.1143c.7715-.0762 1.0029-.3428 1.0415-.3809.0385-.038.4628-.2285.4628-.2285s.3471-.1523.4629-.1904c.1542-.0381 1.2728-1.2188 1.4657-1.4473.1928-.2285.7328-1.6758.7714-1.7901-.0386-.1904.1157-1.6377.0771-2.209zm-2.3142 2.4756c-.3086.6094-.8486 1.0665-1.1186 1.295s-.6171.4189-.7714.4951c-.1929.0762-.9257.1904-1.2343.1904s-1.5043.0381-2.1214-.2666c-.6172-.3047-1.1186-.6093-1.4657-1.1045-.3472-.4951-.7714-1.79-.7714-1.8662-.1158-1.4473.27-1.9424.4628-2.3994.2314-.4571.3472-.7618.7329-1.0665s.81-.7236 1.1185-.876c.3086-.1523.9257-.3427 1.08-.3427.6943-.0762.8486 0 1.0414.038.27.0381.7715.2286 1.08.3047.3086.0762.54.3428.7715.5333.5014.3046.7714.8759 1.0028 1.1045.3471.3808.5786 1.6758.6171 2.209.0772.4951-.0771 1.1426-.4242 1.7519z"/><path d="m72.2824 44.2839c-.1543-.4189-1.1186-1.5234-1.3886-1.79-.2314-.2666-1.1571-.8379-1.5814-.9522s-1.0414-.3809-1.3885-.3809c-.3472 0-1.1186-.0761-1.7358-.0381-.6171.0381-2.1214.7999-2.3528.9903s-1.1186.9141-1.5814 1.5235c-.4629.6093-1.0029 2.1328-1.0029 2.1328-.5014 1.1807.2315 3.1993.5015 3.8467.27.6475 1.62 1.9044 2.0828 2.209.4629.3047 1.6586.4952 2.5843.6475.9257.1143 2.6228-.1523 3.51-.5713.9257-.457 1.1571-.9141 1.4657-1.1045.27-.1904.4628-.6094.5785-.8379s.6943-1.6377.7714-1.8662c.0772-.2285.1158-.6856.1543-.876 0-.1905 0-.8379 0-.9903 0-.7617-.4628-1.5615-.6171-1.9424zm-1.2343 3.1612c-.0386.3047-.6943 1.5615-.81 1.7901-.1543.2285-1.3885 1.2949-2.1214 1.3711-.6943.0381-1.6586-.1143-2.1986-.1143-.5399 0-1.1571-.4189-1.8128-.9521-.6943-.5333-1.1186-1.9044-1.08-2.0567 0-.1524-.0771-1.1807.0386-1.6377 0 0 .4628-1.3331 1.2728-2.0186.81-.6856 2.2372-1.1045 2.7386-1.1045s1.0028.1523 1.4657.3047c.4628.1904.5786.1523 1.0028.6094.4243.457.6172.4951.8486.914.2314.4571.4629 1.0284.6171 1.3711.1543.3428.0772 1.2188.0386 1.5235z"/><path d="m85.1652 46.074c0-.3047-.3857-1.6377-1.0415-2.5899-.6557-.9522-1.8899-1.4092-2.3528-1.6758-.4628-.2285-1.6971-.6475-2.6228-.7236-.9257-.0762-1.4272 0-1.8515 0-.4242 0-.3857.3427-.4242.5332 0 .1904.0771.8379.0385 1.1426 0 .3047 0 .6855-.0385 1.0664-.0386.3428.0771.876.0771 1.2949 0 .419.0386 1.0284.0386 1.4092 0 .3809-.0386 1.4092-.0386 1.8282 0 .4951.0386.7998.0386.9902v1.9424c0 .3047-.0386 1.0665.1157 1.2188.0771.0762.6943 0 .6943 0h.7714c.3086 0 .27 0 .5786-.0381.3085-.0381 1.3885-.2285 2.2757-.457.8871-.2285 1.5428-.876 2.3142-1.5997.7715-.7236 1.2729-2.209 1.3886-2.4375.1929-.3047.0386-1.6377.0386-1.9043zm-1.8129 1.8281c-.1543.5333-.9257 1.5997-1.1571 1.752-.1929.1524-1.1571.8379-1.7743.9141-.5786.1143-1.08.0762-1.35.0381-.4243-.0381-.3471-1.8663-.3085-2.209.0385-.3428 0-1.2188 0-1.5235s0-1.2568 0-1.2568-.0772-.8379-.0772-1.2188 0-.8379-.0386-1.0664c-.0385-.2286.0386-.6475.0386-.6475s.2314-.0762.6943 0c.4629.0381.9643.2285 1.4271.4189.4629.1905.54.2666.9643.6475s.6943.4951.8871.876c.1929.3428.6943 1.0664.6943 1.4473.0772.3809.1543 1.2568 0 1.8281z"/><path d="m96.8522 44.0173s-.1928-1.1426-.4243-1.5234c-.2314-.3809-.8871-.8379-.9642-.9141-.0772-.0762-.3472-.2285-.5786-.3428s-1.4271-.1523-1.8514-.1523-1.1571.0761-1.6586.3046c-.5014.2286-.7714.3809-.9257.5333-.27.2285-.6943 1.0664-.6943 1.2187 0 .1524-.1928 1.2188 0 1.7139.1929.4951.81 1.6377 1.89 1.9805 1.1186.3428 2.7772.7617 2.97.876.1929.1143 1.08.5332.7714 1.4854-.3085.9521-1.0028 1.5234-1.8514 1.4473-.8486-.0762-1.6585-.3047-1.8514-.5332-.1929-.2286-.4243-.6094-.5014-.9141-.0386-.1143-.0386-.3809-.2315-.3809-.1928 0-1.35-.0762-1.4657.1143-.1928.3428.0386.7617.1158.9521.0771.1905.4628.9522.6171 1.1045.1543.1524 1.0028.9141 1.8514 1.2188s1.6971.1904 2.6614 0 1.6972-.9141 1.9672-1.333c.2314-.419.6942-1.752.6171-2.3233-.0772-.5713-.3472-1.2188-.81-1.7901-.3086-.3808-.8871-.5332-1.2728-.6474-.3858-.1143-1.4658-.419-2.0058-.6094s-1.6971-.7617-1.6971-1.4092c0-.5332 0-.9141.3086-1.2188.1157-.1523.8485-.4189 1.35-.4189.5014 0 .8485.1142 1.08.2285.2314.1143.6171.457.7328.6855.1157.2286.1543.4571.27.6856s.1543.1143.4629.1143c.3085 0 1.1185.2666 1.1185-.1524z"/></g><path d="m20.7513 15.5287c-.0771-.4571-.4243-.7237-.8486-.876-.4628-.1905-.9642-.1143-1.35-.1524-.6557-.0761-1.3114-.3428-1.9671-.457-.4243-.1143-.8485-.1904-1.2343-.3047-.3857-.1143-.81-.1904-1.1957-.2666-.6557-.1524-1.2728-.2285-1.9671-.2666-.54-.0381-1.08.0381-1.62.1523-.6557.1143-1.23427.2666-1.81283.4952-.46286.1904-.92571.4189-1.34999.6855-.34714.1904-.69429.3809-1.04143.6094-1.11856.6094-1.92856 1.1807-2.81569 2.0567.19285-.7999.30857-1.2569.50142-2.0186.19286-.6475.42429-1.1426.81-1.5235.38571-.3808.88714-.6474 1.54285-.7998.57856-.1523 1.11856-.2666 1.65856-.457.38571-.1143.80999-.419 1.1957-.6094.34714-.1904.61714-.3047.92571-.6094.4243-.4189.6943-.9141.8871-1.44728.1543-.38087.1543-.72364.3086-1.06642.1543-.30469.3857-.60938.5786-.91408.1928-.30469.3085-.64747.5785-.91407.27-.45704.6558-.76173.9257-1.14259.2315-.3047.4243-.64747.54-1.02834.1158-.38086.1929-.72364.1158-1.14259-.0772-.45704-.3472-.95216-.6943-1.21877-.3857-.30469-.9257-.38086-1.4272-.2666-.6171.11426-1.1185.53321-1.6199.87598-.3086.22852-.54004.38087-.88718.5713-.27.15235-.69428.30469-.92571.49513-.27.22851-.50142.53321-.69428.8379-.15428.22852-.27.68555-.38571.95216-.27.53321-.57857.72364-.88714 1.14259-.19285.22852-.42428.49512-.65571.72364-.46285.53321-.65571 1.10451-.80999 1.79007-.15429.60937-.34715 1.14257-.57857 1.67577-.11572.2666-.27.5332-.42428.7618-.27.4189-.54.8759-.77143 1.2949 0-.1904 0-.3809 0-.5713 0-1.2188-.19285-2.70414.07714-4.03716.11572-.53321.27-1.02834.54-1.48537.50143-.76173 1.34999-1.02834 1.96713-1.63772.46286-.49512.61714-1.10451.96428-1.63772.19286-.30469.46285-.57129.69428-.87599.23143-.2666.42428-.57129.57857-.91407.11571-.30469.19286-.5713.27-.87599.03857-.304691.07714-.647469.07714-.990247 0-.0761728-.03857-.0761725-.11571-.1142589-.77143-.0761729-1.54285-.0000003-2.23713.3046909-.46286.190433-.88714.495124-1.19571.914075-.27.34278-.46285.76173-.65571 1.18068-.19285.41895-.23143.76173-.46285 1.14259-.11572.19044-.42429.49513-.54.68556-.30857.45704-.46285.95216-.57857 1.52346-.15428.64747-.30857 1.21876-.34714 1.86623-.03857.72365-.07714 1.44729-.07714 2.17093v1.71391c-.03857 2.2852.03857 4.5323.23143 6.7794-.07714.0381-.11572.0761-.19286.1142-.15428.0762-.30857.3047-.30857.3047l-.38571.4571s.50142.2666.65571.2666c.15428.0381.42428 0 .69428 0s.50143-.0762.65571-.0762c.15429 0 .54-.0762.77142-.1524.23143-.0761.46286-.2666.46286-.2666l-.42428-.3046h-.34714s-.23143-.0762-.30857-.1524c-.03858-.0381-.03858-.0762-.03858-.0762.27-.4951.65571-.9521 1.11857-1.333.46285-.4189 1.04142-.7236 1.7357-.9902.30857-.1143.65571-.1524.96428-.1524.50143 0 .96428 0 1.46571-.0381.50142-.0761 1.00286-.2285 1.50426-.3428.5014-.1142 1.0414-.1904 1.5043.0381.4243.2286.8486.6856 1.2343.9141s.6557.3047 1.08.457c.27.1143.6171.1524.9257.1905.6557.0761 1.3114.0762 1.9671-.0762.4629-.1143.8486-.3428 1.2728-.457.27-.0762.6558 0 .9258-.0381.5785-.0381 1.4271-.3047 1.2728-1.0664z" fill="#658b26"/></svg>