<svg fill="none" height="23" viewBox="0 0 124 23" width="124" xmlns="http://www.w3.org/2000/svg"><path d="m0 0h9.09077c1.73153 0 3.03023.435767 3.99223 1.16205 1.0582.87153 1.6354 2.13041 1.6354 3.67981 0 1.79149-.7215 2.90511-2.1645 3.58297v.09684c1.924.62944 3.0303 2.37253 3.0303 4.45453 0 1.9851-.7696 3.5345-2.0202 4.5029-1.0582.7747-2.405 1.1136-4.23274 1.1136h-9.33126zm8.17688 7.26279c.96199 0 1.68348-.53261 1.68348-1.64623 0-1.06521-.72149-1.59782-1.73158-1.59782h-3.12645v3.19563h3.17455zm.4329 7.21441c1.10628 0 1.92392-.6779 1.92392-1.8884 0-1.3073-.86574-1.8883-1.92392-1.8883h-3.55935v3.8251h3.55935zm7.79212-14.4772h4.7618v18.6412h-4.7618zm5.7238 12.0078c0-4.21241 2.6935-7.02069 6.8782-7.02069 4.1846 0 6.8301 2.8567 6.8301 7.02069 0 4.2124-2.6455 7.0207-6.8301 7.0207-4.1847 0-6.8782-2.8083-6.8782-7.0207zm8.9465 0c0-2.32408-.7215-3.77664-2.1645-3.77664s-2.1164 1.45256-2.1164 3.77664c0 2.3241.6734 3.8251 2.1164 3.8251 1.443-.0484 2.1645-1.501 2.1645-3.8251zm5.2909 0c0-4.21241 2.6935-7.02069 6.8782-7.02069 4.1846 0 6.782 2.80828 6.782 7.02069 0 4.2124-2.6455 7.0207-6.8301 7.0207-4.1366 0-6.8301-2.8083-6.8301-7.0207zm8.9464 0c0-2.32408-.7214-3.77664-2.1644-3.77664s-2.1164 1.45256-2.1164 3.77664c0 2.3241.6734 3.8251 2.1164 3.8251 1.443-.0484 2.1644-1.501 2.1644-3.8251zm5.6758-6.68176h4.4251v1.98517h.0962c.8658-1.5494 2.0683-2.37251 3.9922-2.37251 1.6835 0 2.9341.82311 3.5594 2.27567h.0962c1.0582-1.74307 2.4531-2.27567 4.0884-2.27567 3.0784 0 4.3771 2.27567 4.3771 5.326v8.328h-4.6176v-7.5048c0-1.35576-.4329-2.2273-1.5872-2.2273-1.1544 0-1.7316 1.06521-1.7316 2.5178v7.2143h-4.6176v-7.5048c0-1.35576-.4329-2.2273-1.5872-2.2273-1.1544 0-1.7316 1.06521-1.7316 2.5178v7.2143h-4.7618zm26.4546 11.52366h-.0481v1.743h-4.4252v-18.5927h4.6176v6.68177h.0962c.8658-1.16205 2.0682-1.79149 3.7517-1.79149 3.3189 0 5.2428 3.00195 5.2428 7.02072 0 4.5029-2.0682 7.1175-5.5314 7.1175-1.443 0-2.934-.6779-3.7036-2.1788zm4.4732-4.9871c0-2.13046-.7696-3.5346-2.1645-3.5346-1.4429 0-2.3087 1.40414-2.3087 3.5346 0 2.1304.9139 3.5345 2.3087 3.5345 1.3949 0 2.1645-1.3557 2.1645-3.5345zm5.2909.0968c0-4.16401 2.7417-7.0207 6.6858-7.0207 1.9721 0 3.4632.62944 4.6176 1.74307 1.5396 1.50097 2.2126 3.82503 2.1646 6.53653h-8.8504c.1924 1.6462.962 2.5177 2.3568 2.5177.8177 0 1.5392-.3873 1.8278-1.2588h4.4728c-.7691 3.0503-3.126 4.5513-6.4449 4.5513-4.0884-.0484-6.8301-2.8567-6.8301-7.0691zm4.6176-1.4041h4.2327c-.0962-1.59786-.962-2.42098-2.0683-2.42098-1.2986-.04842-2.0201.87154-2.1644 2.42098zm14.0934-2.95358h.096c.962-1.83991 2.212-2.56619 3.8-2.56619.384 0 .625.04842.769.14526v4.06716h-.096c-2.742-.48419-4.329.82315-4.329 3.82505v5.5682h-4.665v-13.31516h4.425zm5.146 11.03948h4.474c.192.581.769 1.1136 1.875 1.1136 1.491 0 2.021-.92 2.021-2.3241v-.9684h-.097c-.721.8716-1.731 1.501-3.174 1.501-2.838 0-5.339-2.1304-5.339-6.2944 0-3.82509 2.02-6.77862 5.098-6.77862 1.78 0 2.838.72628 3.56 1.8399h.096v-1.45255h4.425v11.52357c0 2.1305-.721 3.7767-1.828 4.7451-1.154 1.0168-2.79 1.4525-4.665 1.4525-3.56.0484-6.013-1.4041-6.446-4.3576zm8.562-7.166c0-1.64623-.77-3.00195-2.116-3.00195-1.299 0-2.117 1.16205-2.117 3.00195 0 1.7915.818 3.0504 2.117 3.0504 1.298 0 2.116-1.3073 2.116-3.0504z" fill="#453d3d"/></svg>