<svg fill="none" height="19" viewBox="0 0 154 19" width="154" xmlns="http://www.w3.org/2000/svg"><g clip-rule="evenodd" fill="#453d3d" fill-rule="evenodd"><path d="m137.994 13.6345c-.615.5116-1.857 1.5971-2.433 2.1464-.538-.4736-1.656-1.3387-2.347-1.831v-.084c.199-.0664.341-.2487.341-.6943v-5.26032c-.557-.39759-1.603-1.0308-2.198-1.40954l-.47.44186v6.4807l.939.6944s-1.301 1.1129-1.877 1.6622c-.519-.4925-1.294-1.067-1.985-1.5785v-.0629c.199-.0662.341-.2696.341-.7152v-5.51302c-.557-.39759-1.581-1.0308-2.177-1.40954l-.576.48394v6.43862l.939.6944s-1.265 1.0397-1.878 1.6412c-.576-.5116-1.217-.9773-1.985-1.5575v-.0419c.216-.087.342-.3502.342-.6525v-6.33317l-.769-.67309-.597.50498-.235-.25249c.576-.47343 1.607-1.39091 2.433-2.16724l1.75 1.55705v.44186l2.369-1.99891c.749.53019 2.966 1.91475 2.966 1.91475l2.284-1.91475c.73.56811 2.407 1.59474 3.329 2.12516v.08416c-.307.0811-.341.46488-.341.6731v5.70219l.981.7364.577-.5047z"/><path d="m121.519 2.52495c-.615.85216-1.114 1.24143-2.113 1.24143-.673 0-1.148-.30313-1.686-.94686l-.555.52603-.235-.29457 2.412-2.125167c.672 1.344447 1.481 1.533817 2.134 1.514967z"/><path d="m122.138 13.6345c-.673.5679-1.799 1.5448-2.412 2.1464-.577-.5116-1.559-1.2508-2.326-1.831v-.0629c.215-.087.341-.3498.341-.6525v-6.05967l-.768-.67309-.598.50498-.235-.25249c.577-.47343 1.607-1.39091 2.433-2.16724l2.092 1.83058v.08417c-.25.07561-.341.23386-.341.79956v5.8703l1.002.6943.555-.4837z"/><path d="m81.0549 13.6345c-.6723.5679-1.798 1.5448-2.4116 2.1464-.5762-.5116-1.5582-1.2508-2.326-1.831v-.0629c.2156-.087.3412-.3498.3412-.6525v-9.82582l-.7681-.67332-.5978.50499-.2345-.2525c.5762-.47342 1.4788-1.36987 2.3047-2.146201l2.2193 1.830591v.08416c-.2494.07562-.3412.23386-.3412.79957v9.61563l1.0028.6943.5762-.4837z"/><path d="m58.049 13.6345c-.6147.5116-1.8354 1.5971-2.4116 2.1464-.5378-.4736-1.6349-1.3387-2.3263-1.831v-.084c.1999-.0664.3415-.2487.3415-.6943v-5.26032c-.5571-.39759-1.5815-1.0308-2.1769-1.40954-.1216.08898-.4515.3726-.5762.48394v6.43862l.939.6944s-1.286 1.0397-1.8994 1.6412c-.5762-.5116-1.1956-.9773-1.9634-1.5575v-.0419c.2158-.087.3414-.3502.3414-.6525v-6.33317l-.7896-.69414-.5762.50499-.2561-.25249c.5762-.47343 1.6284-1.36987 2.4543-2.1462l1.75 1.55705v.44186l2.3689-1.99891c.7299.56811 2.3861 1.59474 3.308 2.12516v.08416c-.307.0811-.3415.46488-.3415.6731v5.70219l1.0031.7154.5549-.5048z"/><path d="m151.098 14.2239v-3.051c-.365-.1703-.92-.407-1.281-.5894l-2.966 3.0299.085.0211c.451-.242.849-.5473 1.771-.5473.942 0 1.898.6722 2.348 1.1577zm2.902-1.1786c-1.498.644-3.664 1.8069-4.716 2.7356-.538-.5116-1.243-.9889-2.177-.9889-.876 0-1.281.3162-1.281.6099 0 .1828.363.1581.363.4209 0 .1212-.092.2525-.256.2525-.205 0-.469-.2876-.469-.6523 0-.6817.357-1.2723 1.451-2.3987l1.92-1.9777c-.793-.3997-1.939-.9028-2.582-1.17849v-.08416c.187-.05239.32-.24483.32-.46313v-1.61995c0-.17885-.09-.4502-.32-.52604v-.08394c1.613-.56811 3.673-1.71069 4.845-2.52495.262.28779.946.90478 1.686.90478.623 0 .768-.31146.768-.52603 0-.12187-.235-.18937-.235-.37875 0-.16197.09-.23145.214-.23145.183 0 .341.1817.341.52603 0 1.02247-.982 2.37766-2.54 2.37766-1.024 0-1.654-.51551-2.134-1.17831l-.042.02104v2.54577l1.408.67332.641-.65228c.664.41513 2.061 1.14214 2.795 1.45188v.0631c-.144.0598-.341.2229-.341.526v1.7885c0 .2565.207.4274.341.4837z"/><path d="m143.159 9.11063c-.538-.73842-1.496-2.07454-2.092-2.94555l-.064.02104v4.27088zm2.411-1.0731-4.567 2.79847v1.9148c.576.2461 1.861.8648 2.476 1.2624l.982-.9889c.271-.2735.181-.7152.661-.7152.135 0 .235.08.235.231 0 .1616-.113.2381-.192.3161l-2.988 2.9247c-1.018-.6444-3.08-1.5822-4.097-1.9993v-.0838c.164-.0609.362-.1725.362-.5891v-5.32367c0-.43551-.176-.57491-.362-.6102v-.08394c1.536-.4925 3.88-1.72757 4.993-2.5039.769 1.13622 1.768 2.5416 2.497 3.45054z"/><path d="m113.9 13.6345v-9.61563c-.115.00811-.309.02104-.427.02104-.66 0-1.812-.25468-2.561-.4629-2.229.39759-4.823 2.25732-4.823 5.74381 0 2.99028 2.161 4.90308 5.228 4.90308 1.038 0 1.946-.2157 2.583-.5894zm2.667-12.18266c0 1.52505-1.137 2.29766-2.347 2.52495v9.53121c1.556-.8517 1.878-1.788 1.878-2.2301 0-.096-.192-.2271-.192-.4 0-.1344.157-.2521.277-.2521.175 0 .256.1576.256.4419 0 2.2157-2.151 5.1969-6.722 5.1969-3.43 0-6.339-2.6551-6.339-6.0809 0-4.88548 4.162-6.58368 7.043-6.75398-1.056-.22729-2.757-.58916-4.162-.58916-1.632 0-2.966.95738-2.966 1.80955 0 .32175.256.3829.256.61019 0 .12516-.06.27354-.235.27354-.269 0-.362-.27704-.362-.48395 0-1.85601 1.217-4.502819 4.054-4.502819 2.876 0 5.06 1.031019 7.299 1.031019 1.481 0 1.936-.51551 1.878-1.367678l.235.105206c.057.132604.149.567455.149 1.136222z"/><path d="m94.4574 14.2239v-3.051c-.3648-.1703-.9197-.407-1.2801-.5894l-2.9667 3.0299.0854.0211c.4508-.242.8494-.5473 1.7715-.5473.9409 0 1.897.6722 2.3474 1.1577zm2.9027-1.1786c-1.4986.644-3.6648 1.8069-4.7163 2.7356-.5385-.5116-1.2427-.9889-2.1771-.9889-.8764 0-1.2805.3162-1.2805.6099 0 .1828.3626.1581.3626.4209 0 .1212-.0925.2525-.2557.2525-.205 0-.4699-.2876-.4699-.6523 0-.6817.3574-1.2723 1.4516-2.3987l1.9204-1.9777c-.7933-.3997-1.9386-.9028-2.5822-1.17849v-.08416c.1868-.05239.3199-.24483.3199-.46313v-1.61995c0-.17885-.0893-.4502-.3199-.52604v-.08394c1.6135-.56811 3.6728-1.71069 4.8444-2.52495.2627.28779.9461.90478 1.686.90478.6236 0 .7681-.31146.7681-.52603 0-.12187-.2346-.18937-.2346-.37875 0-.16197.0905-.23145.2132-.23145.1843 0 .3417.1817.3417.52603 0 1.02247-.9819 2.37766-2.5394 2.37766-1.0253 0-1.654-.51551-2.1342-1.17831l-.0425.02104v2.54577l1.4081.67332.6403-.65228c.6649.41513 2.0613 1.14214 2.796 1.45188v.0631c-.1443.0598-.3417.2229-.3417.526v1.7885c0 .2565.207.4274.3417.4837z"/><path d="m86.5822 9.11063c-.5375-.73842-1.4957-2.07454-2.0915-2.94555l-.0638.02104v4.27088zm2.3903-1.0731-4.5456 2.79847v1.9148c.5763.2461 1.861.8648 2.4759 1.2624l.9817-.9889c.2712-.2735.1814-.7152.6612-.7152.1347 0 .2136.08.2136.231 0 .1616-.1134.2381-.1923.3161l-2.9665 2.9247c-1.0177-.6444-3.0792-1.5822-4.0974-1.9993v-.0838c.1645-.0609.3417-.1725.3417-.5891v-5.32367c0-.43551-.1547-.57491-.3417-.6102v-.08394c1.5366-.4925 3.88-1.72757 4.994-2.5039.7681 1.13622 1.7456 2.5416 2.4754 3.45054z"/><path d="m73.5642 9.11063c-.5378-.73842-1.4961-2.07454-2.0915-2.94555l-.0427.02104v4.27088zm2.4119-1.0731-4.5461 2.79847v1.9148c.5763.2461 1.861.8648 2.4757 1.2624l.9817-.9889c.2717-.2735.1601-.7152.6402-.7152.1345 0 .2348.08.2348.231 0 .1616-.1131.2381-.1921.3161l-2.9665 2.9247c-1.0179-.6444-3.0796-1.5822-4.0976-1.9993v-.0838c.1645-.0609.3415-.1725.3415-.5891v-5.32367c0-.43551-.1547-.57491-.3415-.6102v-.08394c1.5366-.4925 3.88-1.72757 4.994-2.5039.7683 1.13622 1.7458 2.5416 2.4759 3.45054z"/><path d="m64.1951 13.9499v-5.95424c-.7489-.41666-1.9696-1.25633-2.7957-1.95683l-.0427.02104v6.64903c.7492.3408 1.9828 1.056 2.5397 1.4727zm3.6068.9894c-.0616 2.4044-1.2647 4.0607-3.5427 4.0607-1.7823 0-3.0973-.9046-4.7166-.9046-.9428 0-1.4621.2861-1.7284.61l-.1067-.0629c.096-1.7427 1.3465-2.7145 2.9449-2.7145 1.762 0 3.0439 1.1152 4.9086 1.1152 1.1909 0 1.8056-.6164 1.9208-1.2415l-.0214-.0418c-.2496.151-.5655.3364-1.0457.3364-.9606 0-2.0039-.6545-2.1769-1.8095-.4586.3151-1.4908 1.104-1.9421 1.4941-1.1255-.7171-2.9374-1.6114-3.8199-1.9993v-.0838c.1838-.0596.2988-.2842.2988-.5052v-5.42861c0-.32241-.117-.54861-.3415-.58915v-.08395c1.6324-.58718 3.7326-1.67497 4.8657-2.54599.9824.76625 2.7689 1.84681 3.8202 2.44078v.10521c-.2306.09469-.3415.24636-.3415.75748v5.84943c0 .7507.0682 1.2623.6189 1.2623.0876 0 .2005-.0737.2775-.1681z"/><path d="m41.9575 9.55249-1.9848-5.97548-2.1555 5.97548zm5.762 3.93471-2.5183 2.2937c-.7298-.5116-1.3614-.926-2.2835-1.4941v-.1052c.2091-.075.3179-.2817.3201-.5259.0011-.1074-.0063-.2237-.0427-.3368l-.747-2.3146h-5.1858l-.6829 1.9358c1.0673 0 1.6993.1631 2.2195.3788l.4482-.8206.3201.1683-1.7073 3.1351c-.699-.3921-1.4755-.6943-2.369-.6943-1.0537 0-1.8516.2702-2.2408.6314-.0779.0724-.1952.0531-.1494-.1052.4224-1.4582 1.4845-2.5703 3.1159-2.6727l3.6067-9.8468c-.4035-1.15529-.8474-1.38872-1.75-1.38872-.8457 0-1.6647.38707-1.6647 1.40976 0 .47343.4696.4331.4696.77853 0 .12098-.1139.25249-.2775.25249-.3074 0-.5122-.40417-.5122-1.19935 0-1.79902 1.385-2.861603 2.9025-2.861603 1.3828 0 1.925.52603 2.3476 1.094143.1343-.530195.6785-.776552 1.0882-.841649l.0427.063124c-.2561.313207-.4055.591125-.4055.988935 0 .20669.1552.67507.2134.84165l3.8842 11.06749.7043.4418.5976-.547z"/><path d="m25.9725 14.2239v-3.051c-.3648-.1703-.8981-.407-1.2589-.5894l-2.9879 3.0299.1067.0211c.4506-.242.8492-.5473 1.7714-.5473.941 0 1.8758.6722 2.326 1.1577zm2.9025-1.1786c-1.4982.644-3.643 1.8069-4.695 2.7356-.538-.5116-1.2638-.9889-2.1982-.9889-.8761 0-1.2592.3162-1.2592.6099 0 .1828.3628.1581.3628.4209 0 .1212-.1138.2525-.2774.2525-.205 0-.4695-.2876-.4695-.6523 0-.6817.3786-1.2723 1.4726-2.3987l1.9207-1.9777c-.7932-.3997-1.9605-.9028-2.6037-1.17849v-.08416c.1868-.05239.3415-.24483.3415-.46313v-1.61995c0-.17885-.1112-.4502-.3415-.52604v-.08394c1.6133-.56811 3.6728-1.71069 4.8444-2.52495.2628.28779.9461.90478 1.686.90478.6234 0 .7683-.31146.7683-.52603 0-.12187-.2134-.18937-.2134-.37875 0-.16197.0689-.23145.1921-.23145.1838 0 .3628.1817.3628.52603 0 1.02247-1.0033 2.37766-2.561 2.37766-1.0251 0-1.6538-.51551-2.134-1.17831l-.0427.02104v2.54577l1.4297.67332.6402-.65228c.665.41513 2.0402 1.14214 2.7745 1.45188v.0631c-.1439.0598-.3202.2229-.3202.526v1.7885c0 .2565.1857.4274.3202.4837z"/><path d="m17.1372 14.2449v-6.24924c-.8834-.47364-2.1811-1.42664-2.7958-1.95683l-.0426.02104v6.37503c.845.455 2.1043 1.2441 2.7957 1.8308zm2.9238-1.1996c-1.2847.5175-3.769 1.8074-4.8445 2.7356-1.1334-.8142-2.7898-1.8884-3.8416-2.4831v-.0633c.269-.0945.3415-.288.3415-.61v-4.77613c0-.43923-.1109-.5977-.3415-.67354v-.08394c1.7672-.64395 3.4447-1.55924 4.866-2.52495.9795.71957 2.687 1.77799 3.8201 2.44078v.08417c-.2049.0811-.3414.28822-.3414.60998v4.73403c0 .3413.13.4697.3414.526z"/><path d="m6.63707 12.3931v-8.85818c-1.26028-.13589-1.90298-1.04417-2.32603-1.536l-1.21648.96789c.00667 1.34752.40682 2.52363.87479 3.59805.42817.98214.89657 2.25382.89657 3.13492 0 1.45092-.81321 2.36732-2.75308 4.16612l.06402.0629c1.15246-.8517 2.91182-1.5097 4.46021-1.5357zm4.60983.147-1.81406 3.3037c-.98661-.6781-2.56146-1.0943-3.90532-1.0943-2.6506 0-4.47977.4655-5.420811 1.0522l-.106709-.1262c.840555-.7253 2.24089-1.8909 2.24089-4.5449 0-1.1183-.45863-2.38534-.78965-3.21932-.38304-.96505-.682936-1.47179-.682936-2.81931 0-2.34565 1.277176-3.67037 3.286636-4.671146l.17073.189371c-.69338.568775-1.02863 1.300825-1.13111 2.040995l3.2226-2.65119c.82233 1.13907 1.59063 1.57809 2.60348 1.57809.83144 0 1.06731-.36384 1.06731-.652277 0-.20822-.27744-.237809-.27744-.441865 0-.193535.14161-.252495.25588-.252495.25501 0 .38411.324386.38411.568113 0 1.597374-1.35517 2.777444-2.79551 2.777444-.24988 0-.43884.02739-.59757 0v8.81609c1.24849 0 2.53745.3684 3.47848.8414l.4909-.8414z"/><path d="m113.067 4.86052c0 .13238-.159.23145-.256.23145-.166 0-.307-.31561-.768-.31561-.678 0-1.238.57227-1.238 1.24143 0 1.7611 1.75 2.47322 1.75 4.48181 0 1.6839-1.666 2.6606-3.393 2.8826l-.321-.2314c.947-.1217 1.388-.4437 1.388-1.5786 0-1.5336-1.601-2.78201-1.601-4.58652 0-1.45995 1.386-2.58807 3.287-2.58807.37 0 .738.11157.939.21042.115.05654.213.13874.213.25249z"/></g></svg>