<svg fill="none" height="128" viewBox="0 0 128 128" width="128" xmlns="http://www.w3.org/2000/svg"><path clip-rule="evenodd" d="m121.975 68.224c0-.3627-.32-.7765-.332-1.1904-.013-.4139.298-.9301.324-1.3909.115-2.0395.35-5.2438-1.259-6.6262.099-.1268.224-.2307.367-.3044.143-.0736.3-.1154.461-.1222-.226-1.8859-.363-3.7462-.934-5.7344-.427 0 .038.785-.346.4864-.171-.5675-.452-.5974-.205-.9515.324.128.068.1536.252.4736.601-1.6043-.474-3.7163-1.233-5.7301-.107-.192-.363.1109-.482-.047.358-.2816.281-1.4336-.278-1.3696-.076.2731.687.704-.094.96.171-.9514-1.28-1.8304-.669-2.6794.704.2389.14 1.28.81 1.2373-.213-.8533-.55-1.6555-.653-2.0821-.503.1792.205.7253-.46.8533-.35-.2987-.657-.8533-.448-1.1307.384-.2432.721.5248.9 0-.789-2.688-2.214-4.9024-3.43-7.0357-.76-1.3312-1.327-2.8373-2.134-4.0235-.623-.9045-1.706-1.617-2.351-2.6965-.81-1.3653-2.069-2.4747-2.624-3.7675-.921.0598-.93-1.233-1.706-1.216 0 .7766.827.6955 1.117 1.5318-1.28 1.344-1.314-1.6768-2.56-1.9712-.106-.3968.133-.687.21-1.0283-1.4-1.8091-3.072-2.7179-4.4975-4.4373-.3816-.0329-.7521-.1448-1.088-.3286-12.2795-10.20157-27.3067-14.10557-43.4774-12.5141-.9856.23466-1.6554.42666-2.6794.67413-1.2416.31147-2.8374.1024-3.8912.40533-.6699.18774-1.2203.81494-1.8902 1.00694-.5504.15786-1.2544-.128-1.8005.0512-.4267.13226-.7424.57173-1.1179.74666-1.7706.85334-3.5712.81067-5.3504 1.94564-1.3824.8746-2.9482 1.344-4.3477 2.1546-3.1976 1.9732-6.2273 4.2066-9.0581 6.6774-.2347.2005-.5718.2304-.8278.4266-2.7989 2.2827-4.992 5.3803-7.0485 7.8848-.8789 1.0667-1.9883 1.8859-2.6283 2.7691s-.96 2.112-1.6554 3.1488c-1.6427 2.5003-2.56 4.9877-3.8187 7.3643-.42666.8533-.42666 1.489-.7808 2.24-.14933.3114-.50346.4736-.64.7978-.99413 2.415-1.28 4.7318-1.90293 7.2534-.29013 1.1648-.7424 2.001-.87467 3.2042-.24789 1.794-.40029 3.6-.45653 5.4102 0 2.0864-.42667 4.0277-.13653 6.0032.09813.704-.28587 1.489-.2432 2.1077 0 .3285.3328.6827.38826 1.0112.0896.5504-.18346 1.1691-.13653 1.7408.08533.9557.59307 2.0224.74667 3.1019.26026 1.8901.34133 3.8954.85333 5.3162.35413.9686.5504 1.3483.35413 2.0907.99414 1.7067 1.32694 3.7632 2.0096 5.4656 2.3979 5.9733 5.9733 11.2213 9.6171 16.2988 3.7077 3.567 7.2874 7.548 11.3664 9.894 2.9568 2.987 6.5749 3.802 9.7621 6.038 1.7067.136 3.0592 1.45 4.7787 1.553 1.7066 1.339 3.9594.887 5.696 2.133.3726-.099.7643-.1 1.1378-.005.3734.096.7161.285.9955.551 2.7392-.316 4.9749 1.016 7.7568.572 2.6112.973 5.9221-.363 8.6443.247 3.4858-.887 7.3898-.542 11.0933-1.979.3072-.12.5973-.495.8832-.623.6741-.299 1.5147-.231 2.2101-.427 1.1406-.294 2.254-.685 3.328-1.169 3.7334-1.805 7.7739-3.601 11.1744-6.123 7.4415-5.487 13.2015-11.614 16.8275-18.5597 2.613-3.5945 4.468-7.6821 5.453-12.015 1.634-2.7434 1.114-6.1354 2.522-8.96-.231-.4992.128-.8192-.278-1.3738.73-.8534.384-1.8048.465-2.8331.039-.4864.329-.9131.32-1.3824zm-110.7751 1.536c-.0234.19.0253.3818.1366.5376-.1501.0964-.3215.1546-.4993.1695-.1777.0148-.3564-.014-.5205-.0842.0768-.4096.7083-.1578.8832-.6229zm-2.0693 7.7952c-.42666.2005-.99413-.1493-.91306-.576.42666-.2645.67413.1664 1.07946.0341.19627.256-.576.2134-.1664.5419zm.42667-10.5685c-.1408.1194.05973.3456.13653.5333-.31573.2859-.36266-.3285-.7168.0811-.37546-.7382.48214-1.2374.8832-.623-.1024.0086-.17493-.0597-.2944.0086zm1.44213 6.4c.1408-.128-.1024-.2134-.2432-.175-.0981-.1792.5888-.2389.7723-.2602.081.1578.1664.3157.2517.4736-.8021.3541-1.1904.4565-1.86026-.0683.21336-.5675.65706.2261 1.07946.0299zm.8533 11.5584c-.3456-.5334-.3498-.5078-.7509-1.1222l.3584-.1877c-.5333-.2816-.7211-.9259-1.4165-1.2203-.12803-.5461.6528-.4949.8917-.3285.0981.96 1.4379 1.6299.9131 2.8203zm.9472 4.3306c-.2389-.401-.5674-.8533.0982-.96.1061.1435.1548.3215.1366.499-.0181.1776-.1018.3419-.2348.461zm104.2691-47.3173c.175.4011-.627.6955-.828.4267-.06-.2774.666-.4864.828-.4267zm-1.366-1.7067c.175.0888.308.2418.372.4267-.054.1031-.128.1942-.219.2675-.09.0734-.194.1276-.306.1592-.047-.0658-.08-.1403-.098-.2191-.018-.0789-.019-.1604-.005-.24.014-.0795.044-.1553.088-.223s.102-.126.168-.1713zm1.28 31.407c-.217.0981-.17.2773-.426.3712.132.0527.244.1461.32.2667s.112.2621.103.4043c-.01.1422-.064.2778-.155.3872-.092.1094-.215.187-.354.2218.081-.4054-.704-1.0752-.093-1.3184-.146-.3968-.453-.2432-.781-.0384.098-.4992.486-.9088.426-1.455.252-.0682.427.0982.721-.0768 0 .2646-.23.4566-.584.6144.256.2731.572.32.806.6443zm.154 3.4133c-.107.3627-.636.4267-.947.5077-.401-.6101.636-1.088.93-.4864zm-4.582-9.7152c.26-.2005.375.0811.657-.1963.217.4608-.32.6955-.512 1.0326-.235-.3286.055-.4864-.162-.8363zm.669 9.2203c.325 1.4336-.96.2432-1.476.9429-.081-.1579-.166-.3157-.252-.4736.15-.0555.197-.1408.175-.2475.679-.3882 1.041.3499 1.536-.2218zm-.307-.2902c.028-.1463.003-.2978-.072-.4266.405.1578.401-.704.947-.5035.158.5291-.38 1.1819-.892.9301zm.576-7.1552c.427-.3754.653 0 .854.4566-.145.0554-.197.1408-.171.2474-.555.0854-.316-.5162-.683-.704zm.76 5.9734c.175.3754.635.5205.503.9472.619.1408.58-.8192 1.186-.6315-.132 1.6128-2.846 1.0752-1.694-.3115zm.785-4.2198c.286.4267.277.7467-.094.9643-.218-.3925-.427-.7851.09-.96zm-.632-30.2208c-.098-.4608-.853-1.0282-.768-1.7066.828.2218 1.225 1.4976.764 1.7109zm-2.517 13.5083c.474-.768 1.331-1.7067 2.415-1.7451 0-.3072-.286-.4992.158-.8533.7-.2133.712.2133 1.096.6315-.635.6058-1.425 1.28-2.248 1.1989-.209.4651-.794.8149-.986 1.28.316.1195.295-.2091.644-.4949.372.1962.026.465.483.0469.106.1963.213.3925.315.5931.269-.1195-.17-.4523-.196-.6571.427-.2347.853-.3797 1.08.0299-.76.465-.278 1.3056.059 2.0992-.149.2858-.618.4736-.823.7424-.346-.3499-1.037-.495-.747-1.1179-.427-.2517-.427.4565-.768.5589-.141-.401-.473-.1749-.725-.2218-.444-.8662.853-1.4464.239-2.0864zm-.585 9.4336c.525-.3627.679.4992.743.8192l-.593.3157c-.094-.3882-.418-.849-.154-1.1306zm-5.491 21.632c-.162 0-.269-.2091-.482-.0469.024-.19-.025-.3819-.136-.5376.26-.2006.375.0768.657-.1963-.205-.0939-.346-.384-.61-.2859 0-.4266.58 0 .853-.1408.35.5376-.367.7424-.282 1.2075zm-.921-9.6939c-.256-.3456.222-.465-.141-.8533.226 0 .508-.1493.606.2859.2-.2646.563-1.28 1.062-.5675-.294.8533-.687 1.1904-1.519 1.1349zm-.175 13.6235c-.555 0-.563.3157-.883.6229-.252-.3413.051-.512.401-.6698-.218-.623-.956.3584-.999.6869-.26.2005-.375-.0811-.657.1963-.256 0 .516-.495.158-.8534.636-.1706.303-.6357.939-.8064-.29-.2858-.453.2006-.598 0-.256-.3413.047-.512.401-.6698-.426-.175-.072-.6742-.379-.7083.337-.4523.853-.4608 1.429-.4608.154.1365.188.6869.427.5291.038.3072-.427.4693-.521.7338.107.4267.427.0555.555.4651.004.3541-.423.5547-.265.9344zm-1.779 2.9269c.29-.4266.644-.2389 1.015-.0896.154.5163-.87.6998-1.007.0896zm1.096.6315c.273.512-.145.8149-.427 1.152-.012-.4309-.183-.9131.436-1.152zm.521 1.5445c.392-.0298.328.6187.426.8278-.566.1902-1.143.3455-1.728.465-.136-.8277 1.174-.6058 1.31-1.2928zm-2.206-10.6666c-.427.145-.764-.1024-1.255.2133-.183-.0725 1.067-1.2971 1.263-.2261zm-2.4707 13.0261c-.8192.3371-1.9541.1877-1.5232-.8533.8534-.5632 1.408-.2774 2.0909-.3542.247.7254-.9474.4438-.5591 1.1947zm-4.1898.4267c-.3499.8832-1.7067.0469-1.28-.6827.5333-.1237.704.9515 1.2885.6528zm-60.608 14.8609c.3626-.103.5034.508.9088.273.1536.38-.4267.853-.8235.742l-.1877-.354c.4565-.072.2986-.371.1024-.661zm-6.1782-4.455c.5376-.068.0512-.448.4651-.554.0486.013.0939.036.1333.067.0393.031.0718.071.0954.115s.0379.093.0418.143c.004.05-.0024.101-.0188.148.0662-.034.1304-.073.192-.115.0598.098.1195.184.1792.278-.142-.01-.2846-.01-.4266 0-.0555.311.0725.682-.4566.853-.209-.341.192-.516-.2048-.935zm74.3767-67.6945c-.359.3115-.572.1323-.853.1408.277-.273.392-.9216.755-.8533.196.2773.03.4565.098.7125zm-.495 1.6342c-.35.2688-.614.2816-.853.1408-.124-.2688.162-.4267.465-.5547.115.2219.294.1749.388.4139zm-.384 1.5573c0 .3541-.747.5333-.892.32.007-.291.061-.5791.158-.8533.384-.2518.414.6314.734.5333zm-1.408-5.4827c-.111.0299-.085.1024-.056.1792-.209-.0682-.064-.8533.512-1.0325.402.2859.218.4651.508.9472-.409.2688-.597-.1579-.96-.0811zm7.432 28.719c.141.192.346.1578.602 0l.316.593c-.252.3158-.359.5206-.768.559-.329-.5675-.324-.6486-.696-1.3014.346-.192.299-.5034.342-.7893.32-.1109.379.4949-.047.4821.008.2603.567.2006.256.4694zm-3.665 17.617c.026.1067-.055.1792 0 .2987l-.239.128c-.298-.1451-.678-1.4421.086-1.28.013.3968-.499.8149.158.8661zm-.196-9.4762c.028-.1464.002-.2979-.072-.4267.605-.0597.618-.1152 1.245-.512.291.7296-.721 1.0069-1.169.9515zm-.934-4.4971c.051-.2347.102-.4693.158-.704.077-.0257.151-.0631.217-.1109.337.0896 0 .5248.546.1664.09.5077-.499.4821-.921.6485zm-.487 4.9707-.32-.5931.593-.3157c-.192.273.295.7509-.273.9088zm-65.2114 35.2553c.4836-.171.9566-.37 1.4165-.597-.0682.205-.1749.397-.2389.601-.5973.056-.7296-.153-1.3056.393.0801-.117.1246-.255.128-.397zm62.9674-13.8367c.166.3158.508.0555.67.4011-.085.3157-.452.1067-.828.4267-.188-.0427-.273-.4267-.546-.1664-.2261-.5547.58-.1963.704-.6614zm2.261-13.9818c.2.3055.333.6503.389 1.0112-.619.3328-1.225-.7382-.389-1.0112zm2.705-13.1499c-.221-.3413.137-.6656-.26-.7723-.478.1835.056.6742-.636.7936-.337-.5162-.699-.7381-.332-1.1904-.111-.2517-.427.1238-.619.1878v-.0427c.038-.1664.055-.3285.081-.4907.631-.4085 1.198-.9089 1.681-1.4848.145.1963 0 .303-.055.1835-.188.2133.29.9685.559.7637.162-.1834-.073-.3114-.244-.1749 1.199-.6357-.554-1.6768.116-2.3424.294-.2005.426.0853.61.2859.478-.2518.768-.559.512-1.0368.17-.0768.345-.1579.29-.3072.145-.047.128.0853.064.1194.461.0598 1.25-.3498.798.64-.042.0399-.094.0678-.151.0811-.056.0133-.115.0113-.171-.0056-.055-.0169-.105-.0482-.145-.0906-.039-.0425-.067-.0947-.079-.1513-.261.1835 0 .5291-.401.6699.298.0811.426-.3456.725.2219-.333.1962-.811.3498-.883.6229.315.2706.518.6497.567 1.0624-.324.3072-.371-.3029-.661-.0981-1.319.9045.896 2.4448-1.366 2.5557zm1.81 15.9104c-.278.2987-.346 1.0112-.875.9216-.175-.448.435-.6613.875-.9216zm-.082-.7168c-.401.0811.184-.3243-.132-.5376.282-.2773.397 0 .657-.1963.431.6102-.576.4096-.525.7339zm1.438-11.2597c-.119.5461-.657.4266-.81 1.041-.7-.3114.204-1.3994.81-1.041zm-.337 14.1696c.103.0554.194.1307.267.2216.073.0908.128.1953.16.3074-.219.1779-.495.2704-.777.2603.056-.2859.03-.5973.35-.7893zm1.447 2.4192c.127.0982.231.2232.305.3663.074.143.115.3006.121.4614-.234.1644-.524.2294-.806.1806-.283-.0488-.534-.2073-.7-.4409.132-.1632.296-.2978.481-.3954.186-.0976.39-.1562.599-.172zm.324-39.2534c-.23.2475-.853-.2944-.593.3158-.108.0106-.217.0106-.324 0 .078-.3932.111-.794.098-1.1947.379.0555.879-.2987 1.28-.2816.064.1152.128.2347.187.3541-.179.512-.925.2262-.648.815zm-.294-17.6341c.704 0 1.28 1.0027.64 1.4848-.431-.3456-.914-1.2331-.64-1.4763zm-1.942-3.0677c.312.5034 2.04 1.681 1.814 2.833-.389.1494-1.114-.7936-.747-1.1221-.384-.2347-1.694-1.216-1.067-1.7024zm-1.058-1.4123.427.8533c-.525-.2346-.764-.3669-1.28-.0896-.389-.6741.456-.7552.853-.7552zm-2.56 5.4699c.482.3882 1.229.081 1.728-.4651-.427.7595-1.28 1.152-1.937 1.4891-.294-.4395.38-.6016.213-1.0155zm-1.335-9.6214c.106.4267.388.239.495.6443-.47.3797-1.327-.3541-.491-.6357zm-1.511 8.559c.086.6912.427.7978.854 1.0538-.338.3883-.649.8534-1.127.4523.051-.1835.107-.3627.167-.5461-.163-.2219-.427-.064-.666-.1024-.201-.256.081-.3712-.196-.6528.132-.1129.29-.1901.461-.2245.17-.0343.346-.0246.511.0282zm-2.7134-.5291c0 .7808-.8533 1.2544-1.1605 1.5317-.6102-.4394.5546-2.0224 1.1648-1.5232zm-1.0368-2.7904.3797.7083c-.5333.4522-.5546-.7808-1.088-.3286-.0981-.5973.3328.0128.7126-.3712zm-.2389 8.96c.3669.7936.721.6699 1.3482 1.1008-.9472.4011-1.233-.3755-1.8688-.3669-.0298-.3158.0726-.5803.5248-.7382zm-1.7494-13.8155c.3115-.1664.6486-.4053.8875-.3242.4267.7253-.4523 1.0538-.8533 1.5232-.1017-.3936-.1119-.8051-.0299-1.2032zm-.0554 4.7446c.32.2602.2944.4864.3242.8917-.32.2987-.5034.1365-.7168.0768.1451-.3243-.1109-.7637.3968-.9728zm-11.4475-13.1968c.1707.6229-.9643.512-1.1349.1493.3413.064.8234-.32 1.1349-.1493zm-.5547-.4651c-.6314.4267-.4949.7936-1.3568.8747-.2944-.8406.8576-.943 1.3568-.8747zm-5.713 8.3712c.4522.2944.2261.5589.3882 1.0112-.2645.1621-.4266.0384-.6656.0725.072-.3661.1646-.728.2774-1.0837zm-5.1542-1.9584c.1835.448.2091.8533-.1493 1.1435-.4907-.1622-.2005-.6443-.384-1.0112.188.0232.378-.0239.5333-.1323zm-3.3578 2.2485c-.0597.1334-.1637.242-.2944.3072 0-.3626.5205-.5674.7594-.8533.3328.0896.064.3499.3798.7083-.32.0597-.5291-.2304-.8448-.1622zm.768-7.0997c-.0578.2109-.1655.4047-.314.5651-.1486.1604-.3336.2827-.5394.3565.2091-.6997.1579-1.2117-.2858-1.6725l.4736-.2518c.3285.5248.1536.879.6656 1.0027zm-1.4592-3.0208c.2773.1749.4864.5675.8533.4565.1877.3542-.0896.5675.0256.9003-.1124-.1913-.2725-.35-.4648-.4607-.1922-.1107-.4099-.1696-.6317-.1708.0426-.2517-.1835-.5845.2176-.7253zm-4.4459 6.4768c.1707.2005.4267.1621.5504.4651-.4779.2304.1365.1621-.0469.4821-.4822-.0384-.8918-.32-1.4422-.1408.0171-.5035.4224-.3755.9387-.8064zm-11.2725 2.5259c-.1622-.3456-.495-.1195-.7254-.2219-.1962-.4864.4822-.7125.8107-1.0411.0829.0858.1468.188.1878.3.0409.1121.0579.2314.0499.3504-.0081.119-.041.235-.0966.3405s-.1328.1982-.2264.2721zm-.256-2.7648c-.2006.1322-.3243 0-.5334.1365-.075-.0901-.1314-.1942-.1659-.3062-.0344-.1121-.0462-.2299-.0346-.3466-.2219.0597-.1707.2091-.1067.3627-.6186.2218-.1365-.623-.4266-.5291.2432-.5589 1.361.1408 1.2672.6827zm-2.6624 1.28c.1792-.4011.6528 0 .7637-.5632.1024.5333.1365.6442.5504.465.2517.3414-.0512.512-.4011.6699-.2858-.5163-.4821-.1749-1.0794-.0299-.1451-.1877.5888-.5888.1664-.5418zm-9.0283 13.0218c.3413-.256.4608.2219.8533-.1408 0 .4907-.6016.5846-1.0026.687-.1067-.2304.3456-.2902.1493-.5462zm-.7637-1.7066c.2816.3584.5589.2218.5589.768-.3528.2946-.7878.4734-1.2459.512l-.192-.3542c.6742-.2133.4011-.6912.896-.9386zm-1.0752 2.56c.1124.0819.2049.1881.2707.3108.0657.1226.103.2584.109.3974-.1533.086-.3231.1384-.4981.1539-.1751.0154-.3514-.0065-.5174-.0643-.0128-.3626.2176-.6229.6528-.8192zm-1.7067-3.7931c.2133.64.5888.3328.9856.9899-.2219.1024-.1707.2816-.4267.3754-.2048-.529-1.105-.9045-.5546-1.3866zm-.7211 2.0352c-.4778-.1536-.2816.3371-.6485.4992-.4267-.3029-.768-.4267-.8533-1.0581.5376.0298 1.1477-.128 1.5018.5589zm-2.3765-1.3141c.5077-.1323.3413.4266.5632.7637-.3456.256-.4864-.1493-.7851-.0384-.256-.3413.5675-.3584.2219-.7253zm-5.3035 8.6016c.5206-.047.2475.8533.9131.576.0469.4266.3328.96-.2645 1.2074-.2558-.3754-.4315-.7995-.5163-1.2458-.256.1834-.3627.4906-.7083.3754.028-.1463.0023-.2978-.0725-.4266.3072-.0768.8021-.0598.6485-.4864zm-3.1744-7.1126-.192-.3456c.2304 0 .4267.1622.5547.4651-.0435.1171-.1297.2134-.2413.2696s-.2403.0681-.3603.0333c-.1877-.3157-.0256-.4992.2389-.4224zm-.1877 22.144c-.5589.1366-.6656.6742-1.0624.5675.1323-.5461-.2475-.6571-.3328-1.1904.4907.1536 1.0496.0256 1.3952.6229zm-.6315 9.9371c-.4778.2048-.8533.0213-.8533-.4565.3541-.0982.9515.0298.8533.4565zm-.1536-21.3333c.1536.576-.7978.8149-.4266 1.4506-.512.111-.1835.4736-.5846.6144-.1066-.1962-.2133-.3925-.3157-.5888.9045-.3882-.8789-.7338-.0341-1.1989-.5035 0-.1835-.3029-.3798-.7125.6912-.2859 1.0624.5546 1.7408.3925zm-1.0794 4.5269c-.0895.0758-.1937.1324-.306.1661-.1123.0338-.2304.0441-.3468.0302-.1323-.5376-.32-.7808-.2134-1.2502.5718.0854.5462.367.8662 1.0112zm-3.951-10.8544c.4267-.2133.687.1365.9174.576-.559.4267-.7382-.3968-1.3184.0939 0-.1451.0298-.2902-.1238-.239.0384-.4608.6315.175.5248-.4309zm.0427 57.2971c-.3456.145-.4011-.6443-.7893-.3414l-.192-.3541.593-.3157c.5206.3157.0896.5162.3883 1.0112zm-.8533-47.7355.3797.7083c-.3157.2816-.4011-.2006-.7168.081-.0424-.0711-.0676-.1511-.0738-.2337-.0061-.0826.0071-.1654.0386-.242s.0803-.1448.1427-.1992c.0624-.0545.1366-.0936.2168-.1144zm-2.1334.5376c.2759-.0895.5634-.1384.8534-.1451.4266.5547-.6144.6742-.2688 1.2075-.3158.2816-.4566 0-.7723.2603-.0128-.4523.3627-.8064.1664-1.3227zm.2134 48.2133c-.2432-.064-.3926-.4522-.559-.7637l.7083-.3797c.384.5376.2389.896-.1877 1.1605zm.6698-44.2965c-.2176-.3285.0726-.5035-.1408-.8533.175-.0384.2987.1109.4779.0469.3243.2773-.3328.7424.0811.7211.0938.4096-.303-.0512-.4395.1024zm1.1904 44.3733c-.059.1387-.0647.2943-.0159.4369.0489.1426.1488.2621.2805.3354-.367 0-.6486-.2645-.9728-.3968-.111-.2773.5589-.4139.6869-.3627zm.32 5.1499c-.3541-.0939-.4266-1.1093-.7338-.5205-.2262-.4267 1.28-.8747 1.3184-.0939-.3328.1792-.7552.32-.6059.6272zm.6955-.9771c-.512-.1706.2219-.5162-.2048-.9557.2261 0 .4651-.0213.6059.2816-.3286.1835-.0768.5248-.4224.6869zm1.0965.6272c-.2645 0-.4266-.3285-.7253-.2176.0261-.1463.0005-.2972-.0725-.4266.2176.0384.4992-.1195.7168-.0811.2645.3413-.2219.4224.0597.7381zm.0384-43.1957c-.4053.2432-.8874-.2517-.7978-.64.2901.1365.6912-.0939 1.0197-.0896-.1664.2347-.0512.5333-.2432.7424zm1.4592 45.4362c-.4089-.056-.8127-.145-1.2074-.265 0-.23-.0214-.469.2858-.61.0416.064.0978.117.164.155.0661.038.1404.06.2166.064.0762.003.1523-.011.2219-.042.0695-.032.1307-.079.1783-.139.2902.376.1152.585.1195.849zm.8918-62.3493c.0341.4267.0298.8534-.4267 1.152-.0555-.145-.1365-.1962-.2432-.1706-.0234-.1087-.0245-.221-.0031-.3301.0213-.109.0646-.2126.1273-.3045.0627-.0918.1434-.1698.2372-.2295.0938-.0596.1987-.0995.3085-.1173zm-.704 65.5953c.3584-.098.5589.338.9642.094.2902-.187-.273-.115-.256-.469.296-.063.6012-.072.9003-.026-.1152.12-1.5488 1.626-1.6085.401zm2.4106-1.442c-.384.175-.5674-.298-1.0154.086.0944-.271.207-.534.337-.79-.209-.392-.5973-.196-.7978-.64.7125-.597.8064.854 1.5104.261.0512.149.1365.196.2432.175.2304.396-.5035.503-.2774.908zm.768-.563c-.2397-.298-.5283-.553-.8533-.755.2858-.01.5717.01.8533.06.1067.085.2219.158.3328.234-.1664.137-.4053.252-.3242.461zm.5462-69.3033c.3882.1194.4266.6314.3242.8917-.2901-.064-.9216-.6613-.3242-.8917zm1.1178 72.9813c-.2303-.166-.4369-.363-.6144-.585.1494-.055.1963-.136.175-.243.4266.299.5589.034 1.0154-.089-.1024.345.1835.179.3158.593-.4992.115-.4438-.09-.8918.324zm.9643.094c.4267.068 1.024-.542 1.3739-.277.0163-.142.0163-.285 0-.427.1024.136.209.269.3157.392-.0473.028-.0973.051-.1493.069.4266.294.0938.426-.0384.78-.3798.056-.7467.064-1.135.15-.0074-.133-.0423-.262-.1026-.381-.0602-.118-.1444-.222-.2472-.306zm1.5232.853c.1692.039.3186.138.4212.278s.1514.313.1377.486c.0106-.2.065-.395.1594-.571s.2264-.329.3868-.449l.1194.09c-.0827.137-.1317.291-.1428.451-.0111.159.0159.319.0788.466-.7466.388-.6186.785-1.4762.939-.9131-.704-.4907-1.263.3157-1.686zm2.3552 5.005c-.7424.661-1.4805.03-1.7067-.614.2176-.231.7211.175.4907.345.1579.252.2133-.316.5888-.316-.0248-.113-.0792-.217-.1577-.302s-.1783-.148-.289-.182-.2285-.038-.3412-.011-.2163.083-.3001.163c-.0758-.09-.1324-.194-.1661-.306-.0338-.113-.0441-.231-.0302-.347.1963.145.7382.427.3542-.192.3157-.282.3626.333.7168-.077.1237.235-.2432.32 0 .597.2432.278.2133-.311.593-.315l.4267.827c-.0622.034-.1166.08-.1598.136s-.0743.121-.0911.19c-.0169.068-.0192.14-.0069.209.0124.07.0391.136.0786.195zm.8832-.627c-.0309-.084-.0915-.153-.1702-.195-.0787-.041-.17-.053-.2565-.031.0261-.147.0005-.298-.0725-.427.1877-.132.4267.038.3541-.192.3115-.038.623.764.1451.823zm.7381.819c.0276-.188-.0199-.38-.1322-.533.384-.184.2261-.525.6997-.679.3755.239-.0512.427.4267.828-.5035.286-.5035.439-.9942.363zm.4267.529c.3371-.021.7552-.303 1.0752-.269.2731.282 0 .397.1963.657-.3791.156-.7209.39-1.0027.687-.0939-.473-.3413-.576-.2603-1.096zm1.6683 1.707c-.1622 0-.2688-.209-.4822-.047-.1834-.222-.0853-.359-.1365-.538.2859-.175.4651 0 .7211-.081-.0256.192-.1878.371-.0939.636zm-.2006-5.214c-.4703-.29-.8179-.742-.977-1.272.6983-.034 1.3894-.157 2.0565-.367-.2432.585-1.5189 1.135-1.0709 1.609zm1.28 3.264c.0237-.146-.0018-.297-.0725-.427.3243-.205.6357-.358.7808.039-.2389.162-.3499.469-.6912.358zm1.1563-.781c-.1327-.059-.242-.161-.3108-.289-.0687-.128-.0929-.276-.0689-.419.3541-.15.4522-.128.8533.158-.0469.226-.192.426-.4736.55zm.2133-1.024c-.3968-.427.0811-.623-.4522-1.131-.2091.137.1408.427 0 .602-.3499.06-.7168.183-.9088-.277.6826-.64.8533-.406 1.664-.585.0512.824.6442.346.9344 1.173-.5547.508-.8022.018-1.2587.218zm1.7067 1.51c-.3243.308-.4267-.174-.6613-.102-.0854-.222.0597-.375.3456-.486.1621.286.4096.247.3072.588zm3.5371 4.348c-.1451-.196 0-.303.0554-.183.1408-.124-.0597-.35-.1365-.538.061-.038.1295-.062.2007-.072.0713-.009.1437-.003.2124.018s.1321.057.186.104c.0538.048.0969.106.1262.172-.2048.235-.2773.623-.6528.499zm1.7962-4.911c-.401.145-.0725.508-.5845.619-.5547-.184-.5376-.742-.6955-1.301.2576.062.5275.053.7799-.029.2523-.081.4771-.231.6495-.432.0434.096.1117.18.1979.241.0863.062.1873.099.2927.109.1451.307-.273.426-.5845.614.2176.149.5077.064.8533-.145.303.704-.6954.61-.9088.324zm37.4102 1.157c-.3499.192-.6955-.333-.6144-.585l.3242-.192c.073.028.1389.072.1933.128s.096.124.122.197c.0259.074.0356.153.0283.231-.0073.077-.0313.153-.0705.221zm3.136-1.524c-.0939-.524-.1238-1.028-.2176-1.553.704-.149.721 1.191.2048 1.553zm.4522 3.414c-1.2117.149-.128-.585-.448-1.131.2176-.183.3542-.085.5376-.132.3542.537-.3413.755-.1066 1.258zm.9942 1.28c-.0683-.256.0981-.427-.0768-.721.384-.081.2176-.329.529-.427 0 .264-.1706.474.1408.853zm.7338-4.041c-.0127-.056-.0403-.109-.0797-.151-.0395-.043-.0895-.074-.145-.091s-.1144-.019-.1709-.005c-.0564.013-.1084.041-.1505.081-.128-.205 0-.329-.1323-.538.3538-.108.7332-.096 1.0795.034.2176.337-.2731.457-.4181.679zm2.1334-4.8c-.1707-.478-.2304-.926.2688-1.207.0341.452.0981.9-.2688 1.216zm1.1392 4.412c-.3499-.469.7082-1.348.9472-.508-.5547.235-.5035.487-.9472.516zm.6314-9.916c-.081-.158-.1664-.316-.2517-.473.5461-.325 1.024-.427 1.4123-1.059-.111.717.3072.683.6954 1.302-.5333.99-1.1264-.367-1.856.239zm2.8502 1.063c-.4267.076-.8534.136-1.2544.213-.0163-.387.0342-.774.1493-1.144.4864-.401.6571.235 1.0795.03-.014.118-.0033.237.0312.35s.0922.218.1693.307c-.2176-.047-.2987.034-.1621.252zm2.6453-8.713c-.5163.1749-.9984.8533-1.472.9387-.3797-.7211.9259-1.8134 1.472-.9302zm-1.0325 1.7664c.0512-.1493-.1024-.3584.0469-.4779.3371-.128.5675.0982.7893.3371-.3754.3712-.4949-.1067-.8362.1493zm.96 11.8056-.3158-.593c.5376.154.2603-.503.8832-.623.4182.572-.2432.845-.5674 1.216zm2.7047-2.056c-.324.2.154.644-.337.793-.128-.204 0-.328-.136-.537-.094.269 0 .601-.5208.734-.2065-.114-.3599-.304-.4267-.529.4864-.15.4011-.474.8835-.623-.239-.291-.5592-.337-.7981-.64-.1963.17-.0299.452-.4651.554-.3797-.111-.2133-.486-.2603-.776.1171.012.2356.002.3484-.032s.2178-.09.3087-.165c.1743.089.3074.242.3712.427.5762-.277.2132-.947.8742-.921.026.337-.401.537-.277.904.636-.183 1.144.085 1.225.853-.346.295-.508-.038-.773-.042zm.546-22.0333c-.388-.3072-.588-.9942-.093-1.3184.089.2757.137.5634.14.8533.401-.2645.12-.4821.649-.4992-.273-.512-.824-.1237-1.097-.6315.713.2134 1.033-.081 1.792-.3456.231.4267-.426.7083.261.7723-.205.5291-.896.4267-.935 1.1051-.038-.7339-.286-.1494-.699.064zm1.101 18.5723c-.426 0-.392-.704-.324-.891.162-.051.243.17.128.234.153.057.317.073.478.047.115.261-.367.363-.265.61zm1.31-.396c-.427-.222-1.062-.389-1.16-.751-.017-.589 2.658-.627 1.177.751zm.201-5.8841c-.175-.5504.606-.8064.14-1.4464.397.111.888-.0896 1.097.6315-.486.1284-.915.4152-1.22.8149zm.635-5.3589c-.217-.3968 0-.6613.094-.96.342-.1493.508.2944.79.3371-.047.2901-.5.721-.867.6229zm.854-1.8219c-.06-.3541-.184-.7168-.674-.401-.022-.6614 1.207-.1536 1.51.2602-.222-.0853-.58.2219-.819.128zm.098-5.2224c.145-.5632.909-.4266 1.024.2134-.478.4352-.64-.2304-1.007-.2134zm1.054 10.24c.554-.1322.81-.2517 1.002-.6869.099.2219.278.1707.372.4267-.453.1578-.069.5717-.521.7338.111.5078.542-.0512.67.4011-.606.5803-.768-.2901-1.318.0981.132-.2901-.299-.721-.175-.9813zm.358 2.0907c-.32-.4267.572-.4864.094-.9643.213-.0092.425.0259.623.103.198.0772.378.1946.529.345-.077.623-.811.623-1.229.5078zm1.549-7.0613c-.427.1578-.614-.5846-1.144-.1494.09-.4266.478-.7808.205-1.3269.139-.006.275-.0433.398-.109.122-.0658.229-.1583.311-.2707.166.5418.042 1.3184.75 1.1221.163.5333-.571.2005-.503.7253zm.324.8917c.068-.5248.662-.0299 1.011-.3883.397.687-.516.7467-.759.8534-.021-.1366.277-.7723-.235-.4736zm2.21 4.1387c-.264-.2347-1.036-.4822-1.143-.1494-.184.064-.231-.3328-.427-.2304.235-.5674 1.088.3371 1.43-.4565.209.2859.554.128.678.704-.388.0256-.64-.6315-.521.1237zm.308-13.0859c.055-.3157 0-.6656.46-.8533.064.2218.209.1749.363.1109-.017.2014-.11.3889-.259.525-.15.1361-.345.2107-.547.2089zm.029-3.3621c-.157-.4822.035-.9131.576-.9174-.102.5334.329.7766.333 1.1904-.414-.3712-.397-.512-.892-.2816zm1.571.3754c.139.2993.21.6257.209.9558-.09.0763-.195.1332-.308.167s-.232.0437-.349.0292c-.363-.5504.264-.7893.465-1.1605zm-.346 8.704c-.043-.5077-.128-1.0325.141-1.4464.457.2045.871.4941 1.22.8534-.508.401-.883.3114-1.361.593zm1.668-4.8469c-.192-.3499-.631-.3883-.985-.9899.554-.1749 1.8.4352.985.9899zm.598-2.2955c-.295-.4992-.086-.6314-.393-1.3098.563.0682.277-.559.828-.4267.26-.4267-.29-.6613-.209-.9557.529-.2944.14.384.499.6485.461-.2261.128-.6912.213-1.0283.738 0 .555 1.0667-.085 1.28.196.2475.691.0384.55.4651-.601-.0384-.721.3627-1.31.3968.099.2176.278.1707.372.4267-.538.0213-.052.3968-.465.5034zm1.454.4267c-.244-.603-.038-1.0681.619-1.3952.213.0683.359.3456.499.6485-.217.303-.635.8576-1.118.7808zm1.536-14.1995c.024-.1899-.025-.3816-.136-.5376-.725.2091-.427.7254-1.173.9344-.076-.3054-.222-.5888-.427-.8277.516-.2091.853-.4651.572-.9173.091-.0749.196-.1308.308-.1645.113-.0337.232-.0445.349-.0318.064.3797-.529 0-.529.4267.473.3712 1.344-.8022 1.382.0213.273.1493.474-.4907.725.2219-1.024.0042-.273.4394-1.071.8874z" fill="#699e3d" fill-rule="evenodd"/><path d="m98.6111 56.4651-68.2112-6.9802 1.0837-10.5984 1.7579-2.5174 3.5925-.529 59.183 6.0544 3.3664 1.6938.3072 6.3232z" fill="#fff"/><path d="m90.7092 99.2939-6.2762-.8192-8.1579-.6613-7.0656-.5333-3.8656-.5888-16.4821-1.5147-6.2336-.6357-2.927-.4736-10.24-1.0496c-1.2916-.1347-2.4774-.7754-3.2978-1.7821s-1.2086-2.2974-1.0798-3.5897l.4864-6.7072.6571-4.4416.4565-7.4282 1.0496-10.1419.3926-2.3637.977-8.0299.3371-5.5125.6187-3.9467c.1325-1.2893.7703-2.4737 1.7737-3.294 1.0035-.8204 2.291-1.21 3.5809-1.0836l16.1067 1.6469 3.84.2347 6.1099.7851 5.9221.3584 3.7845.6357 1.0539.1067 6.8267.8789 15.8293 1.4421 1.7621.1792c2.688.2774 4.8386 2.7264 4.5606 5.4144l-.64 4.4374-.558 5.4613-.9092 10.8587-.6059 3.904-.7808 11.0933-1.0624 6.912-.5973 5.8581c-.1317 1.2891-.7675 2.4739-1.7689 3.2963s-2.2872 1.2157-3.5773 1.0941zm-55.5605-61.8112c-.2746-.0283-.5521-.0022-.8166.0769-.2645.079-.5108.2095-.7248.3839-.214.1743-.3916.3892-.5224.6323-.1309.2431-.2125.5096-.2402.7843l-4.9749 48.5717c-.0561.5544.1101 1.1083.4621 1.5403.3519.4319.8609.7066 1.4152.7637l61.248 6.272c.5541.0549 1.1075-.1117 1.5392-.4635.4317-.3517.7066-.86.7648-1.4138l4.9707-48.576c.056-.5544-.1102-1.1084-.4622-1.5403-.3519-.432-.8609-.7067-1.4152-.7637z" fill="#fff"/><path d="m44.4885 42.24c-.183-.0187-.3605-.0732-.5224-.1605s-.305-.2057-.4211-.3484c-.1161-.1426-.203-.3068-.2556-.483-.0526-.1763-.07-.3612-.0511-.5441l.9942-9.7067c.0187-.1829.0734-.3604.1607-.5222.0874-.1618.2057-.3049.3484-.421.1426-.1161.3067-.2029.4829-.2556.1762-.0526.361-.0701.544-.0513.1829.0188.3604.0734.5222.1607.1618.0874.3049.2057.421.3484.116.1426.2029.3067.2556.4829.0526.1762.0701.361.0513.544l-.9941 9.7194c-.0408.3673-.2252.7035-.513.9353s-.6555.3404-1.023.3021z" fill="#699e3d"/><path d="m44.241 44.689c-.5033-.0501-.9918-.1991-1.4374-.4385-.4455-.2395-.8394-.5646-1.159-.9567-.3195-.3921-.5585-.8435-.703-1.3282-.1446-.4847-.192-.9932-.1395-1.4963l1.0112-9.7067c.0515-.5042.2019-.9934.4425-1.4396.2406-.4461.5667-.8405.9597-1.1607.3931-.3201.8453-.5597 1.3309-.705.4856-.1454.9951-.1937 1.4994-.1421.5043.0515.9935.2019 1.4396.4425.4462.2406.8406.5667 1.1607.9598.3201.393.5597.8452.7051 1.3308.1453.4856.1936.9951.1421 1.4994l-.9942 9.7067c-.0504.5065-.201.998-.4432 1.4458-.2421.4479-.5708.8431-.967 1.1627-.3963.3196-.8521.5572-1.341.699-.4889.1419-1.0011.1851-1.5069.1271z" fill="#699e3d"/><path d="m84.3903 46.336c-.183-.0187-.3605-.0732-.5224-.1605s-.3049-.2057-.4211-.3484c-.1161-.1426-.2029-.3068-.2555-.483-.0526-.1763-.07-.3612-.0511-.5441l.9941-9.7024c.0185-.183.0729-.3605.16-.5224.087-.1619.2052-.3051.3476-.4214s.3064-.2034.4825-.2563c.1761-.053.3609-.0707.5438-.0522s.3604.0728.5224.1599c.1619.0871.3051.2053.4214.3477s.2034.3064.2563.4825c.0529.176.0706.3608.0522.5438l-.9942 9.7066c-.0181.1832-.0723.3611-.1594.5232-.0871.1622-.2055.3055-.3483.4217s-.3071.203-.4836.2554-.3616.0694-.5447.0499z" fill="#699e3d"/><path d="m84.1429 48.7765c-.5038-.0501-.9926-.1993-1.4385-.439s-.8399-.5652-1.1595-.9577c-.3196-.3926-.5585-.8445-.7028-1.3297s-.1913-.9942-.1382-1.4976l.9942-9.7067c.0515-.5042.2019-.9934.4425-1.4396.2406-.4461.5667-.8405.9597-1.1607.3931-.3201.8453-.5597 1.3309-.705.4856-.1454.9951-.1937 1.4994-.1421.5043.0515.9935.2019 1.4396.4425.4462.2406.8406.5667 1.1607.9598.3201.393.5597.8452.7051 1.3308.1453.4856.1936.9951.1421 1.4994l-.9899 9.7067c-.05.5057-.1998.9965-.4409 1.4439s-.5685.8425-.9634 1.1623c-.3949.3199-.8494.5582-1.3371.7012-.4876.1429-.9988.1876-1.5039.1315z" fill="#699e3d"/><g fill="#fff"><path d="m91.3322 70.3574-4.928-.3584-5.5467-.7126-2.2741-.2346-12.0576-1.0283-4.2667-.6443-5.8112-.593-10.6667-.9216-5.3418-.7168-5.7046-.5845c-.1829-.0188-.3604-.0734-.5222-.1608-.1618-.0873-.3049-.2057-.421-.3483-.2344-.2881-.3448-.6575-.3069-1.027.0379-.3694.221-.7087.5091-.9431.288-.2345.6574-.3449 1.0269-.307l4.928.2603 4.7659.7296 2.3765.2432 3.5584.2261 7.5819.9173 5.0176.2987 5.905.8277 7.2192.7297 2.6283.401 7.104.5973 2.9397.2987 2.56.2645c.3695.038.7088.2211.9432.5091.2345.2881.3449.6575.307 1.0269-.0379.3695-.2211.7088-.5091.9432-.2881.2345-.6575.3449-1.0269.307z"/><path d="m89.7236 86.0758-2.6026-.2646-6.319-.3498-4.6634-.7766-9.3568-.9557-1.28-.1323-7.0742-.5162-4.8256-.6998-.9173-.0981-6.3275-.6443-4.9962-.2901-3.6907-.6016-4.5611-.465c-.3694-.038-.7087-.2211-.9432-.5091-.2344-.2881-.3448-.6575-.3069-1.027.0379-.3694.221-.7087.5091-.9431.288-.2345.6574-.3449 1.0269-.307l3.8741.2475 2.624.4267 3.84.3925 3.6438.2432 8.8362 1.0368 3.9083.5248 4.7445.3584 1.8347.1877 9.4549.8064 2.9867.4694 4.2667.4266 4.5952.3456 1.9797.3285c.1829.0188.3604.0734.5222.1608.1618.0873.3049.2057.421.3483.1161.1427.2029.3068.2556.483s.0701.361.0513.5439c-.0187.183-.0734.3604-.1607.5223-.0874.1618-.2057.3048-.3484.4209-.1426.1161-.3067.203-.4829.2556-.1762.0527-.361.0702-.544.0514z"/><path d="m44.4884 42.24c-.183-.0186-.3605-.0732-.5224-.1605s-.3049-.2057-.4211-.3483c-.1161-.1427-.2029-.3068-.2555-.4831-.0526-.1762-.07-.3611-.0511-.5441l.2133-5.0688.5803-2.6837.2005-1.9541c.0188-.183.0734-.3604.1608-.5222.0873-.1619.2057-.3049.3483-.421s.3067-.2029.4829-.2556.3611-.0701.544-.0514c.183.0188.3604.0734.5222.1608.1619.0873.3049.2057.421.3483.1161.1427.203.3068.2556.483.0527.1762.0701.361.0514.5439l-.2262 3.8102-.4949 3.2341-.2731 2.6624c-.0186.183-.0732.3605-.1605.5224s-.2057.305-.3483.4211c-.1427.1161-.3068.2029-.4831.2556-.1762.0526-.3611.0699-.5441.051z"/><path d="m49.6426 90.095c-.3691-.0388-.7079-.2221-.9422-.51-.2342-.2878-.345-.6567-.308-1.026l.2774-2.2358.4778-5.1199.0896-2.351.4566-2.9866.2816-2.7264.0682-2.0822.2902-1.4592.9002-8.7723.0512-2.2485.4267-2.2016c.0188-.1829.0734-.3604.1607-.5222.0874-.1618.2058-.3049.3484-.421s.3067-.2029.4829-.2556c.1762-.0526.3611-.0701.544-.0513s.3604.0734.5222.1607c.1618.0874.3049.2057.421.3484.1161.1426.2029.3067.2556.4829.0526.1762.0701.361.0513.544l-.1109 2.1845-.3755 2.56-.6314 7.1637-.3584 2.5088-.2731 2.6838-.0896 2.0693-.4267 3.0336-.4906 4.7702-.1835 2.8159-.3541 2.4278c-.0227.1824-.0811.3585-.1719.5183-.0907.1598-.2121.3002-.3571.4131s-.3108.1962-.488.245-.3623.0623-.5446.0396z"/><path d="m70.1012 92.1899c-.3691-.0387-.7078-.2221-.9421-.5099-.2343-.2879-.345-.6568-.308-1.0261l.2987-2.9141.192-2.8331.5077-4.0149.3072-2.9867.1451-2.56.4693-3.4432.3925-2.7008.5931-6.9632.1067-2.1803.2858-1.617c.0176-.183.0713-.3608.158-.5229s.2047-.3055.3471-.4217c.1424-.1163.3065-.2031.4827-.2556.1763-.0524.3611-.0694.544-.05.3946.0601.7522.2663 1.0019.5777.2497.3113.3733.7052.3463 1.1034l-.2304 2.2443-.3754 2.5856-.448 5.3461-.2475 1.4592-.2517 3.4133-.3926 3.84-.9216 8.0555-.2261 3.3067-.2987 1.8133c-.0181.1834-.0723.3613-.1594.5237-.087.1624-.2053.306-.348.4225-.1428.1166-.3071.2038-.4836.2567s-.3617.0704-.545.0515z"/><path d="m84.3903 46.336c-.183-.0186-.3605-.0732-.5224-.1605s-.305-.2056-.4211-.3483-.2029-.3068-.2556-.4831c-.0526-.1762-.0699-.3611-.051-.5441l.1578-2.752.3627-2.321.4736-4.6294c.0185-.1829.0728-.3604.1599-.5223.0871-.162.2052-.3052.3477-.4215.1424-.1162.3063-.2033.4824-.2563.1761-.0529.3609-.0706.5439-.0521.1829.0185.3604.0728.5223.1599.162.0871.3052.2052.4215.3477.1163.1424.2033.3063.2563.4824.0529.1761.0706.3609.0521.5438v2.5174l-.6485 3.9594-.3328 3.2299c-.018.1844-.0726.3634-.1606.5265-.0879.163-.2075.307-.3517.4233-.1442.1164-.3101.2029-.488.2545-.178.0515-.3644.0671-.5485.0458z"/><path d="m86.3487 81.5702c-.1833-.0184-.3611-.0732-.523-.1611s-.3047-.2072-.4199-.3509l-1.1222-1.135-2.0309-2.7349-2.4661-2.7904-.3712-.4565-.8534-1.28c-.116-.1426-.2027-.3067-.2553-.4828s-.07-.3609-.0512-.5437c.0381-.3693.2212-.7084.5092-.9426s.6572-.3445 1.0265-.3065.7083.2212.9426.5092l1.28 1.28.7893 1.28 2.5387 3.1189 1.5573 1.5701.6741 1.1691c.1736.2152.2798.4769.3052.7522.0254.2754-.031.5521-.1623.7954-.1312.2434-.3314.4426-.5755.5726-.244.13-.521.185-.7962.1582z"/><path d="m77.4783 79.2491c.0176-.183.0717-.3607.1588-.5226.0872-.1619.2058-.3048.3489-.4203l1.1392-1.1222 2.735-2.0266 2.7946-2.4704.4523-.367 1.28-.8533c.1429-.116.3072-.2027.4836-.2552.1764-.0524.3614-.0697.5444-.0506.183.019.3606.0739.5224.1615s.3048.2062.4208.3491.2027.3072.2552.4836c.0524.1764.0697.3614.0506.5444-.019.1831-.0739.3606-.1615.5224s-.2062.3048-.3491.4208l-1.28 1.28-1.28.7851-3.1232 2.56-1.5701 1.5573-1.1691.6699c-.1424.1161-.3064.2029-.4825.2555-.176.0525-.3608.0698-.5435.0508-.1828-.0191-.36-.074-.5215-.1617-.1614-.0877-.304-.2065-.4194-.3494-.1157-.1451-.2007-.3122-.2499-.4912-.0491-.179-.0614-.366-.036-.5499z"/></g></svg>