<svg fill="none" height="128" viewBox="0 0 128 128" width="128" xmlns="http://www.w3.org/2000/svg"><path clip-rule="evenodd" d="m125.18 67.0251c0-.367-.325-.7851-.333-1.2032-.009-.4182.299-.9387.324-1.4038.115-2.0608.354-5.2992-1.28-6.6944.102-.1301.231-.2359.379-.3097.147-.0738.31-.1138.475-.1169-.227-1.903-.367-3.7803-.943-5.7942-.427 0 .038.7936-.35.495-.175-.576-.457-.6059-.209-.9643.328.1323.072.1579.256.4779.606-1.6171-.478-3.7504-1.246-5.7814-.107-.2005-.367.1067-.487-.0512.363-.2816.286-1.4464-.281-1.3866-.077.2773.695.7125-.094.9728.175-.96-1.31-1.8475-.678-2.7094.712.2432.145 1.28.823 1.2544-.218-.8789-.559-1.6768-.666-2.1077-.503.1835.209.7339-.46.8533-.355-.2986-.666-.8533-.457-1.1392.388-.2432.73.5291.909-.0256-.815-2.6752-2.236-4.9066-3.46-7.057-.768-1.344-1.344-2.863-2.172-4.0619-.627-.9131-1.732-1.6341-2.377-2.7264-.815-1.3781-2.086-2.5003-2.645-3.8059-.93.0598-.943-1.2416-1.732-1.2288 0 .7894.853.704 1.135 1.5488-1.31 1.3568-1.332-1.7066-2.599-1.9925-.106-.4011.133-.6955.214-1.0368-1.413-1.8304-3.119-2.7605-4.553-4.4971-.386-.0323-.761-.1457-1.101-.3328-12.3987-10.30396-27.5667-14.24636-43.9208-12.63783-.9941.23467-1.6725.42667-2.7051.6784-1.28.31574-2.8672.10667-3.9296.42667-.6784.192-1.2373.82347-1.9114 1.01973-.5547.15787-1.28-.13226-1.8176.04694-.4267.13653-.751.58026-1.1307.75946-1.7877.85334-3.6096.81494-5.4016 1.96267-1.3739.87893-2.9568 1.344-4.3691 2.18026-3.2301 1.9816-6.2911 4.2263-9.152 6.7115-.2346.2048-.576.2346-.8533.448-2.8288 2.2912-5.0304 5.4186-7.1211 7.9488-.8874 1.0752-2.0053 1.9072-2.6496 2.7989-.6442.8917-.9728 2.1333-1.6725 3.1957-1.664 2.5259-2.6069 5.039-3.84 7.4368-.4267.8534-.4267 1.5062-.7893 2.2656-.1494.3158-.50777.4779-.6443.8064-1.00693 2.4406-1.28 4.7787-1.92427 7.3216-.2944 1.1776-.75093 2.0224-.8832 3.2384-.24789 1.8126-.40028 3.637-.45653 5.4656 0 2.1078-.42667 4.0704-.13653 6.0672.09813.704-.29014 1.4976-.24747 2.1334.0256.3328.33707.6912.39253 1.0197.0896.5589-.18773 1.1861-.13653 1.7621.08533.9643.6016 2.0438.75093 3.1318.26454 1.9114.34987 3.9381.85334 5.3717.3584.9771.55893 1.3611.36266 2.1333 1.00267 1.7067 1.33547 3.8016 2.02667 5.5211 2.4235 6.0544 6.016 11.3365 9.7152 16.4646 3.7461 3.602 7.3643 7.625 11.4816 9.997 2.9867 3.017 6.6432 3.84 9.8603 6.097 1.7066.137 3.0933 1.468 4.8298 1.57 1.7067 1.353 4.0022.896 5.7558 2.134.3731-.096.7643-.095 1.1373.001.3729.096.7155.285.996.549 2.7648-.32 5.0261 1.028 7.8336.576 2.6368.986 5.9733-.362 8.7339.252 3.52-.896 7.4624-.55 11.2213-1.997.3072-.124.5973-.503.8917-.631.6784-.303 1.5318-.231 2.2315-.427 1.1523-.296 2.2771-.69 3.3621-1.178 3.7718-1.821 7.8507-3.635 11.2896-6.182 7.4927-5.547 13.3287-11.746 17.0117-18.7733 2.633-3.6372 4.501-7.7712 5.491-12.1515 1.651-2.7691 1.126-6.1995 2.56-9.0368-.231-.5035.128-.8277-.282-1.3867.738-.8533.388-1.8218.469-2.8629.039-.5035.333-.9387.325-1.4037zm-111.9021 1.5488c-.0281.1909.0194.3853.1322.5418-.1502.0979-.3222.1572-.5008.1728s-.3582-.0129-.5232-.0832c.0726-.4096.7126-.1621.8918-.6314zm-2.0907 7.8762c-.4267.2006-1.0069-.1536-.9259-.5802.448-.2688.6827.1664 1.0923.0298.2005.2603-.5803.2262-.1664.5504zm.4267-10.6666c-.1451.1237.0597.3541.1322.5418-.3157.2859-.3626-.3328-.721.0811-.3584-.7595.4949-1.2629.9216-.6443-.128.0299-.2006-.0554-.32.0086zm1.4464 6.4469c.145-.1323-.1024-.2176-.2475-.1749-.0981-.1835.5931-.2432.7808-.2646l.2517.4779c-.8064.3584-1.1989.4608-1.8773-.0683.2304-.5674.6784.2347 1.1051.0171zm.8533 11.6736c-.3499-.5376-.3541-.512-.7595-1.1307l.3584-.192c-.5333-.2816-.7253-.9344-1.425-1.233-.1323-.5504.657-.4992.9002-.3286.1195.9771 1.4763 1.6512.943 2.8715zm.9685 4.3989c-.2474-.4266-.5802-.8533.0939-.9728.1051.1424.1552.318.1411.4944s-.0915.3418-.2179.4656zm105.3269-47.7866c.175.4266-.636.704-.853.4266-.03-.3029.708-.512.87-.4565zm-1.382-1.7067c.087.043.165.1028.23.176.064.0732.114.1584.145.2507-.056.1031-.132.194-.223.2672-.092.0733-.197.1275-.31.1594-.052-.0688-.089-.1477-.108-.2315-.019-.0839-.021-.1709-.004-.2554.016-.0845.05-.1645.1-.235.049-.0705.113-.1298.187-.1741zm1.28 31.7269c-.222.0982-.171.2816-.427.3712.128.057.235.152.308.2721.072.1201.105.2595.095.3993-.009.1398-.062.2732-.15.3821s-.208.188-.343.2265c.081-.4266-.712-1.0837-.098-1.3312-.141-.401-.456-.2432-.785-.0384.098-.5034.491-.9173.427-1.4677.256-.0683.427.0981.725-.0768 0 .2645-.234.4608-.589.6187.291.2474.623.2944.849.6016zm.158 3.4475c-.111.3627-.645.4267-.956.512-.38-.6571.67-1.1392.968-.5547zm-4.63-9.8133c.26-.2048.376.081.662-.2006.217.4651-.32.704-.517 1.0454-.209-.3755.086-.5547-.132-.8875zm.674 9.3141c.329 1.4464-.968.2475-1.489.9515l-.256-.4779c.15-.0555.201-.1408.175-.2475.717-.4352 1.084.3072 1.583-.2688zm-.311-.2944c.027-.1463.001-.2974-.073-.4267.427.1622.406-.7125.956-.512.192.4907-.35 1.135-.87.896zm.593-7.2277c.452-.3798.666 0 .853.4608-.149.0554-.196.1408-.175.2474-.529.047-.29-.5632-.665-.7509zm.768 6.0416c.179.3797.644.5248.512.9557.623.1408.589-.8277 1.195-.64-.116 1.5829-2.855 1.0368-1.694-.3584zm.798-4.2667c.286.4267.277.7552-.098.9728-.201-.4437-.41-.8363.128-1.0155zm-.64-30.528c-.098-.4651-.854-1.0411-.777-1.7365.858.192 1.25 1.4762.79 1.6938zm-2.56 13.6533c.478-.7722 1.344-1.7322 2.436-1.7621 0-.3072-.286-.5035.162-.8533.708-.2176.721.2133 1.105.6357-.64.6144-1.438 1.28-2.27 1.2117-.209.4736-.797.8278-.994 1.28.32.1195.299-.2133.653-.5034.371.2005.026.4693.486.0469l.32.5973c.269-.1152-.174-.4522-.2-.6613.427-.2347.853-.384 1.092.0341-.768.4651-.281 1.3142.056 2.1334-.15.2858-.623.4778-.828.7466-.354-.3498-1.05-.4992-.76-1.1306-.426-.2518-.426.465-.772.5674-.145-.4053-.478-.1749-.734-.2218-.414-.9302.918-1.5232.278-2.1718zm-.593 9.5318c.533-.367.687.5034.751.8277l-.598.32c-.076-.4523-.388-.9131-.123-1.1989zm-5.547 21.8453c-.162 0-.269-.2091-.486-.0469.026-.1915-.023-.3856-.137-.5419.265-.2005.38.0811.661-.2005-.204-.0939-.349-.384-.614-.2859 0-.4267.585 0 .853-.1451.397.495-.328.7083-.234 1.1691zm-.87-9.8432c-.261-.3456.222-.4693-.141-.8533.226 0 .512-.1536.61.2858.201-.2688.567-1.28 1.075-.576-.324.8534-.717 1.2032-1.544 1.1435zm-.175 13.76c-.559 0-.572.3243-.892.6315-.256-.3414.051-.5163.405-.6784-.222-.6272-.964.3669-1.011.6954-.264.2048-.375-.081-.661.2006-.26 0 .516-.5035.158-.8534.644-.1706.307-.64.947-.8149-.295-.2901-.457.2005-.606 0-.252-.3456.051-.5163.427-.6784-.453-.1749-.073-.6784-.384-.7168.337-.4523.853-.4608 1.442-.4608.158.1365.188.6912.426.5333.035.3115-.426.4736-.529.7424.111.4267.453.0512.559.4694-.025.3456-.46.5333-.298.9301zm-1.801 2.9611c.295-.4267.653-.239 1.028-.0896.094.5205-.904.7082-1.045.0896zm1.11.6357c.277.5163-.146.8235-.453 1.1648-.017-.4352-.187-.9216.435-1.1648zm.524 1.5616c.401-.0299.333.6229.448.8533-.571.1923-1.154.349-1.745.4694-.179-.8534 1.144-.6272 1.28-1.3312zm-2.227-10.7904c-.448.1493-.772-.1024-1.28.2176-.196-.0597 1.067-1.2971 1.263-.2176zm-2.496 13.1584c-.828.3456-1.971.192-1.54-.8533.853-.5718 1.425-.2859 2.133-.3584.205.7381-.998.4394-.61 1.2117zm-4.2324.4267c-.3499.8917-1.7067.0426-1.28-.6912.5035-.1024.6741.9813 1.2629.6826zm-61.2523 15.0311c.367-.102.512.517.9174.278.1578.384-.4267.853-.8278.751l-.192-.359c.4651-.094.303-.375.1024-.67zm-6.2506-4.497c.5461-.068.0554-.452.4693-.559.0491.013.095.036.1349.068.0398.032.0728.071.0968.116s.0385.094.0427.144c.0042.051-.0021.102-.0184.15.0662-.036.1303-.076.192-.119.0597.098.1237.187.1835.277-.1426.001-.285.009-.4267.026-.0555.315.0725.691-.4608.853-.2133-.358.2133-.533-.2133-.956zm75.1443-68.3773c-.362.3157-.576.1408-.853.145.281-.273.397-.9301.768-.8533.183.2816.034.4437.085.7083zm-.478 1.6384c-.35.2773-.623.2858-.853.145-.124-.273.162-.4266.469-.5589.086.2219.269.1749.384.4139zm-.384 1.5872c0 .3584-.755.5418-.9.3285.008-.2909.062-.5787.158-.8533.367-.2774.397.6101.721.5248zm-1.42-5.5467c-.111.0341-.086.1067-.056.1835-.213-.0726-.068-.8832.516-1.0454.406.2902.218.4736.512.9558-.448.256-.631-.1835-.994-.0854zm7.509 29.0133c.141.192.35.1622.606 0l.32.5974c-.256.32-.363.5248-.777.5674-.328-.576-.328-.657-.7-1.3141.346-.1963.299-.512.342-.7979.324-.1109.384.4992-.047.4864-.017.2731.55.2219.235.4694zm-3.704 17.7963c.026.1109-.059.1835 0 .3029l-.239.128c-.307-.1493-.686-1.4549.086-1.28-.017.384-.568.8064.132.8576zm-.196-9.5701c.026-.1469-.002-.298-.077-.4267.615-.064.628-.1195 1.28-.5205.248.7296-.772 1.0154-1.224.9557zm-.951-4.5526c.051-.2346.106-.4693.158-.7082.078-.0265.153-.0639.221-.111.337.0896 0 .5291.551.1664.072.5163-.504.4864-.93.6528zm-.495 5.0219-.316-.5973.597-.32c-.213.2773.273.7594-.303.9173zm-65.8947 35.6186c.4872-.176.9643-.378 1.4294-.606-.064.209-.1707.401-.239.61-.6016.055-.7381-.154-1.3226.397.0831-.118.1292-.258.1322-.401zm63.6077-13.9781c.17.32.516.0555.678.4267-.085.3157-.456.1067-.853.4267-.188-.047-.273-.4267-.551-.1707-.213-.576.602-.2133.726-.6827zm2.287-14.1226c.204.307.338.6551.392 1.0197-.623.3328-1.237-.7467-.392-1.0197zm2.735-13.2864c-.226-.3456.136-.6699-.265-.7808-.486.1834.056.6826-.644.8021-.337-.5205-.704-.7467-.333-1.2032-.115-.2517-.427.1237-.627.1877 0 0 0-.0256 0-.0426.035-.1635.062-.3287.081-.495.641-.4108 1.216-.9157 1.707-1.4976.149.1963 0 .3072-.056.1835-.188.2133.295.9771.568.7723.157-.1878-.073-.3158-.248-.175 1.212-.6442-.563-1.7066.115-2.368.299-.2048.427.0854.615.2859.486-.2517.781-.5632.516-1.0411.175-.081.35-.1621.299-.3114.145-.0512.128.081.064.1194.465.0598 1.28-.3541.802.6443-.042.041-.095.0699-.152.0838s-.116.0123-.172-.0047c-.057-.017-.107-.0487-.147-.0919s-.067-.0962-.08-.1536c-.26.1877 0 .5333-.426.6784.303.0811.426-.3499.734.2219-.337.1962-.82.3498-.892.6272.318.2752.523.6581.576 1.0752-.329.3114-.376-.303-.67-.1024-1.318.9173.917 2.4618-1.365 2.5856zm1.826 16.0725c-.282.2987-.35 1.0197-.883.9301-.197-.4522.439-.6656.883-.9301zm-.081-.7253c-.427.0853.183-.3286-.137-.5419.286-.2816.401 0 .662-.2005.439.6186-.576.4138-.525.7424zm1.45-11.375c-.123.5547-.665.4267-.819 1.0539-.712-.3157.205-1.4123.819-1.0539zm-.341 14.3147c.103.0559.194.1319.267.2235.074.0916.128.197.16.3098-.22.1791-.497.273-.781.2646.055-.2859.008-.6016.354-.7979zm1.459 2.4448c.134.0994.244.2277.322.3755.077.1477.121.3111.126.4778-.237.1654-.53.2308-.815.1821s-.539-.2076-.708-.4423c.129-.1674.291-.3066.476-.4093s.389-.1667.599-.1881zm.329-39.6459c-.231.2518-.854-.2944-.598.32-.109.0106-.219.0106-.328 0 .082-.397.116-.8023.102-1.2074.38.0554.888-.303 1.28-.2859.064.1195.128.2389.188.3584-.171.512-.922.2133-.644.8149zm-.295-17.8133c.709 0 1.306 1.0112.645 1.4976-.436-.3627-.918-1.2544-.645-1.4976zm-1.962-3.0976c.315.5077 2.061 1.7067 1.834 2.8587-.396.1536-1.126-.8022-.759-1.1307-.384-.2475-1.707-1.2416-1.075-1.728zm-1.071-1.4251.448.8534c-.534-.2347-.772-.3712-1.28-.0896-.423-.6827.435-.768.832-.7638zm-2.56 5.5254c.486.3925 1.237.081 1.745-.4736-.427.768-1.28 1.1648-1.959 1.5061-.311-.4736.363-.6187.197-1.0325zm-1.37-9.7238c.107.4267.393.2432.504.6528-.482.3755-1.349-.3669-.504-.6528zm-1.527 8.6486c.089.6954.426.8021.879 1.0666-.342.3883-.657.8534-1.14.4566.052-.1878.107-.3712.167-.5504-.162-.2304-.427-.0683-.67-.1067-.201-.2603.081-.3755-.196-.6613.13-.1118.286-.1892.454-.225.167-.0357.341-.0288.506.0202zm-2.739-.5334c0 .7894-.854 1.28-1.17 1.5446-.635-.4523.551-2.0523 1.17-1.5446zm-1.046-2.8202.384.7168c-.542.4565-.563-.7936-1.101-.3328-.106-.6102.333-.0171.717-.384zm-.243 9.0368c.371.8021.73.6784 1.365 1.1136-.96.4266-1.246-.3798-1.89-.3712-.034-.3115.056-.5803.525-.7424zm-1.7493-13.952c.3157-.1707.657-.4267.9002-.3286.4271.7296-.4608 1.0624-.8533 1.5403-.1086-.3949-.1247-.8096-.0469-1.2117zm-.0726 4.7829c.32.2645.2944.4949.3286.9003-.3286.3072-.5078.1408-.7254.081.1408-.32-.1152-.7637.3968-.9813zm-11.5712-13.3205c.175.6272-.9728.5162-1.1477.1493.3499.064.8448-.3243 1.1477-.1493zm-.5589-.4694c-.64.4267-.4992.8022-1.3696.8832-.2987-.849.8661-.9514 1.3696-.8832zm-5.7728 8.4566c.4565.2986.2304.5674.3925 1.0197-.2645.1664-.4266.0427-.6698.0768.0718-.3704.1643-.7365.2773-1.0965zm-5.2053-1.9798c.1834.4566.2133.8534-.1494 1.1563-.4949-.1621-.2048-.6528-.3925-1.0197.1914.0241.3848-.0246.5419-.1366zm-3.392 2.2742c-.0619.1329-.1652.2422-.2944.3114 0-.3669.5248-.576.7637-.8533.3371.0939.064.3541.384.7168-.3072.0512-.5333-.256-.8533-.1749zm.7765-7.1723c-.0601.2154-.172.4127-.326.5749-.1539.1621-.3452.2841-.5572.3552.2133-.7082.1621-1.2245-.2859-1.7066l.4736-.256c.3542.5461.1792.9045.6955 1.0325zm-1.4763-3.0549c.2816.1792.495.576.8534.4608.1877.3584-.0939.576.0256.913-.115-.1924-.2773-.3522-.4715-.4642-.1941-.1121-.4137-.1726-.6379-.1758.0555-.2517-.1749-.5888.2304-.7338zm-4.4885 6.545c.1707.2006.4267.1664.5547.4736-.4822.2304.1408.1622-.047.4822-.4864-.0384-.9002-.3243-1.4549-.1408.0171-.5078.4224-.3798.9472-.815zm-11.3877 2.56c-.1622-.3498-.4992-.1194-.7339-.2218-.1963-.495.4864-.7211.8192-1.0539.0836.0858.1482.1883.1895.3008.0414.1124.0586.2323.0505.3518-.008.1196-.0412.2361-.0972.342-.0561.1059-.1338.1987-.2281.2726zm-.256-2.7818c-.2091.128-.3328 0-.5419.1365-.0764-.091-.1335-.1965-.168-.3101-.0345-.1137-.0455-.2332-.0325-.3512-.2262.064-.175.2133-.111.3669-.6229.2219-.1365-.6272-.4266-.5333.2304-.5803 1.3696.1237 1.28.6741zm-2.6752 1.2629c.1792-.4011.6613 0 .7722-.5675.1024.5419.1366.6528.559.4694.2517.3456-.0555.5205-.4267.6784-.2859-.5206-.4864-.175-1.0923-.0299-.145-.1792.6144-.5888.1878-.5504zm-9.1179 13.1669c.3413-.2602.4651.2219.8533-.145 0 .4992-.6058.593-1.0112.6954-.1109-.2346.3371-.2944.1579-.5504zm-.7765-1.7365c.2858.3584.5674.2219.5674.7723-.3628.3013-.8098.4831-1.28.5205l-.1706-.3499c.6613-.209.384-.6954.8832-.9429zm-1.0838 2.56c.1126.0841.2053.1919.2717.3157.0663.1239.1047.2608.1123.4011-.1548.0881-.3268.1417-.5043.1571-.1775.0155-.3562-.0075-.5239-.0675-.0256-.3285.2048-.5931.6442-.7936zm-1.7365-3.84c.2176.6485.5931.3371.9941 1.0027-.2218.1024-.1706.2816-.4266.3754-.2262-.4906-1.1222-.8618-.5675-1.3568zm-.7339 2.0821c-.4821-.1578-.2816.3371-.6528.5035-.4266-.3072-.7765-.4267-.8789-1.0709.5589.0512 1.1733-.1067 1.5317.5888zm-2.3978-1.3098c.512-.1323.3413.4266.5632.7722-.3456.256-.4864-.1536-.7894-.0384-.2602-.3456.5718-.3626.2262-.7338zm-5.3419 8.704c.5248-.047.2475.8533.9216.5802.0469.4267.3371.9686-.2688 1.2203-.2581-.3872-.4352-.8226-.5205-1.28-.256.1835-.367.4949-.7168.3797.0263-.1458.0022-.2963-.0683-.4266.2901-.0768.7936-.047.6528-.4736zm-3.2256-7.2022-.192-.3584c.2304 0 .4267.1664.5589.4736-.0427.1174-.1274.2146-.2378.273-.1104.0583-.2385.0736-.3595.0428-.1963-.32-.0384-.5078.2304-.431zm-.1877 22.3702c-.5675.1408-.6742.6869-1.0752.576.1322-.5504-.2475-.6614-.3328-1.2032.4821.1578 1.0581.0298 1.408.6272zm-.64 10.0053c-.4822.2091-.8534.0213-.8534-.4608.3499-.064.9515.0555.8534.4608zm-.1536-21.5723c.1536.5803-.8064.8235-.448 1.4678-.512.1109-.1792.4778-.5888.6229l-.32-.5717c.9173-.3926-.8832-.7424-.0299-1.2118-.5077 0-.1877-.3029-.384-.7168.7125-.2602 1.088.5846 1.7707.4224zm-1.0923 4.5739c-.0902.0777-.1956.1357-.3095.1702s-.2337.0449-.3518.0303c-.128-.5461-.32-.7893-.2134-1.28.5803.1579.559.4438.8747 1.0923zm-3.9893-10.9227c.4266-.2133.6912.1408.9258.5803-.5632.4267-.7466-.3968-1.3312.0981 0-.145.0299-.2901-.128-.2389.0427-.4565.64.1749.5334-.4267zm.0426 57.8816c-.3456.1494-.4266-.6528-.7978-.3413l-.192-.3584.5973-.32c.5333.3328.1067.5333.3925 1.0325zm-.8746-48.2133.384.7168c-.32.2859-.4267-.2048-.7254.0811-.0422-.0726-.0668-.1541-.0719-.2379-.0051-.0839.0096-.1677.0428-.2449.0331-.0771.0839-.1454.1483-.1994.0643-.054.1404-.0922.2222-.1114zm-2.1675.5419c.2764-.0867.5637-.1341.8533-.1408.4267.5589-.6144.6784-.2688 1.216-.32.2816-.4608 0-.7808.2645.0171-.4565.3926-.8107.1963-1.3355zm.2219 48.7253c-.2475-.064-.3968-.4565-.5675-.7723l.7168-.384c.4096.5291.2773.8918-.1493 1.1606zm.6741-44.7488c-.2176-.3328.0725-.512-.1451-.8533.1792-.0427.303.1109.4864.0469.3243.2773-.337.7509.0811.7253.1195.3968-.2688-.0682-.4224.0854zm1.2032 44.8213c-.0615.1397-.0685.2973-.0195.4419.0489.1445.1503.2655.284.3389-.3712 0-.6528-.2688-.9813-.401-.0896-.2859.5845-.4267.7168-.3755zm.3243 5.2011c-.3584-.0939-.4267-1.1179-.7424-.5248-.2262-.448 1.3141-.8832 1.3312-.0939-.3158.1707-.7382.3115-.5888.623zm.6997-.9856c-.5163-.1707.2261-.5205-.2091-.9643.2304 0 .4736-.0256.6144.2859-.32.1749-.0554.5205-.4053.6827zm1.1093.6357c-.2688 0-.4266-.337-.7338-.2218.0272-.1464.0015-.2976-.0726-.4267.2219.0384.5035-.1195.7254-.0811.2858.3286-.2048.4139.081.7339zm.0384-43.6181c-.4266.2475-.896-.2517-.8064-.6443.2902.1366.6955-.0938 1.0283-.0896-.1451.2048-.0299.5078-.2219.7339zm1.472 45.884c-.4136-.055-.8219-.145-1.2202-.269 0-.23 0-.474.2858-.614.042.064.0987.118.1657.157.0669.038.142.06.2191.064.0772.004.1541-.011.2245-.043.0703-.031.132-.08.1801-.14.32.363.145.576.145.845zm.9174-62.9976c.0341.4267.0298.8533-.4523 1.1648-.0555-.1493-.1408-.2005-.2475-.1749-.0233-.1114-.0234-.2263-.0003-.3377s.069-.2168.1346-.3097c.0657-.0928.1498-.1712.2471-.2301.0972-.059.2056-.0972.3184-.1124zm-.704 66.2656c.3626-.098.5632.341.9728.094.2901-.192-.2731-.115-.256-.478.2991-.061.6067-.07.9088-.026-.1323.124-1.5659 1.63-1.6256.41zm2.4448-1.459c-.3883.175-.576-.299-1.0283.085.0951-.272.2092-.537.3413-.793-.209-.402-.6058-.201-.8021-.649.7168-.606.8107.853 1.5232.265.0512.149.1365.196.2432.174.2261.402-.5163.512-.2773.918zm.7552-.568c-.2375-.302-.5263-.561-.8534-.763.286-.01.5721.011.8534.064l.337.234c-.1578.137-.401.273-.337.465zm.5589-70.0199c.3968.1194.4267.6357.3285.9002-.2901-.0512-.9258-.657-.3285-.9002zm1.1477 73.7319c-.2359-.164-.4459-.362-.6229-.588.1493-.056.2005-.141.1749-.248.4566.303.5675.034 1.0283-.09-.1024.35.1877.18.32.598-.5205.119-.4736-.086-.9003.328zm.9728.094c.4267.073 1.0326-.546 1.3867-.277.016-.142.016-.285 0-.427.1067.137.2091.273.32.397-.0473.028-.0973.051-.1493.068.4266.299.0938.427-.0384.79-.3883.055-.7552.064-1.1478.153-.0097-.138-.0491-.272-.1153-.394-.0663-.121-.1579-.227-.2687-.31zm1.536.854c.171.04.3221.14.4261.281.1041.142.1542.316.1414.491.0097-.203.0645-.401.1605-.579.096-.179.2306-.334.3942-.454l.1152.09c-.0829.138-.1318.294-.1429.455-.0112.161.0159.322.0789.471-.7552.397-.623.793-1.4891.951-.9387-.7-.512-1.263.3029-1.689zm2.3808 5.026c-.7466.674-1.4933.034-1.7066-.619.2176-.23.7253.175.4949.35.1579.256.2176-.316.5973-.32-.0258-.114-.0814-.219-.1611-.305-.0797-.085-.1806-.148-.2924-.182-.1119-.034-.2307-.037-.3444-.01s-.2182.084-.3029.164c-.0763-.091-.1335-.196-.168-.31-.0344-.114-.0455-.233-.0325-.351.2005.145.7467.426.3584-.192.32-.286.3669.333.7253-.081.128.239-.2432.324 0 .606.2432.281.2176-.316.5974-.32l.4266.853c-.0649.031-.1223.076-.1686.131-.0462.056-.0801.12-.0995.19-.0194.069-.0238.142-.0128.213.0109.071.0369.139.0761.2zm.8918-.628c-.0309-.084-.0911-.153-.1695-.197-.0784-.043-.1697-.056-.2572-.037.0268-.147.0011-.298-.0725-.427.192-.132.4266.039.3584-.192.2986 0 .6101.807.128.871zm.7466.828c.0281-.191-.0194-.385-.1322-.542.3882-.183.2304-.533.7082-.687.3755.244-.0554.427.4267.854-.5205.307-.512.465-1.0155.392zm.4267.534c.3413-.022.7637-.312 1.0837-.274.2816.286 0 .402.2006.662-.3828.157-.7275.394-1.0112.695-.1067-.439-.3584-.546-.2731-1.066zm1.7067 1.706c-.1664 0-.2731-.209-.4864-.047-.1835-.222-.0896-.362-.1366-.542.2859-.179.4694 0 .7254-.081-.0555.248-.2304.431-.1238.692zm-.2048-5.265c-.4267-.153-.7894-.747-.9942-1.254.7058-.034 1.4042-.159 2.0779-.371-.2645.61-1.5573 1.164-1.1051 1.646zm1.28 3.298c.0272-.146.0015-.297-.0726-.426.3286-.209.6443-.367.7894.038-.2603.209-.367.525-.7168.41zm1.1306-.759c-.1342-.06-.2447-.163-.3142-.293-.0694-.13-.094-.279-.0698-.424.3584-.149.4566-.128.8534.158-.0043.252-.1622.439-.4694.58zm.2262-1.016c-.4011-.426.081-.627-.4566-1.139-.2133.137.1408.427 0 .606-.3541.064-.7253.188-.9173-.277.6869-.649.8533-.427 1.6811-.593.0512.832.6485.349.9386 1.19-.5461.512-.7978.013-1.2458.213zm1.7365 1.532c-.3285.307-.4267-.179-.6699-.107-.0853-.226.0598-.379.3499-.49.1621.303.4139.247.3115.597zm3.5627 4.399c-.1494-.196 0-.303.0554-.183.1451-.124-.0597-.35-.1365-.542.062-.038.1313-.063.2033-.072.0721-.009.1453-.002.2147.019.0694.022.1334.057.1879.105.0545.049.0981.108.128.174-.1963.2-.2731.614-.6528.499zm1.809-4.958c-.4266.145-.0768.512-.593.623-.559-.183-.5419-.747-.6998-1.314.2599.064.5325.055.7873-.027s.4816-.234.6549-.438c.1365.213.2901.358.4949.35.1493.315-.2731.452-.5931.623.2219.149.5163.064.8534-.141.337.691-.6742.589-.9046.311zm37.7899 1.169c-.3541.192-.6997-.337-.6229-.593l.3584-.188c.0705.03.134.075.1863.131.0522.056.0921.122.1171.194.0249.073.0344.15.0277.226s-.0294.15-.0666.217zm3.1701-1.54c-.0981-.533-.128-1.041-.2218-1.57.7296-.162.7466 1.19.2218 1.557zm.4566 3.443c-1.2246.149-.128-.589-.4566-1.139.2219-.188.3627-.09.5419-.137.3797.534-.3243.756-.0853 1.263zm1.0026 1.306c-.0682-.256.0982-.427-.0768-.726.3883-.081.2176-.332.5334-.426 0 .269-.175.482.145.853zm.7424-4.083c-.0123-.058-.0398-.111-.0795-.154-.0398-.043-.0904-.075-.1466-.092s-.1159-.019-.1729-.005-.1093.043-.1514.084c-.1322-.205 0-.328-.1365-.542.358-.108.7418-.096 1.0923.034.2346.325-.256.44-.4054.645zm2.1718-4.847c-.1707-.487-.2347-.935.2688-1.216.0341.431.0981.883-.2688 1.203zm1.1477 4.454c-.3541-.474.7168-1.361.9557-.508-.5589.214-.5034.47-.9557.495zm.6443-10.018-.256-.478c.5504-.324 1.0282-.427 1.425-1.0667-.1152.7257.3072.6917.6998 1.3137-.5376.982-1.1264-.388-1.8688.218zm2.8757 1.075c-.4267.081-.8533.141-1.28.218-.0184-.392.0322-.783.1493-1.157.4907-.426.6614.239 1.0923.03-.013.118-.0019.238.0326.351.0344.114.0916.22.1679.311-.2048-.069-.2901.017-.1621.234zm2.671-8.7978c-.521.1749-1.007.8533-1.4891.9472-.384-.7637.9391-1.8517 1.4891-.96zm-1.041 1.7835c.051-.1494-.103-.3627.047-.4864.341-.128.572.0981.798.3456-.38.3498-.5-.128-.845.128zm.994 11.9043-.32-.598c.546.154.265-.512.892-.631.401.589-.273.853-.572 1.229zm2.735-2.074c-.329.201.154.644-.346.798-.128-.209 0-.333-.136-.542-.094.269.021.606-.525.738-.103-.056-.194-.132-.267-.223-.074-.092-.128-.197-.16-.31.491-.154.406-.478.896-.632-.247-.29-.567-.337-.806-.644-.201.175-.034.457-.469.559-.389-.107-.218-.491-.265-.781.118.013.238.002.351-.032.114-.035.219-.092.31-.168.174.09.308.242.376.426.58-.277.217-.955.883-.93.026.342-.427.542-.277.913.64-.187 1.152.086 1.233.879-.376.286-.546-.051-.807-.051zm.55-22.2591c-.392-.3115-.597-1.007-.094-1.3312.088.2763.135.5636.141.8533.401-.2688.12-.4864.653-.5035-.277-.5162-.828-.1237-1.105-.6357.721.2133 1.045-.0853 1.809-.3541.235.4266-.427.721.26.7808-.2.5376-.9.4266-.938 1.1178-.064-.7338-.316-.145-.734.0726zm1.11 18.7731c-.427 0-.393-.708-.325-.9.167-.047.248.175.128.239.154.06.32.078.483.051.093.243-.393.346-.295.593zm1.322-.397c-.426-.226-1.071-.392-1.169-.755-.047-.618 2.658-.653 1.161.738zm.205-5.9473c-.175-.5504.615-.815.141-1.455.401.111.9-.0938 1.109.6358-.497.1203-.939.4025-1.258.8021zm.636-5.44c-.222-.4011 0-.6656.094-.9728.345-.1451.512.2986.798.3413-.064.3072-.525.7424-.892.6315zm.853-1.839c-.055-.3584-.183-.7253-.678-.4266 0-.6656 1.22-.1494 1.523.2645-.235-.0555-.576.256-.841.1749zm.103-5.2778c.145-.5675.921-.4267 1.036.2133-.499.4565-.661-.2176-1.032-.2005zm1.066 10.3338c.559-.1322.815-.2517 1.011-.6912.099.2219.278.175.376.4267-.461.1621-.068.5803-.529.7424.111.512.55-.0512.678.4267-.61.5845-.776-.2944-1.331.0981.12-.2901-.316-.7211-.2-.9899zm.359 2.1334c-.32-.4267.58-.4907.094-.9728.215-.0099.43.0256.631.1043.2.0786.382.1986.533.3522-.089.6272-.81.6272-1.237.5077zm1.566-7.1339c-.448.1621-.623-.5888-1.157-.1493.094-.4267.482-.7894.209-1.3398.141-.0059.278-.0431.402-.1088s.231-.1582.315-.2709c.167.5461.043 1.3269.755 1.1307.141.5376-.593.2005-.52.7296zm.328.9003c.068-.5291.666-.0256 1.02-.3883.401.6912-.525.7552-.764.8533-.038-.1493.265-.7722-.252-.4736zm2.232 4.1856c-.265-.239-1.046-.4864-1.157-.1494-.187.064-.23-.337-.426-.2346.234-.5718 1.096.3413 1.437-.4608.214.2858.564.128.687.7082-.405.0299-.657-.6357-.537.128zm.311-13.2267c.055-.3157 0-.6699.461-.8533.068.2261.213.1792.367.1109-.017.2052-.111.3963-.264.5337-.154.1374-.354.2106-.56.2044zm.03-3.4133c-.158-.4822.034-.9216.584-.9216-.106.5333.329.7808.333 1.2032-.431-.3584-.414-.4992-.913-.2688zm1.587.384c.14.3021.211.6314.209.9642-.091.0756-.197.1322-.31.1666-.114.0344-.233.046-.351.034-.384-.5376.252-.7808.456-1.152zm-.371 8.7978c-.039-.512-.128-1.041.145-1.4592.46.2053.879.4947 1.233.8534-.512.4266-.887.3413-1.374.6186zm1.707-4.8938c-.197-.3542-.636-.3968-.999-1.0027.551-.1621 1.809.448.986 1.0155zm.601-2.3211c-.294-.5035-.085-.64-.397-1.3227.568.0683.282-.5632.854-.4266.264-.4267-.295-.6656-.209-.9643.533-.2987.14.3883.503.6528.465-.2261.128-.6955.213-1.0368.751 0 .564 1.0795-.085 1.28.201.2475.7.0384.559.4693-.61-.0426-.73.3627-1.323.3968.098.2262.278.175.372.4267-.572.0512-.082.4309-.5.5376zm1.468.448c-.243-.6101-.039-1.0795.627-1.4123.213.0683.363.3499.504.6528-.231.3072-.658.8704-1.144.7723zm1.553-14.3445c.028-.1929-.021-.3891-.137-.5462-.733.2134-.448.7339-1.186.943-.071-.3146-.218-.6073-.426-.8534.524-.209.874-.4693.58-.9258.091-.0756.197-.1322.31-.1666.114-.0344.233-.046.351-.034.064.3883-.533 0-.533.4267.478.3755 1.357-.8064 1.395.0256.277.1493.478-.4949.73.2219-1.05.0256-.29.4693-1.097.9216z" fill="#699d41" fill-rule="evenodd"/><g fill="#fff"><path d="m44.9494 30.3488-1.8219-.1707-2.0181.4267-4.8427.1749-2.1888.2987c-.0529-.0012-.1042.0181-.1432.0539s-.0626.0853-.0659.1381l-.0725 1.5829.3115 2.0395.2005 2.9866c.0046.0262.0144.0511.0287.0734.0143.0224.0329.0416.0548.0567.0218.0151.0464.0257.0724.0312.0259.0055.0527.0058.0788.0009l4.5866-.1536 3.6438-.4011 2.641-.1749c.0264.0011.0527-.0029.0774-.012.0248-.009.0476-.0228.067-.0407.0194-.0178.0351-.0393.0462-.0632s.0174-.0498.0185-.0761l.1835-1.664-.4267-2.1334-.0683-1.0325-.1194-1.7707c-.0041-.0275-.0138-.0538-.0284-.0775-.0146-.0236-.0338-.0441-.0566-.06-.0227-.016-.0485-.0272-.0757-.0329s-.0553-.0057-.0825-.0002z"/><path d="m58.88 61.3717c-.0398-1.0268-.0768-2.0551-.1109-3.0848-.0768-2.24.2261-4.6933-.1365-6.9248-.3414-2.0864-1.3227-3.9296-2.4704-5.7045-.3843-.5942-.8212-1.1525-1.3056-1.6683-1.28-1.3397-2.5174-2.6155-4.2283-3.3451-1.472-.6229-3.3579-.7893-4.9451-.913l-11.008.7381-.3584.0213c-2.2856.481-4.438 1.4567-6.3061 2.8587-1.4247 1.1991-2.5435 2.7202-3.264 4.4373-.31.6637-.5612 1.3533-.7509 2.0608-.6955 2.56-.6272 5.3419-.4011 8.0811.0768.9131 0 2.6027.0725 3.5029.1792 1.7536.5334 2.735.6998 4.4928.1664 1.7579.3285 3.5456.4864 5.3163.32 3.5541.2432 7.1893.5674 10.7008.1536 1.6171.6998 3.1317.8534 4.7317.0554.5206.1066 1.0454.1578 1.5659.2176 2.1333.4267 4.2069.6827 6.2805l3.5669.1152 4.7744-.6784 8.5419-.5717 1.3653.2645 7.68-.8533 7.04-.4736c-.0256-1.3355.128-3.2043.0896-4.5568-.0512-1.7493-.2944-2.9867-.3584-4.7659-.0256-.6229-.0512-1.2501-.0725-1.8773-.0896-2.2485-.1877-4.5141-.2901-6.784l-.1152-2.624c-.0214-.4779.256-2.56.2346-3.0293-.1408-2.9782-.5674-4.3563-.6912-7.3131zm-27.1829 13.568.1024 4.0661.1323 1.9499.4266 3.6224.1622 4.6677c.0222.3236-.0847.6428-.2975.8875-.2128.2448-.514.3952-.8375.4181-.3228.0212-.6409-.0864-.8847-.299-.2439-.2127-.3936-.5132-.4166-.8359l-.2688-2.0224-.2304-5.2309-.2261-3.3024-.1195-1.7067-.3712-3.8997-.0853-2.7819c-.0223-.3235.0847-.6427.2974-.8875.2128-.2448.514-.3951.8375-.4181.6741-.0427 1.4421.4267 1.4891 1.1136zm22.7755-14.7115.1024 3.6608c.0743.8286-.073 1.662-.4267 2.415-.5973 1.0325-1.7621 1.4549-3.0421 1.5402-.9518.0629-1.8913-.2426-2.624-.8533-.3771-.2743-.6925-.6246-.9259-1.0283-.2323-.4946-.3684-1.0289-.4011-1.5744l-.273-4.0618-.3286-2.8715-.1194-3.8059c-.0925-.8333.0823-1.6745.4992-2.4021.3421-.4669.7863-.8495 1.2987-1.1186.5124-.2692 1.0795-.4178 1.6581-.4345 2.0437-.1365 3.9296 1.0326 4.0704 3.0763v2.1589l.2432 3.5926z"/><path d="m80.7126 76.3264c.0512-.0897.0782-.1912.0782-.2944 0-.1033-.027-.2048-.0782-.2944l-.0384.6698c.0149-.0259.0277-.053.0384-.081z"/><path d="m107.093 50.1461-2.619-.4267-6.0804-.0725-2.8202-.4736h-5.4742l-1.92-.1109-1.0069-.1195c.0256 1.9328-.0256 3.9936-.0597 5.7813v.4736h.768l1.8688.2646 4.3008.0384 2.176.337.8789.047 3.9679.4053 3.546.1024-.162 1.7067-.192 3.3664-3.064-.0342-3.1828-.3242h-4.1088l-2.6411-.4267-3.9893-.4267h-.2646c-.1408 1.0368-.4864 3.1915-.5589 3.7718-.1792 1.5018-.3968 2.9866-.6443 4.4928-.4522 2.6794-.6485 4.3648-1.3056 6.8821-.32 1.2288-1.0282 3.3835-1.3952 4.5483-1.2074 3.84-2.2101 6.8266-3.7376 9.4208l4.591.2645 3.025.5504 9.1947.1536 3.8915.4565 7.415.2006.213-3.7035.559-4.4544.026-5.632.316-2.2229.072-4.5227.158-2.688.568-3.5968.332-5.7301.111-8.1664z"/><path d="m58.5259 60.928-.1195-.8192c-.064.4266-.1322.9002-.2218 1.4208-.2091 1.1733-.3926 2.3509-.559 3.5285-.1322.9472-.2773 1.9371-.4266 2.9355.4191-.2356.7692-.5769 1.0154-.9899.3514-.7537.4986-1.5865.4267-2.4149z"/><path d="m82.9355 47.2106c-.1877-2.2741-.7339-3.5413-1.1989-5.44-.2556-1.0575-.5821-2.0966-.9771-3.1104-.3482-.8941-.7842-1.7517-1.3013-2.56-1.152-1.7792-2.6112-2.9525-4.4075-3.3152h-.1323c-.0469 0-.0896 0-.1365-.0256-3.1531-.3456-6.4981 1.6427-9.0368 5.4998-1.4549 2.2101-2.3723 5.2138-3.5413 8.2858-.2475.6528-.3712 1.024-.6059 1.7067.5448 1.2213.9112 2.5145 1.088 3.84.3669 2.2101.0597 4.6933.1365 6.9205.0342 1.0297.0711 2.058.111 3.0848.0469 1.1691.1322 1.8134.2389 2.6838 1.0419-.0013 2.0827.0699 3.1147.2133 1.2032.0939 2.4661.3925 3.6565.5803 1.1904.1877 2.6069.2517 3.7803.529 1.1142.3269 2.2036.7333 3.2597 1.216.4907.1878.7168.6272.5077.9728-.0821.1137-.1897.2065-.3142.2709-.1245.0645-.2624.0989-.4026.1003-1.161.0952-2.3271.1094-3.4901.0427-1.2032-.0939-2.56-.3413-3.7504-.5291-1.1904-.1877-2.3979-.2688-3.5712-.5461-.8705-.2301-1.7255-.5151-2.56-.8533.0896.7594.1707 1.5829.2133 2.5856.0214.4778-.2517 2.56-.2304 3.0293.0384.8533 0 1.3269.0256 2.1803.5206-.0299 1.1222.3498 1.6768.384 1.0667.0725 2.2699.3285 3.3238.4906 1.0538.1622 2.3978.2902 3.4346.5462.9553.2796 1.8857.6378 2.7819 1.0709.095.0302.1825.0802.2567.1468.0742.0665.1335.1481.1738.2393.0403.0911.0608.1898.0602.2895-.0007.0997-.0225.1981-.064.2887-.0696.1099-.1643.2016-.2763.2677-.112.066-.2382.1044-.368.112-1.1157.0515-2.2337.0215-3.3451-.0896-1.0666-.0725-2.0138-.1024-3.0634-.2645-1.0496-.1622-2.0992-.2432-3.136-.4992-.4333-.1101-.8605-.2425-1.28-.3968.064 1.553.1322 3.1018.192 4.6464.0256.6272.0512 1.2501.0725 1.8773 0 .2005 0 .3925.0299.5803h.3114c.9313.0707 1.8584.1889 2.7776.3541.8747.1365 1.9456.2688 2.8075.4992.8084.2405 1.5915.5592 2.3381.9515.1389.0649.253.1732.3251.3085.0721.1354.0984.2904.0748.4419-.0236.1516-.0957.2913-.2055.3984-.1098.107-.2514.1755-.4034.1952-.8309.1454-1.674.2097-2.5174.192-.8874-.0427-1.9498-.2432-2.8245-.3798-.8376-.1721-1.6652-.3901-2.4789-.6528.0554.5846.1066 1.1904.1237 1.8688.0384 1.3526 0 5.12.0384 6.4598l-3.1659.3072c.8213.989 1.9032 1.728 3.1232 2.1333v.0768l.4736.0512h.1323l.1237.0214c1.0159.1524 2.0541.004 2.9867-.4267.6733-.2763 1.3085-.6377 1.8901-1.0752 1.4081-1.1008 2.6699-2.3769 3.7547-3.7974 2.048-2.7989 3.2384-6.1269 4.7275-10.5216.3925-1.1562 1.1477-3.2938 1.4933-4.5184.5971-2.2583 1.0799-4.5453 1.4464-6.8522.2816-1.4848.5291-2.9867.7424-4.48.0981-.6742.6187-3.503.6997-4.1771.2944-2.4619.064-2.7605.1579-5.1456.1451-2.9483.3243-6.6475.1024-9.2843zm-4.8043 11.0294c-.0689.1099-.1628.2019-.274.2686-.1112.0668-.2366.1063-.366.1154-1.0922.0938-1.9328.3029-2.9866.2346-1.0539-.0682-2.3552-.4266-3.4134-.593-1.0581-.1664-2.2656-.2518-3.3024-.5078-.9984-.2927-1.9727-.6621-2.9141-1.105-.095-.0302-.1825-.0803-.2567-.1468-.0742-.0666-.1335-.1481-.1738-.2393-.0403-.0911-.0608-.1898-.0602-.2895.0007-.0997.0225-.1981.064-.2887.0686-.1112.1629-.2041.2751-.271.1122-.0668.2388-.1056.3692-.113 1.0764-.0832 2.1577-.0832 3.2341 0 1.0667.0725 2.2699.0853 3.3195.2517s1.9541.4779 2.9867.7339c1.0506.2489 2.0805.5784 3.0805.9856.0947.0305.1817.0809.2554.1477.0736.0669.1322.1486.1718.2399.0395.0912.0592.1898.0576.2893-.0015.0994-.0243.1974-.0667.2874zm.3798-10.0651c-.0521.1055-.129.1967-.2241.2658-.0952.0691-.2057.1141-.3221.131-.8959.109-1.7998.1375-2.7008.0853-.8801-.0125-1.7588-.0723-2.6325-.1792-.881-.1674-1.7526-.381-2.6112-.64-.8794-.2219-1.7364-.5247-2.56-.9045-.1389-.0649-.253-.1732-.3251-.3085-.0721-.1354-.0983-.2904-.0748-.442.0236-.1515.0957-.2912.2055-.3983.1098-.107.2514-.1755.4035-.1952.8316-.1676 1.6775-.2547 2.5258-.2603.9456.1022 1.8854.2517 2.816.448.8767.1357 1.7455.318 2.6027.5462.8794.2219 1.7364.5247 2.56.9045.1692.082.2992.2276.3615.405.0624.1775.0521.3724-.0287.5422z"/></g></svg>